%TF.GenerationSoftware,KiCad,Pcbnew,9.0.7*%
%TF.CreationDate,2026-05-15T12:01:00-07:00*%
%TF.ProjectId,placa_lora2,706c6163-615f-46c6-9f72-61322e6b6963,rev?*%
%TF.SameCoordinates,Original*%
%TF.FileFunction,Copper,L1,Top*%
%TF.FilePolarity,Positive*%
%FSLAX46Y46*%
G04 Gerber Fmt 4.6, Leading zero omitted, Abs format (unit mm)*
G04 Created by KiCad (PCBNEW 9.0.7) date 2026-05-15 12:01:00*
%MOMM*%
%LPD*%
G01*
G04 APERTURE LIST*
G04 Aperture macros list*
%AMRoundRect*
0 Rectangle with rounded corners*
0 $1 Rounding radius*
0 $2 $3 $4 $5 $6 $7 $8 $9 X,Y pos of 4 corners*
0 Add a 4 corners polygon primitive as box body*
4,1,4,$2,$3,$4,$5,$6,$7,$8,$9,$2,$3,0*
0 Add four circle primitives for the rounded corners*
1,1,$1+$1,$2,$3*
1,1,$1+$1,$4,$5*
1,1,$1+$1,$6,$7*
1,1,$1+$1,$8,$9*
0 Add four rect primitives between the rounded corners*
20,1,$1+$1,$2,$3,$4,$5,0*
20,1,$1+$1,$4,$5,$6,$7,0*
20,1,$1+$1,$6,$7,$8,$9,0*
20,1,$1+$1,$8,$9,$2,$3,0*%
G04 Aperture macros list end*
%TA.AperFunction,Conductor*%
%ADD10C,0.200000*%
%TD*%
%TA.AperFunction,SMDPad,CuDef*%
%ADD11R,2.250000X1.100000*%
%TD*%
%TA.AperFunction,SMDPad,CuDef*%
%ADD12R,1.100000X1.050000*%
%TD*%
%TA.AperFunction,SMDPad,CuDef*%
%ADD13RoundRect,0.317500X-1.157500X-0.317500X1.157500X-0.317500X1.157500X0.317500X-1.157500X0.317500X0*%
%TD*%
%TA.AperFunction,ComponentPad*%
%ADD14R,1.700000X1.700000*%
%TD*%
%TA.AperFunction,ComponentPad*%
%ADD15C,1.700000*%
%TD*%
%TA.AperFunction,Conductor*%
%ADD16C,0.600000*%
%TD*%
%TA.AperFunction,Conductor*%
%ADD17C,0.800000*%
%TD*%
%TA.AperFunction,Conductor*%
%ADD18C,0.700000*%
%TD*%
G04 APERTURE END LIST*
%TO.N,DIO0*%
D10*
X140620000Y-76190000D02*
X167060000Y-76190000D01*
X167060000Y-103440000D01*
X140620000Y-103440000D01*
X140620000Y-76190000D01*
%TD*%
D11*
%TO.P,J5,1,GND*%
%TO.N,GND*%
X163600000Y-97575000D03*
%TO.P,J5,2,GND*%
X163600000Y-100525000D03*
D12*
%TO.P,J5,3,SIG*%
%TO.N,ANT*%
X162050000Y-99050000D03*
%TD*%
D13*
%TO.P,U2,1,GND*%
%TO.N,unconnected-(U2-GND-Pad1)*%
X144230000Y-85040000D03*
%TO.P,U2,2,MISO*%
%TO.N,MISO*%
X144230000Y-87040000D03*
%TO.P,U2,3,MOSI*%
%TO.N,MOSI*%
X144230000Y-89040000D03*
%TO.P,U2,4,SCK*%
%TO.N,SCK*%
X144230000Y-91040000D03*
%TO.P,U2,5,NSS*%
%TO.N,NSS*%
X144230000Y-93040000D03*
%TO.P,U2,6,RESET*%
%TO.N,RESET*%
X144230000Y-95040000D03*
%TO.P,U2,7,DIO5*%
%TO.N,unconnected-(U2-DIO5-Pad7)*%
X144230000Y-97040000D03*
%TO.P,U2,8,GND*%
%TO.N,GND*%
X144230000Y-99040000D03*
%TO.P,U2,9,ANT*%
%TO.N,ANT*%
X159280000Y-99040000D03*
%TO.P,U2,10,GND*%
%TO.N,unconnected-(U2-GND-Pad10)*%
X159280000Y-97040000D03*
%TO.P,U2,11,DIO3*%
%TO.N,unconnected-(U2-DIO3-Pad11)*%
X159280000Y-95040000D03*
%TO.P,U2,12,DIO4*%
%TO.N,unconnected-(U2-DIO4-Pad12)*%
X159280000Y-93040000D03*
%TO.P,U2,13,3.3V*%
%TO.N,3.3V*%
X159280000Y-91040000D03*
%TO.P,U2,14,DIO0*%
%TO.N,DIO0*%
X159280000Y-89040000D03*
%TO.P,U2,15,DIO1*%
%TO.N,unconnected-(U2-DIO1-Pad15)*%
X159280000Y-87040000D03*
%TO.P,U2,16,DIO2*%
%TO.N,unconnected-(U2-DIO2-Pad16)*%
X159280000Y-85040000D03*
%TD*%
D14*
%TO.P,J3,1,Pin_1*%
%TO.N,GND*%
X161680000Y-79000000D03*
D15*
%TO.P,J3,2,Pin_2*%
%TO.N,DIO0*%
X159140000Y-79000000D03*
%TO.P,J3,3,Pin_3*%
%TO.N,3.3V*%
X156600000Y-79000000D03*
%TO.P,J3,4,Pin_4*%
%TO.N,RESET*%
X154060000Y-79000000D03*
%TO.P,J3,5,Pin_5*%
%TO.N,NSS*%
X151520000Y-79000000D03*
%TO.P,J3,6,Pin_6*%
%TO.N,SCK*%
X148980000Y-79000000D03*
%TO.P,J3,7,Pin_7*%
%TO.N,MOSI*%
X146440000Y-79000000D03*
%TO.P,J3,8,Pin_8*%
%TO.N,MISO*%
X143900000Y-79000000D03*
%TD*%
D16*
%TO.N,DIO0*%
X159280000Y-89040000D02*
X157805000Y-89040000D01*
X157104000Y-88339000D02*
X157104000Y-80996000D01*
X157104000Y-80996000D02*
X159060000Y-79040000D01*
X157805000Y-89040000D02*
X157104000Y-88339000D01*
D17*
%TO.N,3.3V*%
X156880000Y-91040000D02*
X155670000Y-89830000D01*
X159280000Y-91040000D02*
X156880000Y-91040000D01*
X155660000Y-79900000D02*
X156520000Y-79040000D01*
X155670000Y-89830000D02*
X155670000Y-84470000D01*
X155670000Y-84470000D02*
X155660000Y-84460000D01*
X155660000Y-84460000D02*
X155660000Y-79900000D01*
D16*
%TO.N,MISO*%
X143820000Y-79040000D02*
X143820000Y-79810000D01*
X145290000Y-87040000D02*
X144230000Y-87040000D01*
X147440000Y-84890000D02*
X145290000Y-87040000D01*
X143820000Y-79810000D02*
X147440000Y-83430000D01*
X147440000Y-83430000D02*
X147440000Y-84890000D01*
%TO.N,SCK*%
X148900000Y-80710000D02*
X148900000Y-79040000D01*
X150120000Y-81930000D02*
X148900000Y-80710000D01*
X146676940Y-91040000D02*
X150120000Y-87596940D01*
X144230000Y-91040000D02*
X146676940Y-91040000D01*
X150120000Y-87596940D02*
X150120000Y-81930000D01*
%TO.N,MOSI*%
X148700000Y-86500000D02*
X148700000Y-82570000D01*
X148700000Y-82570000D02*
X146360000Y-80230000D01*
X146360000Y-80230000D02*
X146360000Y-79040000D01*
X144230000Y-89040000D02*
X146160000Y-89040000D01*
X146160000Y-89040000D02*
X148700000Y-86500000D01*
%TO.N,NSS*%
X144230000Y-93040000D02*
X146375410Y-93040000D01*
X151440000Y-87975410D02*
X151440000Y-87234410D01*
X151440000Y-87234410D02*
X151440000Y-79040000D01*
X146375410Y-93040000D02*
X151440000Y-87975410D01*
D18*
%TO.N,ANT*%
X159280000Y-99040000D02*
X162040000Y-99040000D01*
X162040000Y-99040000D02*
X162050000Y-99050000D01*
D16*
%TO.N,RESET*%
X146073880Y-95040000D02*
X153980000Y-87133880D01*
X144230000Y-95040000D02*
X146073880Y-95040000D01*
X153980000Y-87133880D02*
X153980000Y-79040000D01*
%TD*%
%TA.AperFunction,Conductor*%
%TO.N,GND*%
G36*
X166402539Y-76810185D02*
G01*
X166448294Y-76862989D01*
X166459500Y-76914500D01*
X166459500Y-102715500D01*
X166439815Y-102782539D01*
X166387011Y-102828294D01*
X166335500Y-102839500D01*
X141344500Y-102839500D01*
X141277461Y-102819815D01*
X141231706Y-102767011D01*
X141220500Y-102715500D01*
X141220500Y-101122844D01*
X161975000Y-101122844D01*
X161981401Y-101182372D01*
X161981403Y-101182379D01*
X162031645Y-101317086D01*
X162031649Y-101317093D01*
X162117809Y-101432187D01*
X162117812Y-101432190D01*
X162232906Y-101518350D01*
X162232913Y-101518354D01*
X162367620Y-101568596D01*
X162367627Y-101568598D01*
X162427155Y-101574999D01*
X162427172Y-101575000D01*
X163350000Y-101575000D01*
X163850000Y-101575000D01*
X164772828Y-101575000D01*
X164772844Y-101574999D01*
X164832372Y-101568598D01*
X164832379Y-101568596D01*
X164967086Y-101518354D01*
X164967093Y-101518350D01*
X165082187Y-101432190D01*
X165082190Y-101432187D01*
X165168350Y-101317093D01*
X165168354Y-101317086D01*
X165218596Y-101182379D01*
X165218598Y-101182372D01*
X165224999Y-101122844D01*
X165225000Y-101122827D01*
X165225000Y-100775000D01*
X163850000Y-100775000D01*
X163850000Y-101575000D01*
X163350000Y-101575000D01*
X163350000Y-100775000D01*
X161975000Y-100775000D01*
X161975000Y-101122844D01*
X141220500Y-101122844D01*
X141220500Y-99403418D01*
X142255000Y-99403418D01*
X142270451Y-99540553D01*
X142270452Y-99540559D01*
X142331296Y-99714443D01*
X142429308Y-99870428D01*
X142559571Y-100000691D01*
X142715556Y-100098703D01*
X142889440Y-100159547D01*
X142889446Y-100159548D01*
X143026581Y-100174999D01*
X143026585Y-100175000D01*
X143980000Y-100175000D01*
X144480000Y-100175000D01*
X145433415Y-100175000D01*
X145433418Y-100174999D01*
X145570553Y-100159548D01*
X145570559Y-100159547D01*
X145744443Y-100098703D01*
X145900428Y-100000691D01*
X146030691Y-99870428D01*
X146128703Y-99714443D01*
X146189547Y-99540559D01*
X146189548Y-99540553D01*
X146204999Y-99403418D01*
X146205000Y-99403414D01*
X146205000Y-99290000D01*
X144480000Y-99290000D01*
X144480000Y-100175000D01*
X143980000Y-100175000D01*
X143980000Y-99290000D01*
X142255000Y-99290000D01*
X142255000Y-99403418D01*
X141220500Y-99403418D01*
X141220500Y-84676557D01*
X142254500Y-84676557D01*
X142254500Y-85403442D01*
X142269961Y-85540671D01*
X142330845Y-85714665D01*
X142428915Y-85870742D01*
X142510492Y-85952319D01*
X142543977Y-86013642D01*
X142538993Y-86083334D01*
X142510492Y-86127681D01*
X142428915Y-86209257D01*
X142330845Y-86365334D01*
X142269961Y-86539328D01*
X142254500Y-86676557D01*
X142254500Y-87403442D01*
X142269961Y-87540671D01*
X142330845Y-87714665D01*
X142428915Y-87870742D01*
X142510492Y-87952319D01*
X142543977Y-88013642D01*
X142538993Y-88083334D01*
X142510492Y-88127681D01*
X142428915Y-88209257D01*
X142330845Y-88365334D01*
X142269961Y-88539328D01*
X142254500Y-88676557D01*
X142254500Y-89403442D01*
X142269961Y-89540671D01*
X142330845Y-89714665D01*
X142428915Y-89870742D01*
X142510492Y-89952319D01*
X142543977Y-90013642D01*
X142538993Y-90083334D01*
X142510492Y-90127681D01*
X142428915Y-90209257D01*
X142330845Y-90365334D01*
X142269961Y-90539328D01*
X142254500Y-90676557D01*
X142254500Y-91403442D01*
X142269961Y-91540671D01*
X142330845Y-91714665D01*
X142428915Y-91870742D01*
X142510492Y-91952319D01*
X142543977Y-92013642D01*
X142538993Y-92083334D01*
X142510492Y-92127681D01*
X142428915Y-92209257D01*
X142330845Y-92365334D01*
X142269961Y-92539328D01*
X142254500Y-92676557D01*
X142254500Y-93403442D01*
X142269961Y-93540671D01*
X142330845Y-93714665D01*
X142428915Y-93870742D01*
X142510492Y-93952319D01*
X142543977Y-94013642D01*
X142538993Y-94083334D01*
X142510492Y-94127681D01*
X142428915Y-94209257D01*
X142330845Y-94365334D01*
X142269961Y-94539328D01*
X142254500Y-94676557D01*
X142254500Y-95403442D01*
X142269961Y-95540671D01*
X142330845Y-95714665D01*
X142428915Y-95870742D01*
X142510492Y-95952319D01*
X142543977Y-96013642D01*
X142538993Y-96083334D01*
X142510492Y-96127681D01*
X142428915Y-96209257D01*
X142330845Y-96365334D01*
X142269961Y-96539328D01*
X142254500Y-96676557D01*
X142254500Y-97403442D01*
X142269961Y-97540671D01*
X142330845Y-97714665D01*
X142428915Y-97870742D01*
X142510845Y-97952672D01*
X142544330Y-98013995D01*
X142539346Y-98083687D01*
X142510846Y-98128034D01*
X142429307Y-98209573D01*
X142331296Y-98365556D01*
X142270452Y-98539440D01*
X142270451Y-98539446D01*
X142255000Y-98676581D01*
X142255000Y-98790000D01*
X146205000Y-98790000D01*
X146205000Y-98676585D01*
X146204999Y-98676581D01*
X146189548Y-98539446D01*
X146189547Y-98539440D01*
X146128703Y-98365556D01*
X146030691Y-98209571D01*
X145949154Y-98128034D01*
X145915669Y-98066711D01*
X145920653Y-97997019D01*
X145949150Y-97952676D01*
X146031085Y-97870742D01*
X146129156Y-97714663D01*
X146190037Y-97540674D01*
X146190037Y-97540673D01*
X146190038Y-97540671D01*
X146198487Y-97465673D01*
X146205500Y-97403438D01*
X146205500Y-96676562D01*
X146194806Y-96581649D01*
X146190038Y-96539328D01*
X146175422Y-96497559D01*
X146129156Y-96365337D01*
X146031085Y-96209258D01*
X145949508Y-96127681D01*
X145945169Y-96119735D01*
X145937922Y-96114310D01*
X145928687Y-96089550D01*
X145916023Y-96066358D01*
X145916668Y-96057328D01*
X145913505Y-96048846D01*
X145919121Y-96023025D01*
X145921007Y-95996666D01*
X145926825Y-95987612D01*
X145928357Y-95980573D01*
X145949508Y-95952319D01*
X146025008Y-95876819D01*
X146086331Y-95843334D01*
X146112689Y-95840500D01*
X146152724Y-95840500D01*
X146152725Y-95840499D01*
X146307377Y-95809737D01*
X146453059Y-95749394D01*
X146584169Y-95661789D01*
X150531295Y-91714663D01*
X154557819Y-87688140D01*
X154619142Y-87654655D01*
X154688834Y-87659639D01*
X154744767Y-87701511D01*
X154769184Y-87766975D01*
X154769500Y-87775821D01*
X154769500Y-89918696D01*
X154804103Y-90092659D01*
X154804104Y-90092663D01*
X154804105Y-90092666D01*
X154823505Y-90139500D01*
X154871987Y-90256547D01*
X154921472Y-90330606D01*
X154925389Y-90336468D01*
X154925390Y-90336470D01*
X154970534Y-90404034D01*
X154970538Y-90404039D01*
X156180536Y-91614035D01*
X156281164Y-91714663D01*
X156305966Y-91739465D01*
X156453446Y-91838009D01*
X156453459Y-91838016D01*
X156576363Y-91888923D01*
X156617334Y-91905894D01*
X156617336Y-91905894D01*
X156617341Y-91905896D01*
X156791304Y-91940499D01*
X156791307Y-91940500D01*
X156791309Y-91940500D01*
X157448311Y-91940500D01*
X157515350Y-91960185D01*
X157561105Y-92012989D01*
X157571049Y-92082147D01*
X157542024Y-92145703D01*
X157535992Y-92152181D01*
X157478915Y-92209257D01*
X157380845Y-92365334D01*
X157319961Y-92539328D01*
X157304500Y-92676557D01*
X157304500Y-93403442D01*
X157319961Y-93540671D01*
X157380845Y-93714665D01*
X157478915Y-93870742D01*
X157560492Y-93952319D01*
X157593977Y-94013642D01*
X157588993Y-94083334D01*
X157560492Y-94127681D01*
X157478915Y-94209257D01*
X157380845Y-94365334D01*
X157319961Y-94539328D01*
X157304500Y-94676557D01*
X157304500Y-95403442D01*
X157319961Y-95540671D01*
X157380845Y-95714665D01*
X157478915Y-95870742D01*
X157560492Y-95952319D01*
X157593977Y-96013642D01*
X157588993Y-96083334D01*
X157560492Y-96127681D01*
X157478915Y-96209257D01*
X157380845Y-96365334D01*
X157319961Y-96539328D01*
X157304500Y-96676557D01*
X157304500Y-97403442D01*
X157319961Y-97540671D01*
X157380845Y-97714665D01*
X157478915Y-97870742D01*
X157560492Y-97952319D01*
X157593977Y-98013642D01*
X157588993Y-98083334D01*
X157560492Y-98127681D01*
X157478915Y-98209257D01*
X157380845Y-98365334D01*
X157319961Y-98539328D01*
X157304500Y-98676557D01*
X157304500Y-99403442D01*
X157319961Y-99540671D01*
X157366229Y-99672896D01*
X157380844Y-99714663D01*
X157478915Y-99870742D01*
X157609258Y-100001085D01*
X157765337Y-100099156D01*
X157897559Y-100145422D01*
X157939328Y-100160038D01*
X158027090Y-100169925D01*
X158076557Y-100175499D01*
X158076558Y-100175500D01*
X158076562Y-100175500D01*
X160483442Y-100175500D01*
X160483442Y-100175499D01*
X160545673Y-100168487D01*
X160620671Y-100160038D01*
X160622074Y-100159547D01*
X160794663Y-100099156D01*
X160950742Y-100001085D01*
X160996037Y-99955789D01*
X161057358Y-99922305D01*
X161127049Y-99927289D01*
X161158028Y-99944205D01*
X161257664Y-100018793D01*
X161257671Y-100018797D01*
X161302618Y-100035561D01*
X161392517Y-100069091D01*
X161452127Y-100075500D01*
X161851002Y-100075499D01*
X161918039Y-100095183D01*
X161963794Y-100147987D01*
X161975000Y-100199499D01*
X161975000Y-100275000D01*
X165225000Y-100275000D01*
X165225000Y-99927172D01*
X165224999Y-99927155D01*
X165218598Y-99867627D01*
X165218596Y-99867620D01*
X165168354Y-99732913D01*
X165168350Y-99732906D01*
X165082190Y-99617812D01*
X165082187Y-99617809D01*
X164967093Y-99531649D01*
X164967086Y-99531645D01*
X164830667Y-99480764D01*
X164774733Y-99438893D01*
X164750316Y-99373428D01*
X164750000Y-99364582D01*
X164750000Y-98735417D01*
X164769685Y-98668378D01*
X164822489Y-98622623D01*
X164830667Y-98619235D01*
X164967086Y-98568354D01*
X164967093Y-98568350D01*
X165082187Y-98482190D01*
X165082190Y-98482187D01*
X165168350Y-98367093D01*
X165168354Y-98367086D01*
X165218596Y-98232379D01*
X165218598Y-98232372D01*
X165224999Y-98172844D01*
X165225000Y-98172827D01*
X165225000Y-97825000D01*
X161975000Y-97825000D01*
X161975000Y-97900500D01*
X161955315Y-97967539D01*
X161902511Y-98013294D01*
X161851000Y-98024500D01*
X161452129Y-98024500D01*
X161452123Y-98024501D01*
X161392516Y-98030908D01*
X161257671Y-98081202D01*
X161257669Y-98081203D01*
X161195584Y-98127681D01*
X161169863Y-98146936D01*
X161169466Y-98147233D01*
X161104002Y-98171650D01*
X161104001Y-98171649D01*
X161104001Y-98171650D01*
X161089150Y-98168419D01*
X161035729Y-98156799D01*
X161007474Y-98135647D01*
X160999508Y-98127681D01*
X160966023Y-98066358D01*
X160971007Y-97996666D01*
X160999508Y-97952319D01*
X161081085Y-97870742D01*
X161179156Y-97714663D01*
X161240037Y-97540674D01*
X161240037Y-97540673D01*
X161240038Y-97540671D01*
X161248487Y-97465673D01*
X161255500Y-97403438D01*
X161255500Y-96977155D01*
X161975000Y-96977155D01*
X161975000Y-97325000D01*
X163350000Y-97325000D01*
X163850000Y-97325000D01*
X165225000Y-97325000D01*
X165225000Y-96977172D01*
X165224999Y-96977155D01*
X165218598Y-96917627D01*
X165218596Y-96917620D01*
X165168354Y-96782913D01*
X165168350Y-96782906D01*
X165082190Y-96667812D01*
X165082187Y-96667809D01*
X164967093Y-96581649D01*
X164967086Y-96581645D01*
X164832379Y-96531403D01*
X164832372Y-96531401D01*
X164772844Y-96525000D01*
X163850000Y-96525000D01*
X163850000Y-97325000D01*
X163350000Y-97325000D01*
X163350000Y-96525000D01*
X162427155Y-96525000D01*
X162367627Y-96531401D01*
X162367620Y-96531403D01*
X162232913Y-96581645D01*
X162232906Y-96581649D01*
X162117812Y-96667809D01*
X162117809Y-96667812D01*
X162031649Y-96782906D01*
X162031645Y-96782913D01*
X161981403Y-96917620D01*
X161981401Y-96917627D01*
X161975000Y-96977155D01*
X161255500Y-96977155D01*
X161255500Y-96676562D01*
X161244806Y-96581649D01*
X161240038Y-96539328D01*
X161225422Y-96497559D01*
X161179156Y-96365337D01*
X161081085Y-96209258D01*
X160999508Y-96127681D01*
X160966023Y-96066358D01*
X160971007Y-95996666D01*
X160999508Y-95952319D01*
X161081085Y-95870742D01*
X161179156Y-95714663D01*
X161240037Y-95540674D01*
X161240037Y-95540673D01*
X161240038Y-95540671D01*
X161248487Y-95465673D01*
X161255500Y-95403438D01*
X161255500Y-94676562D01*
X161249925Y-94627090D01*
X161240038Y-94539328D01*
X161225422Y-94497559D01*
X161179156Y-94365337D01*
X161081085Y-94209258D01*
X160999508Y-94127681D01*
X160966023Y-94066358D01*
X160971007Y-93996666D01*
X160999508Y-93952319D01*
X161081085Y-93870742D01*
X161179156Y-93714663D01*
X161240037Y-93540674D01*
X161240037Y-93540673D01*
X161240038Y-93540671D01*
X161248487Y-93465673D01*
X161255500Y-93403438D01*
X161255500Y-92676562D01*
X161249925Y-92627090D01*
X161240038Y-92539328D01*
X161225422Y-92497559D01*
X161179156Y-92365337D01*
X161081085Y-92209258D01*
X160999508Y-92127681D01*
X160966023Y-92066358D01*
X160971007Y-91996666D01*
X160999508Y-91952319D01*
X161011328Y-91940499D01*
X161081085Y-91870742D01*
X161179156Y-91714663D01*
X161240037Y-91540674D01*
X161240037Y-91540673D01*
X161240038Y-91540671D01*
X161248487Y-91465673D01*
X161255500Y-91403438D01*
X161255500Y-90676562D01*
X161249925Y-90627090D01*
X161240038Y-90539328D01*
X161192697Y-90404036D01*
X161179156Y-90365337D01*
X161081085Y-90209258D01*
X160999508Y-90127681D01*
X160966023Y-90066358D01*
X160971007Y-89996666D01*
X160999508Y-89952319D01*
X161033135Y-89918692D01*
X161081085Y-89870742D01*
X161179156Y-89714663D01*
X161240037Y-89540674D01*
X161240037Y-89540673D01*
X161240038Y-89540671D01*
X161255252Y-89405638D01*
X161255500Y-89403438D01*
X161255500Y-88676562D01*
X161249925Y-88627090D01*
X161240038Y-88539328D01*
X161225422Y-88497559D01*
X161179156Y-88365337D01*
X161081085Y-88209258D01*
X160999508Y-88127681D01*
X160966023Y-88066358D01*
X160971007Y-87996666D01*
X160999508Y-87952319D01*
X161081085Y-87870742D01*
X161179156Y-87714663D01*
X161240037Y-87540674D01*
X161240037Y-87540673D01*
X161240038Y-87540671D01*
X161251162Y-87441940D01*
X161255500Y-87403438D01*
X161255500Y-86676562D01*
X161249925Y-86627090D01*
X161240038Y-86539328D01*
X161225422Y-86497559D01*
X161179156Y-86365337D01*
X161081085Y-86209258D01*
X160999508Y-86127681D01*
X160966023Y-86066358D01*
X160971007Y-85996666D01*
X160999508Y-85952319D01*
X161081085Y-85870742D01*
X161179156Y-85714663D01*
X161240037Y-85540674D01*
X161240037Y-85540673D01*
X161240038Y-85540671D01*
X161248487Y-85465673D01*
X161255500Y-85403438D01*
X161255500Y-84676562D01*
X161242189Y-84558422D01*
X161240038Y-84539328D01*
X161225422Y-84497559D01*
X161179156Y-84365337D01*
X161081085Y-84209258D01*
X160950742Y-84078915D01*
X160794663Y-83980844D01*
X160752896Y-83966229D01*
X160620671Y-83919961D01*
X160483442Y-83904500D01*
X160483438Y-83904500D01*
X158076562Y-83904500D01*
X158076552Y-83904500D01*
X158042382Y-83908350D01*
X157973560Y-83896295D01*
X157922182Y-83848945D01*
X157904500Y-83785130D01*
X157904500Y-81378939D01*
X157924185Y-81311900D01*
X157940815Y-81291262D01*
X158857703Y-80374373D01*
X158919026Y-80340889D01*
X158964782Y-80339582D01*
X159033713Y-80350500D01*
X159033714Y-80350500D01*
X159246286Y-80350500D01*
X159246287Y-80350500D01*
X159456243Y-80317246D01*
X159658412Y-80251557D01*
X159847816Y-80155051D01*
X159934478Y-80092088D01*
X160019784Y-80030110D01*
X160019784Y-80030109D01*
X160019792Y-80030104D01*
X160133717Y-79916178D01*
X160195036Y-79882696D01*
X160264728Y-79887680D01*
X160320662Y-79929551D01*
X160337577Y-79960528D01*
X160386646Y-80092088D01*
X160386649Y-80092093D01*
X160472809Y-80207187D01*
X160472812Y-80207190D01*
X160587906Y-80293350D01*
X160587913Y-80293354D01*
X160722620Y-80343596D01*
X160722627Y-80343598D01*
X160782155Y-80349999D01*
X160782172Y-80350000D01*
X161430000Y-80350000D01*
X161430000Y-79433012D01*
X161487007Y-79465925D01*
X161614174Y-79500000D01*
X161745826Y-79500000D01*
X161872993Y-79465925D01*
X161930000Y-79433012D01*
X161930000Y-80350000D01*
X162577828Y-80350000D01*
X162577844Y-80349999D01*
X162637372Y-80343598D01*
X162637379Y-80343596D01*
X162772086Y-80293354D01*
X162772093Y-80293350D01*
X162887187Y-80207190D01*
X162887190Y-80207187D01*
X162973350Y-80092093D01*
X162973354Y-80092086D01*
X163023596Y-79957379D01*
X163023598Y-79957372D01*
X163029999Y-79897844D01*
X163030000Y-79897827D01*
X163030000Y-79250000D01*
X162113012Y-79250000D01*
X162145925Y-79192993D01*
X162180000Y-79065826D01*
X162180000Y-78934174D01*
X162145925Y-78807007D01*
X162113012Y-78750000D01*
X163030000Y-78750000D01*
X163030000Y-78102172D01*
X163029999Y-78102155D01*
X163023598Y-78042627D01*
X163023596Y-78042620D01*
X162973354Y-77907913D01*
X162973350Y-77907906D01*
X162887190Y-77792812D01*
X162887187Y-77792809D01*
X162772093Y-77706649D01*
X162772086Y-77706645D01*
X162637379Y-77656403D01*
X162637372Y-77656401D01*
X162577844Y-77650000D01*
X161930000Y-77650000D01*
X161930000Y-78566988D01*
X161872993Y-78534075D01*
X161745826Y-78500000D01*
X161614174Y-78500000D01*
X161487007Y-78534075D01*
X161430000Y-78566988D01*
X161430000Y-77650000D01*
X160782155Y-77650000D01*
X160722627Y-77656401D01*
X160722620Y-77656403D01*
X160587913Y-77706645D01*
X160587906Y-77706649D01*
X160472812Y-77792809D01*
X160472809Y-77792812D01*
X160386649Y-77907906D01*
X160386646Y-77907912D01*
X160337577Y-78039471D01*
X160295705Y-78095404D01*
X160230241Y-78119821D01*
X160161968Y-78104969D01*
X160133714Y-78083818D01*
X160019786Y-77969890D01*
X159847820Y-77844951D01*
X159658414Y-77748444D01*
X159658413Y-77748443D01*
X159658412Y-77748443D01*
X159456243Y-77682754D01*
X159456241Y-77682753D01*
X159456240Y-77682753D01*
X159294957Y-77657208D01*
X159246287Y-77649500D01*
X159033713Y-77649500D01*
X158985042Y-77657208D01*
X158823760Y-77682753D01*
X158621585Y-77748444D01*
X158432179Y-77844951D01*
X158260213Y-77969890D01*
X158109890Y-78120213D01*
X157984949Y-78292182D01*
X157980484Y-78300946D01*
X157932509Y-78351742D01*
X157864688Y-78368536D01*
X157798553Y-78345998D01*
X157759516Y-78300946D01*
X157755050Y-78292182D01*
X157630109Y-78120213D01*
X157479786Y-77969890D01*
X157307820Y-77844951D01*
X157118414Y-77748444D01*
X157118413Y-77748443D01*
X157118412Y-77748443D01*
X156916243Y-77682754D01*
X156916241Y-77682753D01*
X156916240Y-77682753D01*
X156754957Y-77657208D01*
X156706287Y-77649500D01*
X156493713Y-77649500D01*
X156445042Y-77657208D01*
X156283760Y-77682753D01*
X156081585Y-77748444D01*
X155892179Y-77844951D01*
X155720213Y-77969890D01*
X155569890Y-78120213D01*
X155444949Y-78292182D01*
X155440484Y-78300946D01*
X155392509Y-78351742D01*
X155324688Y-78368536D01*
X155258553Y-78345998D01*
X155219516Y-78300946D01*
X155215050Y-78292182D01*
X155090109Y-78120213D01*
X154939786Y-77969890D01*
X154767820Y-77844951D01*
X154578414Y-77748444D01*
X154578413Y-77748443D01*
X154578412Y-77748443D01*
X154376243Y-77682754D01*
X154376241Y-77682753D01*
X154376240Y-77682753D01*
X154214957Y-77657208D01*
X154166287Y-77649500D01*
X153953713Y-77649500D01*
X153905042Y-77657208D01*
X153743760Y-77682753D01*
X153541585Y-77748444D01*
X153352179Y-77844951D01*
X153180213Y-77969890D01*
X153029890Y-78120213D01*
X152904949Y-78292182D01*
X152900484Y-78300946D01*
X152852509Y-78351742D01*
X152784688Y-78368536D01*
X152718553Y-78345998D01*
X152679516Y-78300946D01*
X152675050Y-78292182D01*
X152550109Y-78120213D01*
X152399786Y-77969890D01*
X152227820Y-77844951D01*
X152038414Y-77748444D01*
X152038413Y-77748443D01*
X152038412Y-77748443D01*
X151836243Y-77682754D01*
X151836241Y-77682753D01*
X151836240Y-77682753D01*
X151674957Y-77657208D01*
X151626287Y-77649500D01*
X151413713Y-77649500D01*
X151365042Y-77657208D01*
X151203760Y-77682753D01*
X151001585Y-77748444D01*
X150812179Y-77844951D01*
X150640213Y-77969890D01*
X150489890Y-78120213D01*
X150364949Y-78292182D01*
X150360484Y-78300946D01*
X150312509Y-78351742D01*
X150244688Y-78368536D01*
X150178553Y-78345998D01*
X150139516Y-78300946D01*
X150135050Y-78292182D01*
X150010109Y-78120213D01*
X149859786Y-77969890D01*
X149687820Y-77844951D01*
X149498414Y-77748444D01*
X149498413Y-77748443D01*
X149498412Y-77748443D01*
X149296243Y-77682754D01*
X149296241Y-77682753D01*
X149296240Y-77682753D01*
X149134957Y-77657208D01*
X149086287Y-77649500D01*
X148873713Y-77649500D01*
X148825042Y-77657208D01*
X148663760Y-77682753D01*
X148461585Y-77748444D01*
X148272179Y-77844951D01*
X148100213Y-77969890D01*
X147949890Y-78120213D01*
X147824949Y-78292182D01*
X147820484Y-78300946D01*
X147772509Y-78351742D01*
X147704688Y-78368536D01*
X147638553Y-78345998D01*
X147599516Y-78300946D01*
X147595050Y-78292182D01*
X147470109Y-78120213D01*
X147319786Y-77969890D01*
X147147820Y-77844951D01*
X146958414Y-77748444D01*
X146958413Y-77748443D01*
X146958412Y-77748443D01*
X146756243Y-77682754D01*
X146756241Y-77682753D01*
X146756240Y-77682753D01*
X146594957Y-77657208D01*
X146546287Y-77649500D01*
X146333713Y-77649500D01*
X146285042Y-77657208D01*
X146123760Y-77682753D01*
X145921585Y-77748444D01*
X145732179Y-77844951D01*
X145560213Y-77969890D01*
X145409890Y-78120213D01*
X145284949Y-78292182D01*
X145280484Y-78300946D01*
X145232509Y-78351742D01*
X145164688Y-78368536D01*
X145098553Y-78345998D01*
X145059516Y-78300946D01*
X145055050Y-78292182D01*
X144930109Y-78120213D01*
X144779786Y-77969890D01*
X144607820Y-77844951D01*
X144418414Y-77748444D01*
X144418413Y-77748443D01*
X144418412Y-77748443D01*
X144216243Y-77682754D01*
X144216241Y-77682753D01*
X144216240Y-77682753D01*
X144054957Y-77657208D01*
X144006287Y-77649500D01*
X143793713Y-77649500D01*
X143745042Y-77657208D01*
X143583760Y-77682753D01*
X143381585Y-77748444D01*
X143192179Y-77844951D01*
X143020213Y-77969890D01*
X142869890Y-78120213D01*
X142744951Y-78292179D01*
X142648444Y-78481585D01*
X142582753Y-78683760D01*
X142549500Y-78893713D01*
X142549500Y-79106286D01*
X142582753Y-79316239D01*
X142648444Y-79518414D01*
X142744951Y-79707820D01*
X142869890Y-79879786D01*
X143020209Y-80030105D01*
X143026968Y-80035015D01*
X143068648Y-80087884D01*
X143110602Y-80189172D01*
X143110609Y-80189185D01*
X143198210Y-80320288D01*
X143198213Y-80320292D01*
X146603181Y-83725259D01*
X146636666Y-83786582D01*
X146639500Y-83812940D01*
X146639500Y-84507060D01*
X146619815Y-84574099D01*
X146603181Y-84594741D01*
X146417181Y-84780741D01*
X146355858Y-84814226D01*
X146286166Y-84809242D01*
X146230233Y-84767370D01*
X146205816Y-84701906D01*
X146205500Y-84693060D01*
X146205500Y-84676558D01*
X146205499Y-84676557D01*
X146190038Y-84539328D01*
X146175422Y-84497559D01*
X146129156Y-84365337D01*
X146031085Y-84209258D01*
X145900742Y-84078915D01*
X145744663Y-83980844D01*
X145702896Y-83966229D01*
X145570671Y-83919961D01*
X145433442Y-83904500D01*
X145433438Y-83904500D01*
X143026562Y-83904500D01*
X143026558Y-83904500D01*
X142889328Y-83919961D01*
X142715334Y-83980845D01*
X142559257Y-84078915D01*
X142428915Y-84209257D01*
X142330845Y-84365334D01*
X142269961Y-84539328D01*
X142254500Y-84676557D01*
X141220500Y-84676557D01*
X141220500Y-76914500D01*
X141240185Y-76847461D01*
X141292989Y-76801706D01*
X141344500Y-76790500D01*
X166335500Y-76790500D01*
X166402539Y-76810185D01*
G37*
%TD.AperFunction*%
%TD*%
M02*
