<?xml version="1.0" standalone="no"?>
 <!DOCTYPE svg PUBLIC "-//W3C//DTD SVG 1.1//EN" 
 "http://www.w3.org/Graphics/SVG/1.1/DTD/svg11.dtd"> 
<svg
  xmlns:svg="http://www.w3.org/2000/svg"
  xmlns="http://www.w3.org/2000/svg"
  xmlns:xlink="http://www.w3.org/1999/xlink"
  version="1.1"
  width="297.0022mm" height="210.0072mm" viewBox="0.0000 0.0000 297.0022 210.0072">
<title>SVG Image created as placa_lora2-F_Cu.svg date 2026/05/14 11:55:31 </title>
  <desc>Image generated by PCBNEW </desc>
<g style="fill:#000000; fill-opacity:1.0000;stroke:#000000; stroke-opacity:1.0000;
stroke-linecap:round; stroke-linejoin:round;"
 transform="translate(0 0) scale(1 1)">
</g>
<g style="fill:#000000; fill-opacity:1.0000; 
stroke:#000000; stroke-width:0.0212; stroke-opacity:1; 
stroke-linecap:round; stroke-linejoin:round;">
<rect x="121.925952" y="67.755952" width="50.234048" height="51.156195" rx="0.000000" />
<path style="fill:none; 
stroke:#FFFFFF; stroke-width:0.2000; stroke-opacity:1; 
stroke-linecap:round; stroke-linejoin:round;fill:none"
d="M 140.6200,76.1900
167.0600,76.1900
167.0600,103.4400
140.6200,103.4400
Z" /> 
<path style="fill:#FFFFFF; fill-opacity:1.0000; stroke:none;fill-rule:evenodd;"
d="M 162.4750,97.0250
164.7250,97.0250
164.7250,98.1250
162.4750,98.1250
Z" /> 
<path style="fill:#FFFFFF; fill-opacity:1.0000; stroke:none;fill-rule:evenodd;"
d="M 162.4750,99.9750
164.7250,99.9750
164.7250,101.0750
162.4750,101.0750
Z" /> 
<path style="fill:#FFFFFF; fill-opacity:1.0000; stroke:none;fill-rule:evenodd;"
d="M 161.5000,98.5250
162.6000,98.5250
162.6000,99.5750
161.5000,99.5750
Z" /> 
<path style="fill:#FFFFFF; fill-opacity:1.0000; stroke:none;fill-rule:evenodd;"
d="M 142.7550,84.7225
142.7658,84.6403
142.8124,84.5404
142.8904,84.4624
142.9903,84.4158
143.0725,84.4050
145.3875,84.4050
145.4697,84.4158
145.5696,84.4624
145.6476,84.5404
145.6942,84.6403
145.7050,84.7225
145.7050,85.3575
145.6942,85.4397
145.6476,85.5396
145.5696,85.6176
145.4697,85.6642
145.3875,85.6750
143.0725,85.6750
142.9903,85.6642
142.8904,85.6176
142.8124,85.5396
142.7658,85.4397
142.7550,85.3575
Z" /> 
<path style="fill:#FFFFFF; fill-opacity:1.0000; stroke:none;fill-rule:evenodd;"
d="M 142.7550,86.7225
142.7658,86.6403
142.8124,86.5404
142.8904,86.4624
142.9903,86.4158
143.0725,86.4050
145.3875,86.4050
145.4697,86.4158
145.5696,86.4624
145.6476,86.5404
145.6942,86.6403
145.7050,86.7225
145.7050,87.3575
145.6942,87.4397
145.6476,87.5396
145.5696,87.6176
145.4697,87.6642
145.3875,87.6750
143.0725,87.6750
142.9903,87.6642
142.8904,87.6176
142.8124,87.5396
142.7658,87.4397
142.7550,87.3575
Z" /> 
<path style="fill:#FFFFFF; fill-opacity:1.0000; stroke:none;fill-rule:evenodd;"
d="M 142.7550,88.7225
142.7658,88.6403
142.8124,88.5404
142.8904,88.4624
142.9903,88.4158
143.0725,88.4050
145.3875,88.4050
145.4697,88.4158
145.5696,88.4624
145.6476,88.5404
145.6942,88.6403
145.7050,88.7225
145.7050,89.3575
145.6942,89.4397
145.6476,89.5396
145.5696,89.6176
145.4697,89.6642
145.3875,89.6750
143.0725,89.6750
142.9903,89.6642
142.8904,89.6176
142.8124,89.5396
142.7658,89.4397
142.7550,89.3575
Z" /> 
<path style="fill:#FFFFFF; fill-opacity:1.0000; stroke:none;fill-rule:evenodd;"
d="M 142.7550,90.7225
142.7658,90.6403
142.8124,90.5404
142.8904,90.4624
142.9903,90.4158
143.0725,90.4050
145.3875,90.4050
145.4697,90.4158
145.5696,90.4624
145.6476,90.5404
145.6942,90.6403
145.7050,90.7225
145.7050,91.3575
145.6942,91.4397
145.6476,91.5396
145.5696,91.6176
145.4697,91.6642
145.3875,91.6750
143.0725,91.6750
142.9903,91.6642
142.8904,91.6176
142.8124,91.5396
142.7658,91.4397
142.7550,91.3575
Z" /> 
<path style="fill:#FFFFFF; fill-opacity:1.0000; stroke:none;fill-rule:evenodd;"
d="M 142.7550,92.7225
142.7658,92.6403
142.8124,92.5404
142.8904,92.4624
142.9903,92.4158
143.0725,92.4050
145.3875,92.4050
145.4697,92.4158
145.5696,92.4624
145.6476,92.5404
145.6942,92.6403
145.7050,92.7225
145.7050,93.3575
145.6942,93.4397
145.6476,93.5396
145.5696,93.6176
145.4697,93.6642
145.3875,93.6750
143.0725,93.6750
142.9903,93.6642
142.8904,93.6176
142.8124,93.5396
142.7658,93.4397
142.7550,93.3575
Z" /> 
<path style="fill:#FFFFFF; fill-opacity:1.0000; stroke:none;fill-rule:evenodd;"
d="M 142.7550,94.7225
142.7658,94.6403
142.8124,94.5404
142.8904,94.4624
142.9903,94.4158
143.0725,94.4050
145.3875,94.4050
145.4697,94.4158
145.5696,94.4624
145.6476,94.5404
145.6942,94.6403
145.7050,94.7225
145.7050,95.3575
145.6942,95.4397
145.6476,95.5396
145.5696,95.6176
145.4697,95.6642
145.3875,95.6750
143.0725,95.6750
142.9903,95.6642
142.8904,95.6176
142.8124,95.5396
142.7658,95.4397
142.7550,95.3575
Z" /> 
<path style="fill:#FFFFFF; fill-opacity:1.0000; stroke:none;fill-rule:evenodd;"
d="M 142.7550,96.7225
142.7658,96.6403
142.8124,96.5404
142.8904,96.4624
142.9903,96.4158
143.0725,96.4050
145.3875,96.4050
145.4697,96.4158
145.5696,96.4624
145.6476,96.5404
145.6942,96.6403
145.7050,96.7225
145.7050,97.3575
145.6942,97.4397
145.6476,97.5396
145.5696,97.6176
145.4697,97.6642
145.3875,97.6750
143.0725,97.6750
142.9903,97.6642
142.8904,97.6176
142.8124,97.5396
142.7658,97.4397
142.7550,97.3575
Z" /> 
<path style="fill:#FFFFFF; fill-opacity:1.0000; stroke:none;fill-rule:evenodd;"
d="M 142.7550,98.7225
142.7658,98.6403
142.8124,98.5404
142.8904,98.4624
142.9903,98.4158
143.0725,98.4050
145.3875,98.4050
145.4697,98.4158
145.5696,98.4624
145.6476,98.5404
145.6942,98.6403
145.7050,98.7225
145.7050,99.3575
145.6942,99.4397
145.6476,99.5396
145.5696,99.6176
145.4697,99.6642
145.3875,99.6750
143.0725,99.6750
142.9903,99.6642
142.8904,99.6176
142.8124,99.5396
142.7658,99.4397
142.7550,99.3575
Z" /> 
<path style="fill:#FFFFFF; fill-opacity:1.0000; stroke:none;fill-rule:evenodd;"
d="M 157.8050,98.7225
157.8158,98.6403
157.8624,98.5404
157.9404,98.4624
158.0403,98.4158
158.1225,98.4050
160.4375,98.4050
160.5197,98.4158
160.6196,98.4624
160.6976,98.5404
160.7442,98.6403
160.7550,98.7225
160.7550,99.3575
160.7442,99.4397
160.6976,99.5396
160.6196,99.6176
160.5197,99.6642
160.4375,99.6750
158.1225,99.6750
158.0403,99.6642
157.9404,99.6176
157.8624,99.5396
157.8158,99.4397
157.8050,99.3575
Z" /> 
<path style="fill:#FFFFFF; fill-opacity:1.0000; stroke:none;fill-rule:evenodd;"
d="M 157.8050,96.7225
157.8158,96.6403
157.8624,96.5404
157.9404,96.4624
158.0403,96.4158
158.1225,96.4050
160.4375,96.4050
160.5197,96.4158
160.6196,96.4624
160.6976,96.5404
160.7442,96.6403
160.7550,96.7225
160.7550,97.3575
160.7442,97.4397
160.6976,97.5396
160.6196,97.6176
160.5197,97.6642
160.4375,97.6750
158.1225,97.6750
158.0403,97.6642
157.9404,97.6176
157.8624,97.5396
157.8158,97.4397
157.8050,97.3575
Z" /> 
<path style="fill:#FFFFFF; fill-opacity:1.0000; stroke:none;fill-rule:evenodd;"
d="M 157.8050,94.7225
157.8158,94.6403
157.8624,94.5404
157.9404,94.4624
158.0403,94.4158
158.1225,94.4050
160.4375,94.4050
160.5197,94.4158
160.6196,94.4624
160.6976,94.5404
160.7442,94.6403
160.7550,94.7225
160.7550,95.3575
160.7442,95.4397
160.6976,95.5396
160.6196,95.6176
160.5197,95.6642
160.4375,95.6750
158.1225,95.6750
158.0403,95.6642
157.9404,95.6176
157.8624,95.5396
157.8158,95.4397
157.8050,95.3575
Z" /> 
<path style="fill:#FFFFFF; fill-opacity:1.0000; stroke:none;fill-rule:evenodd;"
d="M 157.8050,92.7225
157.8158,92.6403
157.8624,92.5404
157.9404,92.4624
158.0403,92.4158
158.1225,92.4050
160.4375,92.4050
160.5197,92.4158
160.6196,92.4624
160.6976,92.5404
160.7442,92.6403
160.7550,92.7225
160.7550,93.3575
160.7442,93.4397
160.6976,93.5396
160.6196,93.6176
160.5197,93.6642
160.4375,93.6750
158.1225,93.6750
158.0403,93.6642
157.9404,93.6176
157.8624,93.5396
157.8158,93.4397
157.8050,93.3575
Z" /> 
<path style="fill:#FFFFFF; fill-opacity:1.0000; stroke:none;fill-rule:evenodd;"
d="M 157.8050,90.7225
157.8158,90.6403
157.8624,90.5404
157.9404,90.4624
158.0403,90.4158
158.1225,90.4050
160.4375,90.4050
160.5197,90.4158
160.6196,90.4624
160.6976,90.5404
160.7442,90.6403
160.7550,90.7225
160.7550,91.3575
160.7442,91.4397
160.6976,91.5396
160.6196,91.6176
160.5197,91.6642
160.4375,91.6750
158.1225,91.6750
158.0403,91.6642
157.9404,91.6176
157.8624,91.5396
157.8158,91.4397
157.8050,91.3575
Z" /> 
<path style="fill:#FFFFFF; fill-opacity:1.0000; stroke:none;fill-rule:evenodd;"
d="M 157.8050,88.7225
157.8158,88.6403
157.8624,88.5404
157.9404,88.4624
158.0403,88.4158
158.1225,88.4050
160.4375,88.4050
160.5197,88.4158
160.6196,88.4624
160.6976,88.5404
160.7442,88.6403
160.7550,88.7225
160.7550,89.3575
160.7442,89.4397
160.6976,89.5396
160.6196,89.6176
160.5197,89.6642
160.4375,89.6750
158.1225,89.6750
158.0403,89.6642
157.9404,89.6176
157.8624,89.5396
157.8158,89.4397
157.8050,89.3575
Z" /> 
<path style="fill:#FFFFFF; fill-opacity:1.0000; stroke:none;fill-rule:evenodd;"
d="M 157.8050,86.7225
157.8158,86.6403
157.8624,86.5404
157.9404,86.4624
158.0403,86.4158
158.1225,86.4050
160.4375,86.4050
160.5197,86.4158
160.6196,86.4624
160.6976,86.5404
160.7442,86.6403
160.7550,86.7225
160.7550,87.3575
160.7442,87.4397
160.6976,87.5396
160.6196,87.6176
160.5197,87.6642
160.4375,87.6750
158.1225,87.6750
158.0403,87.6642
157.9404,87.6176
157.8624,87.5396
157.8158,87.4397
157.8050,87.3575
Z" /> 
<path style="fill:#FFFFFF; fill-opacity:1.0000; stroke:none;fill-rule:evenodd;"
d="M 157.8050,84.7225
157.8158,84.6403
157.8624,84.5404
157.9404,84.4624
158.0403,84.4158
158.1225,84.4050
160.4375,84.4050
160.5197,84.4158
160.6196,84.4624
160.6976,84.5404
160.7442,84.6403
160.7550,84.7225
160.7550,85.3575
160.7442,85.4397
160.6976,85.5396
160.6196,85.6176
160.5197,85.6642
160.4375,85.6750
158.1225,85.6750
158.0403,85.6642
157.9404,85.6176
157.8624,85.5396
157.8158,85.4397
157.8050,85.3575
Z" /> 
<path style="fill:#FFFFFF; fill-opacity:1.0000; stroke:none;fill-rule:evenodd;"
d="M 162.5300,79.8500
160.8300,79.8500
160.8300,78.1500
162.5300,78.1500
Z" /> 
</g>
<g style="fill:#FFFFFF; fill-opacity:1.0000; stroke:none;">
<circle cx="159.1400" cy="79.0000" r="0.8500" /> 
</g>
<g style="fill:#FFFFFF; fill-opacity:1.0000; stroke:none;">
<circle cx="156.6000" cy="79.0000" r="0.8500" /> 
</g>
<g style="fill:#FFFFFF; fill-opacity:1.0000; stroke:none;">
<circle cx="154.0600" cy="79.0000" r="0.8500" /> 
</g>
<g style="fill:#FFFFFF; fill-opacity:1.0000; stroke:none;">
<circle cx="151.5200" cy="79.0000" r="0.8500" /> 
</g>
<g style="fill:#FFFFFF; fill-opacity:1.0000; stroke:none;">
<circle cx="148.9800" cy="79.0000" r="0.8500" /> 
</g>
<g style="fill:#FFFFFF; fill-opacity:1.0000; stroke:none;">
<circle cx="146.4400" cy="79.0000" r="0.8500" /> 
</g>
<g style="fill:#FFFFFF; fill-opacity:1.0000; stroke:none;">
<circle cx="143.9000" cy="79.0000" r="0.8500" /> 
</g>
<g style="fill:none; 
stroke:#FFFFFF; stroke-width:0.6000; stroke-opacity:1; 
stroke-linecap:round; stroke-linejoin:round;">
<path d="M159.2800 89.0400
L157.8050 89.0400
" />
<path d="M157.1040 88.3390
L157.1040 80.9960
" />
<path d="M157.1040 80.9960
L159.0600 79.0400
" />
<path d="M157.8050 89.0400
L157.1040 88.3390
" />
</g>
<g style="fill:none; 
stroke:#FFFFFF; stroke-width:0.8000; stroke-opacity:1; 
stroke-linecap:round; stroke-linejoin:round;">
<path d="M156.8800 91.0400
L155.6700 89.8300
" />
<path d="M159.2800 91.0400
L156.8800 91.0400
" />
<path d="M155.6600 79.9000
L156.5200 79.0400
" />
<path d="M155.6700 89.8300
L155.6700 84.4700
" />
<path d="M155.6700 84.4700
L155.6600 84.4600
" />
<path d="M155.6600 84.4600
L155.6600 79.9000
" />
</g>
<g style="fill:none; 
stroke:#FFFFFF; stroke-width:0.6000; stroke-opacity:1; 
stroke-linecap:round; stroke-linejoin:round;">
<path d="M143.8200 79.0400
L143.8200 79.8100
" />
<path d="M145.2900 87.0400
L144.2300 87.0400
" />
<path d="M147.4400 84.8900
L145.2900 87.0400
" />
<path d="M143.8200 79.8100
L147.4400 83.4300
" />
<path d="M147.4400 83.4300
L147.4400 84.8900
" />
<path d="M148.9000 80.7100
L148.9000 79.0400
" />
<path d="M150.1200 81.9300
L148.9000 80.7100
" />
<path d="M146.6769 91.0400
L150.1200 87.5969
" />
<path d="M144.2300 91.0400
L146.6769 91.0400
" />
<path d="M150.1200 87.5969
L150.1200 81.9300
" />
<path d="M148.7000 86.5000
L148.7000 82.5700
" />
<path d="M148.7000 82.5700
L146.3600 80.2300
" />
<path d="M146.3600 80.2300
L146.3600 79.0400
" />
<path d="M144.2300 89.0400
L146.1600 89.0400
" />
<path d="M146.1600 89.0400
L148.7000 86.5000
" />
<path d="M144.2300 93.0400
L146.3754 93.0400
" />
<path d="M151.4400 87.9754
L151.4400 87.2344
" />
<path d="M151.4400 87.2344
L151.4400 79.0400
" />
<path d="M146.3754 93.0400
L151.4400 87.9754
" />
</g>
<g style="fill:none; 
stroke:#FFFFFF; stroke-width:0.7000; stroke-opacity:1; 
stroke-linecap:round; stroke-linejoin:round;">
<path d="M159.2800 99.0400
L162.0400 99.0400
" />
<path d="M162.0400 99.0400
L162.0500 99.0500
" />
</g>
<g style="fill:none; 
stroke:#FFFFFF; stroke-width:0.6000; stroke-opacity:1; 
stroke-linecap:round; stroke-linejoin:round;">
<path d="M146.0739 95.0400
L153.9800 87.1339
" />
<path d="M144.2300 95.0400
L146.0739 95.0400
" />
<path d="M153.9800 87.1339
L153.9800 79.0400
" />
<path style="fill:#FFFFFF; fill-opacity:1.0000; stroke:none;fill-rule:evenodd;"
d="M 166.4025,76.8102
166.4483,76.8630
166.4595,76.9145
166.4595,102.7155
166.4398,102.7825
166.3870,102.8283
166.3355,102.8395
141.3445,102.8395
141.2775,102.8198
141.2317,102.7670
141.2205,102.7155
141.2205,101.1228
161.9750,101.1228
161.9814,101.1824
161.9814,101.1824
162.0316,101.3171
162.0316,101.3171
162.1178,101.4322
162.1178,101.4322
162.2329,101.5183
162.2329,101.5184
162.3676,101.5686
162.3676,101.5686
162.4272,101.5750
162.4272,101.5750
163.3500,101.5750
163.8500,101.5750
164.7728,101.5750
164.7728,101.5750
164.8324,101.5686
164.8324,101.5686
164.9671,101.5184
164.9671,101.5183
165.0822,101.4322
165.0822,101.4322
165.1684,101.3171
165.1684,101.3171
165.2186,101.1824
165.2186,101.1824
165.2250,101.1228
165.2250,101.1228
165.2250,100.7750
163.8500,100.7750
163.8500,101.5750
163.3500,101.5750
163.3500,100.7750
161.9750,100.7750
161.9750,101.1228
141.2205,101.1228
141.2205,99.4034
142.2550,99.4034
142.2705,99.5406
142.2705,99.5406
142.3313,99.7144
142.4293,99.8704
142.5596,100.0007
142.7156,100.0987
142.8894,100.1595
142.8894,100.1595
143.0266,100.1750
143.0266,100.1750
143.9800,100.1750
144.4800,100.1750
145.4334,100.1750
145.4334,100.1750
145.5706,100.1595
145.5706,100.1595
145.7444,100.0987
145.9004,100.0007
146.0307,99.8704
146.1287,99.7144
146.1895,99.5406
146.1895,99.5406
146.2050,99.4034
146.2050,99.4034
146.2050,99.2900
144.4800,99.2900
144.4800,100.1750
143.9800,100.1750
143.9800,99.2900
142.2550,99.2900
142.2550,99.4034
141.2205,99.4034
141.2205,84.6766
142.2545,84.6766
142.2545,85.4034
142.2700,85.5407
142.3308,85.7147
142.4289,85.8707
142.5105,85.9523
142.5440,86.0136
142.5390,86.0833
142.5105,86.1277
142.4289,86.2093
142.3308,86.3653
142.2700,86.5393
142.2545,86.6766
142.2545,87.4034
142.2700,87.5407
142.3308,87.7147
142.4289,87.8707
142.5105,87.9523
142.5440,88.0136
142.5390,88.0833
142.5105,88.1277
142.4289,88.2093
142.3308,88.3653
142.2700,88.5393
142.2545,88.6766
142.2545,89.4034
142.2700,89.5407
142.3308,89.7147
142.4289,89.8707
142.5105,89.9523
142.5440,90.0136
142.5390,90.0833
142.5105,90.1277
142.4289,90.2093
142.3308,90.3653
142.2700,90.5393
142.2545,90.6766
142.2545,91.4034
142.2700,91.5407
142.3308,91.7147
142.4289,91.8707
142.5105,91.9523
142.5440,92.0136
142.5390,92.0833
142.5105,92.1277
142.4289,92.2093
142.3308,92.3653
142.2700,92.5393
142.2545,92.6766
142.2545,93.4034
142.2700,93.5407
142.3308,93.7147
142.4289,93.8707
142.5105,93.9523
142.5440,94.0136
142.5390,94.0833
142.5105,94.1277
142.4289,94.2093
142.3308,94.3653
142.2700,94.5393
142.2545,94.6766
142.2545,95.4034
142.2700,95.5407
142.3308,95.7147
142.4289,95.8707
142.5105,95.9523
142.5440,96.0136
142.5390,96.0833
142.5105,96.1277
142.4289,96.2093
142.3308,96.3653
142.2700,96.5393
142.2545,96.6766
142.2545,97.4034
142.2700,97.5407
142.3308,97.7147
142.4289,97.8707
142.5108,97.9527
142.5443,98.0140
142.5393,98.0837
142.5108,98.1280
142.4293,98.2096
142.3313,98.3656
142.2705,98.5394
142.2705,98.5394
142.2550,98.6766
142.2550,98.7900
146.2050,98.7900
146.2050,98.6766
146.2050,98.6766
146.1895,98.5394
146.1895,98.5394
146.1287,98.3656
146.0307,98.2096
145.9492,98.1280
145.9157,98.0667
145.9207,97.9970
145.9492,97.9527
146.0311,97.8707
146.1292,97.7147
146.1900,97.5407
146.1900,97.5407
146.1900,97.5407
146.1985,97.4657
146.2055,97.4034
146.2055,96.6766
146.1948,96.5816
146.1900,96.5393
146.1754,96.4976
146.1292,96.3653
146.0311,96.2093
145.9495,96.1277
145.9452,96.1197
145.9379,96.1143
145.9287,96.0896
145.9160,96.0664
145.9167,96.0573
145.9135,96.0488
145.9191,96.0230
145.9210,95.9967
145.9268,95.9876
145.9284,95.9806
145.9495,95.9523
146.0250,95.8768
146.0863,95.8433
146.1127,95.8405
146.1527,95.8405
146.1527,95.8405
146.3074,95.8097
146.4531,95.7494
146.5842,95.6618
150.5313,91.7147
154.5578,87.6881
154.6191,87.6547
154.6888,87.6596
154.7448,87.7015
154.7692,87.7670
154.7695,87.7758
154.7695,89.9187
154.8041,90.0927
154.8041,90.0927
154.8041,90.0927
154.8235,90.1395
154.8720,90.2565
154.9215,90.3306
154.9254,90.3365
154.9254,90.3365
154.9705,90.4040
154.9705,90.4040
156.1805,91.6140
156.2812,91.7147
156.3060,91.7395
156.4534,91.8380
156.4535,91.8380
156.5764,91.8889
156.6173,91.9059
156.6173,91.9059
156.6173,91.9059
156.7913,91.9405
156.7913,91.9405
156.7913,91.9405
157.4483,91.9405
157.5153,91.9602
157.5611,92.0130
157.5710,92.0821
157.5420,92.1457
157.5360,92.1522
157.4789,92.2093
157.3808,92.3653
157.3200,92.5393
157.3045,92.6766
157.3045,93.4034
157.3200,93.5407
157.3808,93.7147
157.4789,93.8707
157.5605,93.9523
157.5940,94.0136
157.5890,94.0833
157.5605,94.1277
157.4789,94.2093
157.3808,94.3653
157.3200,94.5393
157.3045,94.6766
157.3045,95.4034
157.3200,95.5407
157.3808,95.7147
157.4789,95.8707
157.5605,95.9523
157.5940,96.0136
157.5890,96.0833
157.5605,96.1277
157.4789,96.2093
157.3808,96.3653
157.3200,96.5393
157.3045,96.6766
157.3045,97.4034
157.3200,97.5407
157.3808,97.7147
157.4789,97.8707
157.5605,97.9523
157.5940,98.0136
157.5890,98.0833
157.5605,98.1277
157.4789,98.2093
157.3808,98.3653
157.3200,98.5393
157.3045,98.6766
157.3045,99.4034
157.3200,99.5407
157.3662,99.6729
157.3808,99.7147
157.4789,99.8707
157.6093,100.0011
157.7653,100.0992
157.8976,100.1454
157.9393,100.1600
158.0271,100.1699
158.0766,100.1755
158.0766,100.1755
158.0766,100.1755
160.4834,100.1755
160.4834,100.1755
160.5457,100.1685
160.6207,100.1600
160.6221,100.1595
160.7947,100.0992
160.9507,100.0011
160.9960,99.9558
161.0574,99.9223
161.1270,99.9273
161.1580,99.9442
161.2577,100.0188
161.2577,100.0188
161.3026,100.0356
161.3925,100.0691
161.4521,100.0755
161.8510,100.0755
161.9180,100.0952
161.9638,100.1480
161.9750,100.1995
161.9750,100.2750
165.2250,100.2750
165.2250,99.9272
165.2250,99.9272
165.2186,99.8676
165.2186,99.8676
165.1684,99.7329
165.1684,99.7329
165.0822,99.6178
165.0822,99.6178
164.9671,99.5316
164.9671,99.5316
164.8307,99.4808
164.7747,99.4389
164.7503,99.3734
164.7500,99.3646
164.7500,98.7354
164.7697,98.6684
164.8225,98.6226
164.8307,98.6192
164.9671,98.5684
164.9671,98.5683
165.0822,98.4822
165.0822,98.4822
165.1684,98.3671
165.1684,98.3671
165.2186,98.2324
165.2186,98.2324
165.2250,98.1728
165.2250,98.1728
165.2250,97.8250
161.9750,97.8250
161.9750,97.9005
161.9553,97.9675
161.9025,98.0133
161.8510,98.0245
161.4521,98.0245
161.4521,98.0245
161.3925,98.0309
161.2577,98.0812
161.2577,98.0812
161.1956,98.1277
161.1699,98.1469
161.1695,98.1472
161.1040,98.1716
161.1040,98.1716
161.1040,98.1716
161.0891,98.1684
161.0357,98.1568
161.0075,98.1356
160.9995,98.1277
160.9660,98.0664
160.9710,97.9967
160.9995,97.9523
161.0811,97.8707
161.1792,97.7147
161.2400,97.5407
161.2400,97.5407
161.2400,97.5407
161.2485,97.4657
161.2555,97.4034
161.2555,96.9772
161.9750,96.9772
161.9750,97.3250
163.3500,97.3250
163.8500,97.3250
165.2250,97.3250
165.2250,96.9772
165.2250,96.9772
165.2186,96.9176
165.2186,96.9176
165.1684,96.7829
165.1684,96.7829
165.0822,96.6678
165.0822,96.6678
164.9671,96.5816
164.9671,96.5816
164.8324,96.5314
164.8324,96.5314
164.7728,96.5250
163.8500,96.5250
163.8500,97.3250
163.3500,97.3250
163.3500,96.5250
162.4272,96.5250
162.3676,96.5314
162.3676,96.5314
162.2329,96.5816
162.2329,96.5816
162.1178,96.6678
162.1178,96.6678
162.0316,96.7829
162.0316,96.7829
161.9814,96.9176
161.9814,96.9176
161.9750,96.9772
161.2555,96.9772
161.2555,96.6766
161.2448,96.5816
161.2400,96.5393
161.2254,96.4976
161.1792,96.3653
161.0811,96.2093
160.9995,96.1277
160.9660,96.0664
160.9710,95.9967
160.9995,95.9523
161.0811,95.8707
161.1792,95.7147
161.2400,95.5407
161.2400,95.5407
161.2400,95.5407
161.2485,95.4657
161.2555,95.4034
161.2555,94.6766
161.2499,94.6271
161.2400,94.5393
161.2254,94.4976
161.1792,94.3653
161.0811,94.2093
160.9995,94.1277
160.9660,94.0664
160.9710,93.9967
160.9995,93.9523
161.0811,93.8707
161.1792,93.7147
161.2400,93.5407
161.2400,93.5407
161.2400,93.5407
161.2485,93.4657
161.2555,93.4034
161.2555,92.6766
161.2499,92.6271
161.2400,92.5393
161.2254,92.4976
161.1792,92.3653
161.0811,92.2093
160.9995,92.1277
160.9660,92.0664
160.9710,91.9967
160.9995,91.9523
161.0113,91.9405
161.0811,91.8707
161.1792,91.7147
161.2400,91.5407
161.2400,91.5407
161.2400,91.5407
161.2485,91.4657
161.2555,91.4034
161.2555,90.6766
161.2499,90.6271
161.2400,90.5393
161.1927,90.4040
161.1792,90.3653
161.0811,90.2093
160.9995,90.1277
160.9660,90.0664
160.9710,89.9967
160.9995,89.9523
161.0331,89.9187
161.0811,89.8707
161.1792,89.7147
161.2400,89.5407
161.2400,89.5407
161.2400,89.5407
161.2553,89.4056
161.2555,89.4034
161.2555,88.6766
161.2499,88.6271
161.2400,88.5393
161.2254,88.4976
161.1792,88.3653
161.0811,88.2093
160.9995,88.1277
160.9660,88.0664
160.9710,87.9967
160.9995,87.9523
161.0811,87.8707
161.1792,87.7147
161.2400,87.5407
161.2400,87.5407
161.2400,87.5407
161.2512,87.4419
161.2555,87.4034
161.2555,86.6766
161.2499,86.6271
161.2400,86.5393
161.2254,86.4976
161.1792,86.3653
161.0811,86.2093
160.9995,86.1277
160.9660,86.0664
160.9710,85.9967
160.9995,85.9523
161.0811,85.8707
161.1792,85.7147
161.2400,85.5407
161.2400,85.5407
161.2400,85.5407
161.2485,85.4657
161.2555,85.4034
161.2555,84.6766
161.2422,84.5584
161.2400,84.5393
161.2254,84.4976
161.1792,84.3653
161.0811,84.2093
160.9507,84.0789
160.7947,83.9808
160.7529,83.9662
160.6207,83.9200
160.4834,83.9045
160.4834,83.9045
158.0766,83.9045
158.0766,83.9045
158.0424,83.9083
157.9736,83.8963
157.9222,83.8489
157.9045,83.7851
157.9045,81.3789
157.9242,81.3119
157.9408,81.2913
158.8577,80.3744
158.9190,80.3409
158.9648,80.3396
159.0337,80.3505
159.0337,80.3505
159.2463,80.3505
159.2463,80.3505
159.4562,80.3172
159.6584,80.2516
159.8478,80.1551
159.9345,80.0921
160.0198,80.0301
160.0198,80.0301
160.0198,80.0301
160.1337,79.9162
160.1950,79.8827
160.2647,79.8877
160.3207,79.9296
160.3376,79.9605
160.3866,80.0921
160.3866,80.0921
160.4728,80.2072
160.4728,80.2072
160.5879,80.2933
160.5879,80.2934
160.7226,80.3436
160.7226,80.3436
160.7822,80.3500
160.7822,80.3500
161.4300,80.3500
161.4300,79.4330
161.4870,79.4659
161.6142,79.5000
161.7458,79.5000
161.8730,79.4659
161.9300,79.4330
161.9300,80.3500
162.5778,80.3500
162.5778,80.3500
162.6374,80.3436
162.6374,80.3436
162.7721,80.2934
162.7721,80.2933
162.8872,80.2072
162.8872,80.2072
162.9733,80.0921
162.9734,80.0921
163.0236,79.9574
163.0236,79.9574
163.0300,79.8978
163.0300,79.8978
163.0300,79.2500
162.1130,79.2500
162.1459,79.1930
162.1800,79.0658
162.1800,78.9342
162.1459,78.8070
162.1130,78.7500
163.0300,78.7500
163.0300,78.1022
163.0300,78.1022
163.0236,78.0426
163.0236,78.0426
162.9734,77.9079
162.9733,77.9079
162.8872,77.7928
162.8872,77.7928
162.7721,77.7066
162.7721,77.7066
162.6374,77.6564
162.6374,77.6564
162.5778,77.6500
161.9300,77.6500
161.9300,78.5670
161.8730,78.5341
161.7458,78.5000
161.6142,78.5000
161.4870,78.5341
161.4300,78.5670
161.4300,77.6500
160.7822,77.6500
160.7226,77.6564
160.7226,77.6564
160.5879,77.7066
160.5879,77.7066
160.4728,77.7928
160.4728,77.7928
160.3866,77.9079
160.3866,77.9079
160.3376,78.0395
160.2957,78.0954
160.2302,78.1198
160.1620,78.1050
160.1337,78.0838
160.0198,77.9699
159.8478,77.8450
159.6584,77.7484
159.6584,77.7484
159.6584,77.7484
159.4562,77.6828
159.4562,77.6828
159.4562,77.6828
159.2950,77.6572
159.2463,77.6495
159.0337,77.6495
158.9850,77.6572
158.8238,77.6828
158.6216,77.7484
158.4322,77.8450
158.2602,77.9699
158.1099,78.1202
157.9849,78.2922
157.9805,78.3009
157.9325,78.3517
157.8647,78.3685
157.7986,78.3460
157.7595,78.3009
157.7550,78.2922
157.6301,78.1202
157.4798,77.9699
157.3078,77.8450
157.1184,77.7484
157.1184,77.7484
157.1184,77.7484
156.9162,77.6828
156.9162,77.6828
156.9162,77.6828
156.7550,77.6572
156.7063,77.6495
156.4937,77.6495
156.4450,77.6572
156.2838,77.6828
156.0816,77.7484
155.8922,77.8450
155.7202,77.9699
155.5699,78.1202
155.4449,78.2922
155.4405,78.3009
155.3925,78.3517
155.3247,78.3685
155.2586,78.3460
155.2195,78.3009
155.2150,78.2922
155.0901,78.1202
154.9398,77.9699
154.7678,77.8450
154.5784,77.7484
154.5784,77.7484
154.5784,77.7484
154.3762,77.6828
154.3762,77.6828
154.3762,77.6828
154.2150,77.6572
154.1663,77.6495
153.9537,77.6495
153.9050,77.6572
153.7438,77.6828
153.5416,77.7484
153.3522,77.8450
153.1802,77.9699
153.0299,78.1202
152.9049,78.2922
152.9005,78.3009
152.8525,78.3517
152.7847,78.3685
152.7186,78.3460
152.6795,78.3009
152.6750,78.2922
152.5501,78.1202
152.3998,77.9699
152.2278,77.8450
152.0384,77.7484
152.0384,77.7484
152.0384,77.7484
151.8362,77.6828
151.8362,77.6828
151.8362,77.6828
151.6750,77.6572
151.6263,77.6495
151.4137,77.6495
151.3650,77.6572
151.2038,77.6828
151.0016,77.7484
150.8122,77.8450
150.6402,77.9699
150.4899,78.1202
150.3649,78.2922
150.3605,78.3009
150.3125,78.3517
150.2447,78.3685
150.1786,78.3460
150.1395,78.3009
150.1351,78.2922
150.0101,78.1202
149.8598,77.9699
149.6878,77.8450
149.4984,77.7484
149.4984,77.7484
149.4984,77.7484
149.2962,77.6828
149.2962,77.6828
149.2962,77.6828
149.1350,77.6572
149.0863,77.6495
148.8737,77.6495
148.8250,77.6572
148.6638,77.6828
148.4616,77.7484
148.2722,77.8450
148.1002,77.9699
147.9499,78.1202
147.8249,78.2922
147.8205,78.3009
147.7725,78.3517
147.7047,78.3685
147.6386,78.3460
147.5995,78.3009
147.5950,78.2922
147.4701,78.1202
147.3198,77.9699
147.1478,77.8450
146.9584,77.7484
146.9584,77.7484
146.9584,77.7484
146.7562,77.6828
146.7562,77.6828
146.7562,77.6828
146.5950,77.6572
146.5463,77.6495
146.3337,77.6495
146.2850,77.6572
146.1238,77.6828
145.9216,77.7484
145.7322,77.8450
145.5602,77.9699
145.4099,78.1202
145.2849,78.2922
145.2805,78.3009
145.2325,78.3517
145.1647,78.3685
145.0986,78.3460
145.0595,78.3009
145.0550,78.2922
144.9301,78.1202
144.7798,77.9699
144.6078,77.8450
144.4184,77.7484
144.4184,77.7484
144.4184,77.7484
144.2162,77.6828
144.2162,77.6828
144.2162,77.6828
144.0550,77.6572
144.0063,77.6495
143.7937,77.6495
143.7450,77.6572
143.5838,77.6828
143.3816,77.7484
143.1922,77.8450
143.0202,77.9699
142.8699,78.1202
142.7450,78.2922
142.6484,78.4816
142.5828,78.6838
142.5495,78.8937
142.5495,79.1063
142.5828,79.3162
142.6484,79.5184
142.7450,79.7078
142.8699,79.8798
143.0202,80.0301
143.0270,80.0350
143.0686,80.0879
143.1106,80.1892
143.1106,80.1892
143.1982,80.3203
143.1982,80.3203
146.6032,83.7253
146.6367,83.7866
146.6395,83.8129
146.6395,84.5071
146.6198,84.5741
146.6032,84.5947
146.4172,84.7807
146.3559,84.8142
146.2862,84.8092
146.2302,84.7674
146.2058,84.7019
146.2055,84.6931
146.2055,84.6766
146.2055,84.6766
146.1900,84.5393
146.1754,84.4976
146.1292,84.3653
146.0311,84.2093
145.9007,84.0789
145.7447,83.9808
145.7029,83.9662
145.5707,83.9200
145.4334,83.9045
145.4334,83.9045
143.0266,83.9045
143.0266,83.9045
142.8893,83.9200
142.7153,83.9808
142.5593,84.0789
142.4289,84.2093
142.3308,84.3653
142.2700,84.5393
142.2545,84.6766
141.2205,84.6766
141.2205,76.9145
141.2402,76.8475
141.2930,76.8017
141.3445,76.7905
166.3355,76.7905
Z" /> 
</g> 
</svg>
