M48
; DRILL file KiCad 10.0.3 date 2026-05-29T14:01:25
; FORMAT={-:-/ absolute / metric / decimal}
; #@! TF.CreationDate,2026-05-29T14:01:25-07:00
; #@! TF.GenerationSoftware,Kicad,Pcbnew,10.0.3
; #@! TF.FileFunction,Plated,1,2,PTH
FMAT,2
METRIC
; #@! TA.AperFunction,Plated,PTH,ViaDrill
T1C0.900
; #@! TA.AperFunction,Plated,PTH,ComponentDrill
T2C1.020
; #@! TA.AperFunction,Plated,PTH,ComponentDrill
T3C1.200
%
G90
G05
T1
X131.318Y-104.902
X131.69Y-125.04
X134.18Y-126.78
X138.43Y-105.41
X146.83Y-90.88
X154.15Y-121.9
X154.96Y-126.73
X165.09Y-121.76
T2
X98.665Y-91.66
X98.665Y-117.06
X101.205Y-91.66
X101.205Y-117.06
X103.745Y-91.66
X103.745Y-117.06
X106.285Y-91.66
X106.285Y-117.06
X107.86Y-127.5
X108.825Y-91.66
X108.825Y-117.06
X110.4Y-127.5
X111.365Y-91.66
X111.365Y-117.06
X112.94Y-127.5
X113.905Y-91.66
X113.905Y-117.06
X115.48Y-127.5
X116.445Y-91.66
X116.445Y-117.06
X118.02Y-127.5
X118.985Y-91.66
X118.985Y-117.06
X120.56Y-127.5
X121.525Y-91.66
X121.525Y-117.06
X123.1Y-127.5
X124.065Y-91.66
X124.065Y-117.06
X125.64Y-127.5
X126.605Y-91.66
X126.605Y-117.06
X129.145Y-91.66
X129.145Y-117.06
X131.685Y-91.66
X131.685Y-117.06
X134.225Y-91.66
X134.225Y-117.06
X143.75Y-91.02
X143.75Y-93.56
X143.75Y-96.1
X144.18Y-104.674
X146.72Y-104.674
X149.26Y-104.674
X151.8Y-104.674
X154.34Y-104.674
X156.88Y-104.674
X158.22Y-121.7
X158.22Y-126.78
X159.42Y-104.674
X161.95Y-121.76
X161.95Y-126.84
X161.96Y-104.674
X164.5Y-104.674
X167.04Y-104.674
X174.26Y-112.0
X174.26Y-119.5
X174.35Y-130.0
X174.36Y-124.8
X174.47Y-99.02
X174.47Y-104.1
X179.44Y-124.8
X179.79Y-98.93
X179.79Y-104.01
X181.85Y-130.0
X184.4Y-115.485
X184.4Y-120.565
X184.41Y-108.18
X184.55Y-98.93
X184.55Y-104.01
X189.35Y-98.88
X189.35Y-103.96
X189.49Y-108.18
T3
X178.17Y-90.438
X181.67Y-90.438
X198.66Y-113.77
X198.66Y-117.27
X199.37Y-100.19
X199.37Y-103.69
X199.41Y-89.63
X199.41Y-93.13
M30
