%TF.GenerationSoftware,KiCad,Pcbnew,10.0.3*%
%TF.CreationDate,2026-05-29T14:01:23-07:00*%
%TF.ProjectId,placa_ceener,706c6163-615f-4636-9565-6e65722e6b69,rev?*%
%TF.SameCoordinates,Original*%
%TF.FileFunction,Copper,L2,Bot*%
%TF.FilePolarity,Positive*%
%FSLAX46Y46*%
G04 Gerber Fmt 4.6, Leading zero omitted, Abs format (unit mm)*
G04 Created by KiCad (PCBNEW 10.0.3) date 2026-05-29 14:01:23*
%MOMM*%
%LPD*%
G01*
G04 APERTURE LIST*
G04 Aperture macros list*
%AMRoundRect*
0 Rectangle with rounded corners*
0 $1 Rounding radius*
0 $2 $3 $4 $5 $6 $7 $8 $9 X,Y pos of 4 corners*
0 Add a 4 corners polygon primitive as box body*
4,1,4,$2,$3,$4,$5,$6,$7,$8,$9,$2,$3,0*
0 Add four circle primitives for the rounded corners*
1,1,$1+$1,$2,$3*
1,1,$1+$1,$4,$5*
1,1,$1+$1,$6,$7*
1,1,$1+$1,$8,$9*
0 Add four rect primitives between the rounded corners*
20,1,$1+$1,$2,$3,$4,$5,0*
20,1,$1+$1,$4,$5,$6,$7,0*
20,1,$1+$1,$6,$7,$8,$9,0*
20,1,$1+$1,$8,$9,$2,$3,0*%
G04 Aperture macros list end*
%TA.AperFunction,ComponentPad*%
%ADD10C,2.000000*%
%TD*%
%TA.AperFunction,ComponentPad*%
%ADD11C,2.400000*%
%TD*%
%TA.AperFunction,ComponentPad*%
%ADD12RoundRect,0.250001X-0.949999X0.949999X-0.949999X-0.949999X0.949999X-0.949999X0.949999X0.949999X0*%
%TD*%
%TA.AperFunction,ComponentPad*%
%ADD13RoundRect,0.250001X-0.949999X-0.949999X0.949999X-0.949999X0.949999X0.949999X-0.949999X0.949999X0*%
%TD*%
%TA.AperFunction,ViaPad*%
%ADD14C,2.000000*%
%TD*%
%TA.AperFunction,Conductor*%
%ADD15C,1.000000*%
%TD*%
G04 APERTURE END LIST*
D10*
%TO.P,IC1,10,A3_10*%
%TO.N,unconnected-(IC1-A3-Pad10)*%
X144180000Y-104674000D03*
%TO.P,IC1,9,A2_9*%
%TO.N,unconnected-(IC1-A2-Pad9)*%
X146720000Y-104674000D03*
%TO.P,IC1,8,A1_8*%
%TO.N,Net-(IC1-A1)*%
X149260000Y-104674000D03*
%TO.P,IC1,7,A0_7*%
%TO.N,VBAT*%
X151800000Y-104674000D03*
%TO.P,IC1,6,ALRT_6*%
%TO.N,unconnected-(IC1-ALRT-Pad6)*%
X154340000Y-104674000D03*
%TO.P,IC1,5,ADDR_5*%
%TO.N,unconnected-(IC1-ADDR-Pad5)*%
X156880000Y-104674000D03*
%TO.P,IC1,4,SDA_4*%
%TO.N,SDA*%
X159420000Y-104674000D03*
%TO.P,IC1,3,SCL_3*%
%TO.N,SCL*%
X161960000Y-104674000D03*
%TO.P,IC1,2,GND_2*%
%TO.N,GND*%
X164500000Y-104674000D03*
%TO.P,IC1,1,VDD_1*%
%TO.N,3.3V*%
X167040000Y-104674000D03*
%TD*%
%TO.P,C2,2*%
%TO.N,Net-(IC1-A1)*%
X174350000Y-130000000D03*
%TO.P,C2,1*%
%TO.N,GND*%
X181850000Y-130000000D03*
%TD*%
D11*
%TO.P,U3,2,Pin_2_2*%
%TO.N,5V*%
X199410000Y-93130000D03*
D12*
%TO.P,U3,1,Pin_1_1*%
%TO.N,GND*%
X199410000Y-89630000D03*
%TD*%
D10*
%TO.P,R2,2*%
%TO.N,Net-(R2-Pad2)*%
X184550000Y-104010000D03*
%TO.P,R2,1*%
%TO.N,Net-(R1-Pad1)*%
X184550000Y-98930000D03*
%TD*%
%TO.P,R7,2*%
%TO.N,SDA*%
X158220000Y-121700000D03*
%TO.P,R7,1*%
%TO.N,3.3V*%
X158220000Y-126780000D03*
%TD*%
%TO.P,U6,4,GND_4*%
%TO.N,GND*%
X143750000Y-96100000D03*
%TO.P,U6,2,DATA_2*%
%TO.N,DHT11*%
X143750000Y-93560000D03*
%TO.P,U6,1,VDD_1*%
%TO.N,3.3V*%
X143750000Y-91020000D03*
%TD*%
D11*
%TO.P,U1,2,Pin_2_2*%
%TO.N,GND*%
X198660000Y-117270000D03*
D12*
%TO.P,U1,1,Pin_1_1*%
%TO.N,BAT+*%
X198660000Y-113770000D03*
%TD*%
D10*
%TO.P,R6,2*%
%TO.N,SCL*%
X161950000Y-121760000D03*
%TO.P,R6,1*%
%TO.N,3.3V*%
X161950000Y-126840000D03*
%TD*%
%TO.P,J2,8,Pin_8_8*%
%TO.N,GND*%
X125640000Y-127500000D03*
%TO.P,J2,7,Pin_7_7*%
%TO.N,DIO0*%
X123100000Y-127500000D03*
%TO.P,J2,6,Pin_6_6*%
%TO.N,3.3V*%
X120560000Y-127500000D03*
%TO.P,J2,5,Pin_5_5*%
%TO.N,RESET*%
X118020000Y-127500000D03*
%TO.P,J2,4,Pin_4_4*%
%TO.N,NSS*%
X115480000Y-127500000D03*
%TO.P,J2,3,Pin_3_3*%
%TO.N,SCK*%
X112940000Y-127500000D03*
%TO.P,J2,2,Pin_2_2*%
%TO.N,MOSI*%
X110400000Y-127500000D03*
%TO.P,J2,1,Pin_1_1*%
%TO.N,MISO*%
X107860000Y-127500000D03*
%TD*%
%TO.P,R1,2*%
%TO.N,BAT+*%
X189350000Y-103960000D03*
%TO.P,R1,1*%
%TO.N,Net-(R1-Pad1)*%
X189350000Y-98880000D03*
%TD*%
%TO.P,R8,2*%
%TO.N,V_CS*%
X179440000Y-124800000D03*
%TO.P,R8,1*%
%TO.N,Net-(IC1-A1)*%
X174360000Y-124800000D03*
%TD*%
D11*
%TO.P,U2,2,Pin_2_2*%
%TO.N,V_CS*%
X199370000Y-103690000D03*
D12*
%TO.P,U2,1,Pin_1_1*%
%TO.N,GND*%
X199370000Y-100190000D03*
%TD*%
D11*
%TO.P,U4,2,Pin_2_2*%
%TO.N,5V*%
X181670000Y-90437500D03*
D13*
%TO.P,U4,1,Pin_1_1*%
%TO.N,GND*%
X178170000Y-90437500D03*
%TD*%
D10*
%TO.P,D1,2,A_2*%
%TO.N,GND*%
X184400000Y-120564670D03*
%TO.P,D1,1,K_1*%
%TO.N,VBAT*%
X184400000Y-115484670D03*
%TD*%
%TO.P,R4,2*%
%TO.N,VBAT*%
X174470000Y-104100000D03*
%TO.P,R4,1*%
%TO.N,Net-(R3-Pad1)*%
X174470000Y-99020000D03*
%TD*%
%TO.P,R5,2*%
%TO.N,VBAT*%
X184410000Y-108180000D03*
%TO.P,R5,1*%
%TO.N,GND*%
X189490000Y-108180000D03*
%TD*%
%TO.P,R3,2*%
%TO.N,Net-(R2-Pad2)*%
X179790000Y-104010000D03*
%TO.P,R3,1*%
%TO.N,Net-(R3-Pad1)*%
X179790000Y-98930000D03*
%TD*%
%TO.P,U7,30,VIN_30*%
%TO.N,unconnected-(U7-VIN-Pad30)*%
X98665000Y-91660000D03*
%TO.P,U7,29,GND_29*%
%TO.N,GND*%
X101205000Y-91660000D03*
%TO.P,U7,28,D13_28*%
%TO.N,unconnected-(U7-D13-Pad28)*%
X103745000Y-91660000D03*
%TO.P,U7,27,D12_27*%
%TO.N,unconnected-(U7-D12-Pad27)*%
X106285000Y-91660000D03*
%TO.P,U7,26,D14_26*%
%TO.N,unconnected-(U7-D14-Pad26)*%
X108825000Y-91660000D03*
%TO.P,U7,25,D27_25*%
%TO.N,unconnected-(U7-D27-Pad25)*%
X111365000Y-91660000D03*
%TO.P,U7,24,D26_24*%
%TO.N,unconnected-(U7-D26-Pad24)*%
X113905000Y-91660000D03*
%TO.P,U7,23,D25_23*%
%TO.N,unconnected-(U7-D25-Pad23)*%
X116445000Y-91660000D03*
%TO.P,U7,22,D33_22*%
%TO.N,unconnected-(U7-D33-Pad22)*%
X118985000Y-91660000D03*
%TO.P,U7,21,D32_21*%
%TO.N,unconnected-(U7-D32-Pad21)*%
X121525000Y-91660000D03*
%TO.P,U7,20,D35_20*%
%TO.N,unconnected-(U7-D35-Pad20)*%
X124065000Y-91660000D03*
%TO.P,U7,19,D34_19*%
%TO.N,unconnected-(U7-D34-Pad19)*%
X126605000Y-91660000D03*
%TO.P,U7,18,VN_18*%
%TO.N,unconnected-(U7-VN-Pad18)*%
X129145000Y-91660000D03*
%TO.P,U7,17,VP_17*%
%TO.N,unconnected-(U7-VP-Pad17)*%
X131685000Y-91660000D03*
%TO.P,U7,16,EN_16*%
%TO.N,RESET*%
X134225000Y-91660000D03*
%TO.P,U7,15,D23_15*%
%TO.N,SCL*%
X134225000Y-117060000D03*
%TO.P,U7,14,D22_14*%
%TO.N,SDA*%
X131685000Y-117060000D03*
%TO.P,U7,13,TX0_13*%
%TO.N,unconnected-(U7-TX0-Pad13)*%
X129145000Y-117060000D03*
%TO.P,U7,12,RX0_12*%
%TO.N,unconnected-(U7-RX0-Pad12)*%
X126605000Y-117060000D03*
%TO.P,U7,11,D21_11*%
%TO.N,DIO0*%
X124065000Y-117060000D03*
%TO.P,U7,10,D19_10*%
%TO.N,DHT11*%
X121525000Y-117060000D03*
%TO.P,U7,9,D18_9*%
%TO.N,unconnected-(U7-D18-Pad9)*%
X118985000Y-117060000D03*
%TO.P,U7,8,D5_8*%
%TO.N,NSS*%
X116445000Y-117060000D03*
%TO.P,U7,7,TX2_7*%
%TO.N,unconnected-(U7-TX2-Pad7)*%
X113905000Y-117060000D03*
%TO.P,U7,6,RX2_6*%
%TO.N,unconnected-(U7-RX2-Pad6)*%
X111365000Y-117060000D03*
%TO.P,U7,5,D4_5*%
%TO.N,SCK*%
X108825000Y-117060000D03*
%TO.P,U7,4,D2_4*%
%TO.N,MOSI*%
X106285000Y-117060000D03*
%TO.P,U7,3,D15_3*%
%TO.N,MISO*%
X103745000Y-117060000D03*
%TO.P,U7,2,GND_2*%
%TO.N,GND*%
X101205000Y-117060000D03*
%TO.P,U7,1,3V3_1*%
%TO.N,3.3V*%
X98665000Y-117060000D03*
%TD*%
%TO.P,C1,2*%
%TO.N,VBAT*%
X174260000Y-112000000D03*
%TO.P,C1,1*%
%TO.N,GND*%
X174260000Y-119500000D03*
%TD*%
D14*
%TO.N,GND*%
X138430000Y-105410000D03*
X131318000Y-104902000D03*
%TO.N,3.3V*%
X146830000Y-90880000D03*
X154960000Y-126730000D03*
%TO.N,SDA*%
X131690000Y-125040000D03*
X154150000Y-121900000D03*
%TO.N,SCL*%
X134180000Y-126780000D03*
X165090000Y-121760000D03*
%TD*%
%TO.N,GND*%
D15*
X101582720Y-116996320D02*
X101600000Y-117013600D01*
%TO.N,VBAT*%
X178550000Y-108180000D02*
X184410000Y-108180000D01*
X180760000Y-112000000D02*
X184064670Y-115304670D01*
X151770000Y-104644000D02*
X151800000Y-104674000D01*
X174470000Y-104100000D02*
X172500000Y-104100000D01*
X172500000Y-104100000D02*
X169310000Y-100910000D01*
X169310000Y-100910000D02*
X152790000Y-100910000D01*
X184410000Y-115304670D02*
X184410000Y-108180000D01*
X184064670Y-115304670D02*
X184410000Y-115304670D01*
X152790000Y-100910000D02*
X151770000Y-101930000D01*
X174470000Y-104100000D02*
X178550000Y-108180000D01*
X151770000Y-101930000D02*
X151770000Y-104644000D01*
X174260000Y-112000000D02*
X180760000Y-112000000D01*
%TO.N,3.3V*%
X98665000Y-117060000D02*
X98665000Y-113415000D01*
X96510000Y-85620000D02*
X139840000Y-85620000D01*
X98665000Y-113415000D02*
X101140000Y-110940000D01*
X158220000Y-126780000D02*
X155010000Y-126780000D01*
X143750000Y-89530000D02*
X143750000Y-91020000D01*
X158280000Y-126840000D02*
X158220000Y-126780000D01*
X119740000Y-133170000D02*
X100630000Y-133170000D01*
X99042720Y-116996320D02*
X99040000Y-116999040D01*
X120550000Y-132360000D02*
X119740000Y-133170000D01*
X165420000Y-126840000D02*
X161950000Y-126840000D01*
X120450000Y-110940000D02*
X140370000Y-91020000D01*
X161950000Y-126840000D02*
X158280000Y-126840000D01*
X146690000Y-91020000D02*
X143750000Y-91020000D01*
X100630000Y-133170000D02*
X92780000Y-125320000D01*
X171260000Y-121040000D02*
X165460000Y-126840000D01*
X92780000Y-125320000D02*
X92780000Y-89350000D01*
X120560000Y-127500000D02*
X120560000Y-130710000D01*
X171260000Y-108894000D02*
X171260000Y-121040000D01*
X146830000Y-90880000D02*
X146690000Y-91020000D01*
X101140000Y-110940000D02*
X120450000Y-110940000D01*
X167040000Y-104674000D02*
X171260000Y-108894000D01*
X92780000Y-89350000D02*
X96510000Y-85620000D01*
X165460000Y-126840000D02*
X165420000Y-126840000D01*
X155010000Y-126780000D02*
X154960000Y-126730000D01*
X140370000Y-91020000D02*
X143750000Y-91020000D01*
X139840000Y-85620000D02*
X143750000Y-89530000D01*
X120550000Y-130720000D02*
X120550000Y-132360000D01*
%TO.N,MISO*%
X103745000Y-117060000D02*
X103745000Y-121585000D01*
X107860000Y-125700000D02*
X107860000Y-127500000D01*
X103745000Y-121585000D02*
X107860000Y-125700000D01*
%TO.N,MOSI*%
X110400000Y-124610000D02*
X110400000Y-127500000D01*
X106285000Y-120495000D02*
X110400000Y-124610000D01*
X106285000Y-117060000D02*
X106285000Y-120495000D01*
%TO.N,SCK*%
X108825000Y-119805000D02*
X108825000Y-117060000D01*
X112940000Y-127500000D02*
X112940000Y-123920000D01*
X112940000Y-123920000D02*
X108825000Y-119805000D01*
%TO.N,NSS*%
X116445000Y-117060000D02*
X116430000Y-117075000D01*
X116430000Y-124350000D02*
X115450000Y-125330000D01*
X115450000Y-125330000D02*
X115450000Y-127470000D01*
X116430000Y-117075000D02*
X116430000Y-124350000D01*
X115450000Y-127470000D02*
X115480000Y-127500000D01*
%TO.N,DHT11*%
X141930000Y-93560000D02*
X135600000Y-99890000D01*
X121525000Y-115115000D02*
X121525000Y-117060000D01*
X135600000Y-108570000D02*
X130580000Y-113590000D01*
X123050000Y-113590000D02*
X121525000Y-115115000D01*
X130580000Y-113590000D02*
X123050000Y-113590000D01*
X135600000Y-99890000D02*
X135600000Y-108570000D01*
X143750000Y-93560000D02*
X141930000Y-93560000D01*
%TO.N,DIO0*%
X123100000Y-124650000D02*
X123100000Y-127500000D01*
X124060000Y-123690000D02*
X123100000Y-124650000D01*
X124060000Y-117065000D02*
X124060000Y-123690000D01*
X124440000Y-117000000D02*
X124410000Y-117030000D01*
X124065000Y-117060000D02*
X124060000Y-117065000D01*
%TO.N,unconnected-(U7-RX0-Pad12)*%
X126960000Y-117110000D02*
X127000000Y-117150000D01*
%TO.N,unconnected-(U7-TX0-Pad13)*%
X129550000Y-117030000D02*
X129520000Y-117000000D01*
%TO.N,SDA*%
X159420000Y-104674000D02*
X159390000Y-104704000D01*
X154150000Y-121900000D02*
X154350000Y-121700000D01*
X154350000Y-121700000D02*
X158220000Y-121700000D01*
X159390000Y-110340000D02*
X158220000Y-111510000D01*
X158220000Y-111510000D02*
X158220000Y-121700000D01*
X159390000Y-104704000D02*
X159390000Y-110340000D01*
X131690000Y-117065000D02*
X131685000Y-117060000D01*
X131690000Y-125040000D02*
X131690000Y-117065000D01*
%TO.N,SCL*%
X134180000Y-126780000D02*
X134180000Y-117105000D01*
X165090000Y-121760000D02*
X161950000Y-121760000D01*
X134180000Y-117105000D02*
X134225000Y-117060000D01*
X161960000Y-104674000D02*
X161960000Y-121750000D01*
X161960000Y-121750000D02*
X161950000Y-121760000D01*
%TO.N,RESET*%
X95250000Y-123450000D02*
X95250000Y-90070000D01*
X118020000Y-127500000D02*
X118020000Y-129530000D01*
X95250000Y-90070000D02*
X97110000Y-88210000D01*
X118020000Y-129530000D02*
X116800000Y-130750000D01*
X97110000Y-88210000D02*
X133130000Y-88210000D01*
X102550000Y-130750000D02*
X95250000Y-123450000D01*
X133130000Y-88210000D02*
X134225000Y-89305000D01*
X134225000Y-89305000D02*
X134225000Y-91660000D01*
X116800000Y-130750000D02*
X102550000Y-130750000D01*
%TO.N,Net-(R1-Pad1)*%
X184550000Y-98930000D02*
X189300000Y-98930000D01*
X189300000Y-98930000D02*
X189350000Y-98880000D01*
%TO.N,BAT+*%
X198660000Y-111280000D02*
X198660000Y-113770000D01*
X191340000Y-103960000D02*
X198660000Y-111280000D01*
X189350000Y-103960000D02*
X191340000Y-103960000D01*
%TO.N,Net-(IC1-A1)*%
X149180000Y-104754000D02*
X149260000Y-104674000D01*
X174220000Y-130130000D02*
X152400000Y-130130000D01*
X149180000Y-126910000D02*
X149180000Y-104754000D01*
X152400000Y-130130000D02*
X149180000Y-126910000D01*
X174360000Y-124800000D02*
X174360000Y-129990000D01*
X174360000Y-129990000D02*
X174350000Y-130000000D01*
X174350000Y-130000000D02*
X174220000Y-130130000D01*
%TO.N,V_CS*%
X199370000Y-103690000D02*
X199220000Y-103840000D01*
X199370000Y-103690000D02*
X199270000Y-103790000D01*
X199650000Y-124800000D02*
X179440000Y-124800000D01*
X203500000Y-120950000D02*
X199650000Y-124800000D01*
X199270000Y-103790000D02*
X199270000Y-105990000D01*
X199270000Y-105990000D02*
X203500000Y-110220000D01*
X203500000Y-110220000D02*
X203500000Y-120950000D01*
%TO.N,Net-(R3-Pad1)*%
X174470000Y-99020000D02*
X179700000Y-99020000D01*
X179700000Y-99020000D02*
X179790000Y-98930000D01*
%TO.N,5V*%
X199410000Y-93130000D02*
X190120000Y-93130000D01*
X190120000Y-93130000D02*
X187427500Y-90437500D01*
X187427500Y-90437500D02*
X181670000Y-90437500D01*
%TO.N,Net-(R2-Pad2)*%
X179790000Y-104010000D02*
X184550000Y-104010000D01*
%TD*%
%TA.AperFunction,Conductor*%
%TO.N,GND*%
G36*
X168828413Y-102130185D02*
G01*
X168849055Y-102146819D01*
X171717926Y-105015690D01*
X171870801Y-105126760D01*
X172039168Y-105212547D01*
X172218882Y-105270940D01*
X172288870Y-105282025D01*
X172405513Y-105300500D01*
X172405518Y-105300500D01*
X172405519Y-105300500D01*
X173214267Y-105300500D01*
X173281306Y-105320185D01*
X173301949Y-105336820D01*
X173346371Y-105381243D01*
X173346377Y-105381248D01*
X173424735Y-105441374D01*
X173523226Y-105516948D01*
X173716274Y-105628405D01*
X173844220Y-105681402D01*
X173914464Y-105710498D01*
X173922219Y-105713710D01*
X174137537Y-105771404D01*
X174358543Y-105800500D01*
X174421374Y-105800500D01*
X174488413Y-105820185D01*
X174509055Y-105836819D01*
X177767926Y-109095690D01*
X177902192Y-109193240D01*
X177920801Y-109206760D01*
X178001948Y-109248106D01*
X178089163Y-109292545D01*
X178089165Y-109292545D01*
X178089168Y-109292547D01*
X178185497Y-109323846D01*
X178268881Y-109350940D01*
X178455514Y-109380500D01*
X178455519Y-109380500D01*
X183085500Y-109380500D01*
X183152539Y-109400185D01*
X183198294Y-109452989D01*
X183209500Y-109504500D01*
X183209500Y-112452374D01*
X183189815Y-112519413D01*
X183137011Y-112565168D01*
X183067853Y-112575112D01*
X183004297Y-112546087D01*
X182997819Y-112540055D01*
X181542076Y-111084312D01*
X181542074Y-111084310D01*
X181389199Y-110973240D01*
X181381268Y-110969199D01*
X181220836Y-110887454D01*
X181041118Y-110829059D01*
X180854486Y-110799500D01*
X180854481Y-110799500D01*
X175515733Y-110799500D01*
X175448694Y-110779815D01*
X175428051Y-110763180D01*
X175383628Y-110718756D01*
X175383622Y-110718751D01*
X175206782Y-110583058D01*
X175206780Y-110583057D01*
X175206774Y-110583052D01*
X175013726Y-110471595D01*
X175013722Y-110471593D01*
X174807790Y-110386293D01*
X174807783Y-110386291D01*
X174807781Y-110386290D01*
X174592463Y-110328596D01*
X174592457Y-110328595D01*
X174592452Y-110328594D01*
X174371466Y-110299501D01*
X174371463Y-110299500D01*
X174371457Y-110299500D01*
X174148543Y-110299500D01*
X174148537Y-110299500D01*
X174148533Y-110299501D01*
X173927547Y-110328594D01*
X173927540Y-110328595D01*
X173927537Y-110328596D01*
X173712219Y-110386290D01*
X173712209Y-110386293D01*
X173506277Y-110471593D01*
X173506273Y-110471595D01*
X173313226Y-110583052D01*
X173313217Y-110583058D01*
X173136377Y-110718751D01*
X173136370Y-110718757D01*
X172978757Y-110876370D01*
X172978751Y-110876377D01*
X172843058Y-111053217D01*
X172843052Y-111053226D01*
X172731595Y-111246273D01*
X172731593Y-111246277D01*
X172699061Y-111324817D01*
X172655220Y-111379220D01*
X172588926Y-111401285D01*
X172521226Y-111384006D01*
X172473616Y-111332868D01*
X172460500Y-111277364D01*
X172460500Y-108799513D01*
X172430940Y-108612881D01*
X172372545Y-108433163D01*
X172286759Y-108264800D01*
X172175690Y-108111926D01*
X168776819Y-104713055D01*
X168743334Y-104651732D01*
X168740500Y-104625374D01*
X168740500Y-104562549D01*
X168740500Y-104562543D01*
X168711404Y-104341537D01*
X168653710Y-104126219D01*
X168649432Y-104115892D01*
X168568406Y-103920277D01*
X168568405Y-103920274D01*
X168456948Y-103727226D01*
X168380452Y-103627534D01*
X168321248Y-103550377D01*
X168321242Y-103550370D01*
X168163629Y-103392757D01*
X168163622Y-103392751D01*
X167986782Y-103257058D01*
X167986780Y-103257057D01*
X167986774Y-103257052D01*
X167793726Y-103145595D01*
X167793722Y-103145593D01*
X167587790Y-103060293D01*
X167587783Y-103060291D01*
X167587781Y-103060290D01*
X167372463Y-103002596D01*
X167372457Y-103002595D01*
X167372452Y-103002594D01*
X167151466Y-102973501D01*
X167151463Y-102973500D01*
X167151457Y-102973500D01*
X166928543Y-102973500D01*
X166928537Y-102973500D01*
X166928533Y-102973501D01*
X166707547Y-103002594D01*
X166707540Y-103002595D01*
X166707537Y-103002596D01*
X166551850Y-103044312D01*
X166492219Y-103060290D01*
X166492209Y-103060293D01*
X166286277Y-103145593D01*
X166286273Y-103145595D01*
X166093226Y-103257052D01*
X166093217Y-103257058D01*
X165916377Y-103392751D01*
X165916370Y-103392757D01*
X165758757Y-103550370D01*
X165758751Y-103550377D01*
X165623058Y-103727217D01*
X165623052Y-103727226D01*
X165511595Y-103920272D01*
X165511594Y-103920274D01*
X165453372Y-104060832D01*
X165426493Y-104101059D01*
X164991128Y-104536424D01*
X164975245Y-104477147D01*
X164908102Y-104360853D01*
X164813147Y-104265898D01*
X164696853Y-104198755D01*
X164637574Y-104182871D01*
X165369105Y-103451340D01*
X165369104Y-103451338D01*
X165286174Y-103391087D01*
X165075802Y-103283897D01*
X164851247Y-103210934D01*
X164851248Y-103210934D01*
X164618052Y-103174000D01*
X164381948Y-103174000D01*
X164148752Y-103210934D01*
X163924197Y-103283897D01*
X163713830Y-103391084D01*
X163630894Y-103451340D01*
X164362425Y-104182871D01*
X164303147Y-104198755D01*
X164186853Y-104265898D01*
X164091898Y-104360853D01*
X164024755Y-104477147D01*
X164008871Y-104536425D01*
X163573505Y-104101059D01*
X163546625Y-104060830D01*
X163488409Y-103920282D01*
X163488404Y-103920273D01*
X163376948Y-103727226D01*
X163300462Y-103627547D01*
X163259440Y-103574085D01*
X163241248Y-103550377D01*
X163241242Y-103550370D01*
X163083629Y-103392757D01*
X163083622Y-103392751D01*
X162906782Y-103257058D01*
X162906780Y-103257057D01*
X162906774Y-103257052D01*
X162713726Y-103145595D01*
X162713722Y-103145593D01*
X162507790Y-103060293D01*
X162507783Y-103060291D01*
X162507781Y-103060290D01*
X162292463Y-103002596D01*
X162292457Y-103002595D01*
X162292452Y-103002594D01*
X162071466Y-102973501D01*
X162071463Y-102973500D01*
X162071457Y-102973500D01*
X161848543Y-102973500D01*
X161848537Y-102973500D01*
X161848533Y-102973501D01*
X161627547Y-103002594D01*
X161627540Y-103002595D01*
X161627537Y-103002596D01*
X161471850Y-103044312D01*
X161412219Y-103060290D01*
X161412209Y-103060293D01*
X161206277Y-103145593D01*
X161206273Y-103145595D01*
X161013226Y-103257052D01*
X161013217Y-103257058D01*
X160836377Y-103392751D01*
X160836370Y-103392757D01*
X160777681Y-103451447D01*
X160716358Y-103484932D01*
X160646666Y-103479948D01*
X160602319Y-103451447D01*
X160543629Y-103392757D01*
X160543622Y-103392751D01*
X160366782Y-103257058D01*
X160366780Y-103257057D01*
X160366774Y-103257052D01*
X160173726Y-103145595D01*
X160173722Y-103145593D01*
X159967790Y-103060293D01*
X159967783Y-103060291D01*
X159967781Y-103060290D01*
X159752463Y-103002596D01*
X159752457Y-103002595D01*
X159752452Y-103002594D01*
X159531466Y-102973501D01*
X159531463Y-102973500D01*
X159531457Y-102973500D01*
X159308543Y-102973500D01*
X159308537Y-102973500D01*
X159308533Y-102973501D01*
X159087547Y-103002594D01*
X159087540Y-103002595D01*
X159087537Y-103002596D01*
X158931850Y-103044312D01*
X158872219Y-103060290D01*
X158872209Y-103060293D01*
X158666277Y-103145593D01*
X158666273Y-103145595D01*
X158473226Y-103257052D01*
X158473217Y-103257058D01*
X158296377Y-103392751D01*
X158296370Y-103392757D01*
X158237681Y-103451447D01*
X158176358Y-103484932D01*
X158106666Y-103479948D01*
X158062319Y-103451447D01*
X158003629Y-103392757D01*
X158003622Y-103392751D01*
X157826782Y-103257058D01*
X157826780Y-103257057D01*
X157826774Y-103257052D01*
X157633726Y-103145595D01*
X157633722Y-103145593D01*
X157427790Y-103060293D01*
X157427783Y-103060291D01*
X157427781Y-103060290D01*
X157212463Y-103002596D01*
X157212457Y-103002595D01*
X157212452Y-103002594D01*
X156991466Y-102973501D01*
X156991463Y-102973500D01*
X156991457Y-102973500D01*
X156768543Y-102973500D01*
X156768537Y-102973500D01*
X156768533Y-102973501D01*
X156547547Y-103002594D01*
X156547540Y-103002595D01*
X156547537Y-103002596D01*
X156391850Y-103044312D01*
X156332219Y-103060290D01*
X156332209Y-103060293D01*
X156126277Y-103145593D01*
X156126273Y-103145595D01*
X155933226Y-103257052D01*
X155933217Y-103257058D01*
X155756377Y-103392751D01*
X155756370Y-103392757D01*
X155697681Y-103451447D01*
X155636358Y-103484932D01*
X155566666Y-103479948D01*
X155522319Y-103451447D01*
X155463629Y-103392757D01*
X155463622Y-103392751D01*
X155286782Y-103257058D01*
X155286780Y-103257057D01*
X155286774Y-103257052D01*
X155093726Y-103145595D01*
X155093722Y-103145593D01*
X154887790Y-103060293D01*
X154887783Y-103060291D01*
X154887781Y-103060290D01*
X154672463Y-103002596D01*
X154672457Y-103002595D01*
X154672452Y-103002594D01*
X154451466Y-102973501D01*
X154451463Y-102973500D01*
X154451457Y-102973500D01*
X154228543Y-102973500D01*
X154228537Y-102973500D01*
X154228533Y-102973501D01*
X154007547Y-103002594D01*
X154007540Y-103002595D01*
X154007537Y-103002596D01*
X153851850Y-103044312D01*
X153792219Y-103060290D01*
X153792209Y-103060293D01*
X153586277Y-103145593D01*
X153586273Y-103145595D01*
X153393226Y-103257052D01*
X153393217Y-103257058D01*
X153216377Y-103392751D01*
X153216370Y-103392757D01*
X153182181Y-103426947D01*
X153120858Y-103460432D01*
X153051166Y-103455448D01*
X152995233Y-103413576D01*
X152970816Y-103348112D01*
X152970500Y-103339266D01*
X152970500Y-102478625D01*
X152990185Y-102411586D01*
X153006819Y-102390944D01*
X153250944Y-102146819D01*
X153312267Y-102113334D01*
X153338625Y-102110500D01*
X168761374Y-102110500D01*
X168828413Y-102130185D01*
G37*
%TD.AperFunction*%
%TA.AperFunction,Conductor*%
G36*
X95735145Y-84490185D02*
G01*
X95780900Y-84542989D01*
X95790844Y-84612147D01*
X95761819Y-84675703D01*
X95740993Y-84694817D01*
X95727927Y-84704309D01*
X95727924Y-84704312D01*
X91864312Y-88567923D01*
X91753240Y-88720800D01*
X91667454Y-88889163D01*
X91609059Y-89068881D01*
X91579500Y-89255513D01*
X91579500Y-125414486D01*
X91609059Y-125601118D01*
X91667454Y-125780836D01*
X91717281Y-125878626D01*
X91753240Y-125949199D01*
X91864310Y-126102074D01*
X99847926Y-134085690D01*
X100000801Y-134196760D01*
X100080347Y-134237290D01*
X100169163Y-134282545D01*
X100169165Y-134282545D01*
X100169168Y-134282547D01*
X100265497Y-134313846D01*
X100348881Y-134340940D01*
X100535514Y-134370500D01*
X100535519Y-134370500D01*
X119834486Y-134370500D01*
X120021118Y-134340940D01*
X120200832Y-134282547D01*
X120369199Y-134196760D01*
X120522074Y-134085690D01*
X121465690Y-133142074D01*
X121576760Y-132989199D01*
X121662547Y-132820832D01*
X121720940Y-132641118D01*
X121750500Y-132454486D01*
X121750500Y-130877376D01*
X121752027Y-130857977D01*
X121760500Y-130804484D01*
X121760500Y-128864733D01*
X121780185Y-128797694D01*
X121832989Y-128751939D01*
X121902147Y-128741995D01*
X121965703Y-128771020D01*
X121972187Y-128777058D01*
X121976377Y-128781248D01*
X122068202Y-128851707D01*
X122153226Y-128916948D01*
X122346274Y-129028405D01*
X122552219Y-129113710D01*
X122767537Y-129171404D01*
X122988543Y-129200500D01*
X122988550Y-129200500D01*
X123211450Y-129200500D01*
X123211457Y-129200500D01*
X123432463Y-129171404D01*
X123647781Y-129113710D01*
X123853726Y-129028405D01*
X124046774Y-128916948D01*
X124223624Y-128781247D01*
X124381247Y-128623624D01*
X124516948Y-128446774D01*
X124628405Y-128253726D01*
X124686628Y-128113160D01*
X124713505Y-128072939D01*
X125148871Y-127637573D01*
X125164755Y-127696853D01*
X125231898Y-127813147D01*
X125326853Y-127908102D01*
X125443147Y-127975245D01*
X125502425Y-127991128D01*
X124770893Y-128722658D01*
X124853828Y-128782914D01*
X125064197Y-128890102D01*
X125288752Y-128963065D01*
X125288751Y-128963065D01*
X125521948Y-129000000D01*
X125758052Y-129000000D01*
X125991247Y-128963065D01*
X126215802Y-128890102D01*
X126426163Y-128782918D01*
X126426169Y-128782914D01*
X126509104Y-128722658D01*
X126509105Y-128722658D01*
X125777574Y-127991128D01*
X125836853Y-127975245D01*
X125953147Y-127908102D01*
X126048102Y-127813147D01*
X126115245Y-127696853D01*
X126131128Y-127637575D01*
X126862658Y-128369105D01*
X126862658Y-128369104D01*
X126922914Y-128286169D01*
X126922918Y-128286163D01*
X127030102Y-128075802D01*
X127103065Y-127851247D01*
X127140000Y-127618052D01*
X127140000Y-127381947D01*
X127103065Y-127148752D01*
X127030102Y-126924197D01*
X126922914Y-126713828D01*
X126862658Y-126630894D01*
X126862658Y-126630893D01*
X126131128Y-127362424D01*
X126115245Y-127303147D01*
X126048102Y-127186853D01*
X125953147Y-127091898D01*
X125836853Y-127024755D01*
X125777574Y-127008871D01*
X126509105Y-126277340D01*
X126509104Y-126277338D01*
X126426174Y-126217087D01*
X126215802Y-126109897D01*
X125991247Y-126036934D01*
X125991248Y-126036934D01*
X125758052Y-126000000D01*
X125521948Y-126000000D01*
X125288752Y-126036934D01*
X125064197Y-126109897D01*
X124853830Y-126217084D01*
X124770894Y-126277340D01*
X125502425Y-127008871D01*
X125443147Y-127024755D01*
X125326853Y-127091898D01*
X125231898Y-127186853D01*
X125164755Y-127303147D01*
X125148871Y-127362425D01*
X124713505Y-126927059D01*
X124686625Y-126886830D01*
X124628409Y-126746282D01*
X124628404Y-126746273D01*
X124608273Y-126711405D01*
X124516948Y-126553226D01*
X124443071Y-126456947D01*
X124402661Y-126404283D01*
X124402658Y-126404280D01*
X124381247Y-126376376D01*
X124334821Y-126329950D01*
X124332910Y-126327856D01*
X124318770Y-126298892D01*
X124303334Y-126270624D01*
X124302872Y-126266329D01*
X124302257Y-126265069D01*
X124302507Y-126262937D01*
X124300500Y-126244266D01*
X124300500Y-125198626D01*
X124320185Y-125131587D01*
X124336819Y-125110945D01*
X124650032Y-124797732D01*
X124975690Y-124472074D01*
X125086760Y-124319199D01*
X125172547Y-124150832D01*
X125230940Y-123971118D01*
X125247207Y-123868413D01*
X125260500Y-123784487D01*
X125260500Y-118419733D01*
X125280185Y-118352694D01*
X125332989Y-118306939D01*
X125402147Y-118296995D01*
X125465703Y-118326020D01*
X125472170Y-118332041D01*
X125477187Y-118337058D01*
X125481379Y-118341250D01*
X125596694Y-118429733D01*
X125658226Y-118476948D01*
X125851274Y-118588405D01*
X126057219Y-118673710D01*
X126272537Y-118731404D01*
X126493543Y-118760500D01*
X126493550Y-118760500D01*
X126716450Y-118760500D01*
X126716457Y-118760500D01*
X126937463Y-118731404D01*
X127152781Y-118673710D01*
X127358726Y-118588405D01*
X127551774Y-118476948D01*
X127728624Y-118341247D01*
X127787320Y-118282550D01*
X127848641Y-118249067D01*
X127918333Y-118254051D01*
X127962679Y-118282550D01*
X127992068Y-118311939D01*
X128021378Y-118341249D01*
X128125126Y-118420857D01*
X128198226Y-118476948D01*
X128391274Y-118588405D01*
X128597219Y-118673710D01*
X128812537Y-118731404D01*
X129033543Y-118760500D01*
X129033550Y-118760500D01*
X129256450Y-118760500D01*
X129256457Y-118760500D01*
X129477463Y-118731404D01*
X129692781Y-118673710D01*
X129898726Y-118588405D01*
X130091774Y-118476948D01*
X130268624Y-118341247D01*
X130277817Y-118332053D01*
X130339137Y-118298568D01*
X130408829Y-118303549D01*
X130464764Y-118345418D01*
X130489184Y-118410882D01*
X130489500Y-118419733D01*
X130489500Y-123784266D01*
X130469815Y-123851305D01*
X130453181Y-123871947D01*
X130408757Y-123916370D01*
X130408751Y-123916377D01*
X130273058Y-124093217D01*
X130273052Y-124093226D01*
X130161595Y-124286273D01*
X130161593Y-124286277D01*
X130076293Y-124492209D01*
X130076290Y-124492219D01*
X130023686Y-124688543D01*
X130018597Y-124707534D01*
X130018594Y-124707547D01*
X129989501Y-124928533D01*
X129989500Y-124928549D01*
X129989500Y-125151450D01*
X129989501Y-125151466D01*
X130018594Y-125372452D01*
X130018595Y-125372457D01*
X130018596Y-125372463D01*
X130068512Y-125558753D01*
X130076290Y-125587780D01*
X130076293Y-125587790D01*
X130160443Y-125790945D01*
X130161595Y-125793726D01*
X130273052Y-125986774D01*
X130273057Y-125986780D01*
X130273058Y-125986782D01*
X130408751Y-126163622D01*
X130408757Y-126163629D01*
X130566370Y-126321242D01*
X130566377Y-126321248D01*
X130575706Y-126328406D01*
X130743226Y-126456948D01*
X130936274Y-126568405D01*
X131142219Y-126653710D01*
X131357537Y-126711404D01*
X131578543Y-126740500D01*
X131578550Y-126740500D01*
X131801450Y-126740500D01*
X131801457Y-126740500D01*
X132022463Y-126711404D01*
X132237781Y-126653710D01*
X132308047Y-126624605D01*
X132377516Y-126617136D01*
X132439996Y-126648411D01*
X132475648Y-126708500D01*
X132479500Y-126739166D01*
X132479500Y-126891450D01*
X132479501Y-126891466D01*
X132508594Y-127112452D01*
X132508595Y-127112457D01*
X132508596Y-127112463D01*
X132566290Y-127327780D01*
X132566293Y-127327790D01*
X132651593Y-127533722D01*
X132651595Y-127533726D01*
X132763052Y-127726774D01*
X132763057Y-127726780D01*
X132763058Y-127726782D01*
X132898751Y-127903622D01*
X132898757Y-127903629D01*
X133056370Y-128061242D01*
X133056377Y-128061248D01*
X133076671Y-128076820D01*
X133233226Y-128196948D01*
X133426274Y-128308405D01*
X133632219Y-128393710D01*
X133847537Y-128451404D01*
X134068543Y-128480500D01*
X134068550Y-128480500D01*
X134291450Y-128480500D01*
X134291457Y-128480500D01*
X134512463Y-128451404D01*
X134727781Y-128393710D01*
X134933726Y-128308405D01*
X135126774Y-128196948D01*
X135303624Y-128061247D01*
X135461247Y-127903624D01*
X135596948Y-127726774D01*
X135708405Y-127533726D01*
X135793710Y-127327781D01*
X135851404Y-127112463D01*
X135880500Y-126891457D01*
X135880500Y-126668543D01*
X135851404Y-126447537D01*
X135793710Y-126232219D01*
X135789869Y-126222947D01*
X135731176Y-126081248D01*
X135708405Y-126026274D01*
X135596948Y-125833226D01*
X135461247Y-125656376D01*
X135461242Y-125656370D01*
X135416819Y-125611947D01*
X135383334Y-125550624D01*
X135380500Y-125524266D01*
X135380500Y-118360733D01*
X135400185Y-118293694D01*
X135416814Y-118273056D01*
X135506247Y-118183624D01*
X135641948Y-118006774D01*
X135753405Y-117813726D01*
X135838710Y-117607781D01*
X135896404Y-117392463D01*
X135925500Y-117171457D01*
X135925500Y-116948543D01*
X135896404Y-116727537D01*
X135838710Y-116512219D01*
X135828288Y-116487059D01*
X135753406Y-116306277D01*
X135753405Y-116306274D01*
X135641948Y-116113226D01*
X135506247Y-115936376D01*
X135506242Y-115936370D01*
X135348629Y-115778757D01*
X135348622Y-115778751D01*
X135171782Y-115643058D01*
X135171780Y-115643057D01*
X135171774Y-115643052D01*
X134978726Y-115531595D01*
X134978722Y-115531593D01*
X134772790Y-115446293D01*
X134772783Y-115446291D01*
X134772781Y-115446290D01*
X134557463Y-115388596D01*
X134557457Y-115388595D01*
X134557452Y-115388594D01*
X134336466Y-115359501D01*
X134336463Y-115359500D01*
X134336457Y-115359500D01*
X134113543Y-115359500D01*
X134113537Y-115359500D01*
X134113533Y-115359501D01*
X133892547Y-115388594D01*
X133892540Y-115388595D01*
X133892537Y-115388596D01*
X133866506Y-115395571D01*
X133677219Y-115446290D01*
X133677209Y-115446293D01*
X133471277Y-115531593D01*
X133471273Y-115531595D01*
X133278226Y-115643052D01*
X133278217Y-115643058D01*
X133101377Y-115778751D01*
X133101370Y-115778757D01*
X133042681Y-115837447D01*
X132981358Y-115870932D01*
X132911666Y-115865948D01*
X132867319Y-115837447D01*
X132808629Y-115778757D01*
X132808622Y-115778751D01*
X132631782Y-115643058D01*
X132631780Y-115643057D01*
X132631774Y-115643052D01*
X132438726Y-115531595D01*
X132438722Y-115531593D01*
X132232790Y-115446293D01*
X132232783Y-115446291D01*
X132232781Y-115446290D01*
X132017463Y-115388596D01*
X132017457Y-115388595D01*
X132017452Y-115388594D01*
X131796466Y-115359501D01*
X131796463Y-115359500D01*
X131796457Y-115359500D01*
X131573543Y-115359500D01*
X131573537Y-115359500D01*
X131573533Y-115359501D01*
X131352547Y-115388594D01*
X131352540Y-115388595D01*
X131352537Y-115388596D01*
X131326506Y-115395571D01*
X131137219Y-115446290D01*
X131137209Y-115446293D01*
X130931277Y-115531593D01*
X130931273Y-115531595D01*
X130738226Y-115643052D01*
X130738217Y-115643058D01*
X130561377Y-115778751D01*
X130561370Y-115778757D01*
X130502681Y-115837447D01*
X130441358Y-115870932D01*
X130371666Y-115865948D01*
X130327319Y-115837447D01*
X130268629Y-115778757D01*
X130268622Y-115778751D01*
X130091782Y-115643058D01*
X130091780Y-115643057D01*
X130091774Y-115643052D01*
X129898726Y-115531595D01*
X129898722Y-115531593D01*
X129692790Y-115446293D01*
X129692783Y-115446291D01*
X129692781Y-115446290D01*
X129477463Y-115388596D01*
X129477457Y-115388595D01*
X129477452Y-115388594D01*
X129256466Y-115359501D01*
X129256463Y-115359500D01*
X129256457Y-115359500D01*
X129033543Y-115359500D01*
X129033537Y-115359500D01*
X129033533Y-115359501D01*
X128812547Y-115388594D01*
X128812540Y-115388595D01*
X128812537Y-115388596D01*
X128786506Y-115395571D01*
X128597219Y-115446290D01*
X128597209Y-115446293D01*
X128391277Y-115531593D01*
X128391273Y-115531595D01*
X128198226Y-115643052D01*
X128198217Y-115643058D01*
X128021377Y-115778751D01*
X128021370Y-115778757D01*
X127962681Y-115837447D01*
X127901358Y-115870932D01*
X127831666Y-115865948D01*
X127787319Y-115837447D01*
X127728629Y-115778757D01*
X127728622Y-115778751D01*
X127551782Y-115643058D01*
X127551780Y-115643057D01*
X127551774Y-115643052D01*
X127358726Y-115531595D01*
X127358722Y-115531593D01*
X127152790Y-115446293D01*
X127152783Y-115446291D01*
X127152781Y-115446290D01*
X126937463Y-115388596D01*
X126937457Y-115388595D01*
X126937452Y-115388594D01*
X126716466Y-115359501D01*
X126716463Y-115359500D01*
X126716457Y-115359500D01*
X126493543Y-115359500D01*
X126493537Y-115359500D01*
X126493533Y-115359501D01*
X126272547Y-115388594D01*
X126272540Y-115388595D01*
X126272537Y-115388596D01*
X126246506Y-115395571D01*
X126057219Y-115446290D01*
X126057209Y-115446293D01*
X125851277Y-115531593D01*
X125851273Y-115531595D01*
X125658226Y-115643052D01*
X125658217Y-115643058D01*
X125481377Y-115778751D01*
X125481370Y-115778757D01*
X125422681Y-115837447D01*
X125361358Y-115870932D01*
X125291666Y-115865948D01*
X125247319Y-115837447D01*
X125188629Y-115778757D01*
X125188622Y-115778751D01*
X125011782Y-115643058D01*
X125011780Y-115643057D01*
X125011774Y-115643052D01*
X124818726Y-115531595D01*
X124818722Y-115531593D01*
X124612790Y-115446293D01*
X124612783Y-115446291D01*
X124612781Y-115446290D01*
X124397463Y-115388596D01*
X124397457Y-115388595D01*
X124397452Y-115388594D01*
X124176466Y-115359501D01*
X124176463Y-115359500D01*
X124176457Y-115359500D01*
X123953543Y-115359500D01*
X123953537Y-115359500D01*
X123953533Y-115359501D01*
X123732547Y-115388594D01*
X123732540Y-115388595D01*
X123732537Y-115388596D01*
X123706506Y-115395571D01*
X123517219Y-115446290D01*
X123517209Y-115446293D01*
X123311277Y-115531593D01*
X123311273Y-115531595D01*
X123118226Y-115643052D01*
X123118217Y-115643058D01*
X122941377Y-115778751D01*
X122941370Y-115778757D01*
X122937181Y-115782947D01*
X122917744Y-115793559D01*
X122901011Y-115808060D01*
X122887679Y-115809976D01*
X122875858Y-115816432D01*
X122853771Y-115814852D01*
X122831853Y-115818004D01*
X122819601Y-115812408D01*
X122806166Y-115811448D01*
X122788439Y-115798177D01*
X122768297Y-115788979D01*
X122761014Y-115777647D01*
X122750233Y-115769576D01*
X122742495Y-115748830D01*
X122730523Y-115730201D01*
X122727371Y-115708282D01*
X122725816Y-115704112D01*
X122725500Y-115695266D01*
X122725500Y-115663625D01*
X122745185Y-115596586D01*
X122761819Y-115575944D01*
X123510944Y-114826819D01*
X123572267Y-114793334D01*
X123598625Y-114790500D01*
X130674486Y-114790500D01*
X130861118Y-114760940D01*
X131040832Y-114702547D01*
X131209199Y-114616760D01*
X131362074Y-114505690D01*
X136515690Y-109352074D01*
X136626760Y-109199199D01*
X136712547Y-109030832D01*
X136770940Y-108851118D01*
X136784077Y-108768168D01*
X136800500Y-108664487D01*
X136800500Y-104562549D01*
X142479500Y-104562549D01*
X142479500Y-104785450D01*
X142479501Y-104785466D01*
X142508594Y-105006452D01*
X142508595Y-105006457D01*
X142508596Y-105006463D01*
X142563816Y-105212547D01*
X142566290Y-105221780D01*
X142566293Y-105221790D01*
X142651593Y-105427722D01*
X142651595Y-105427726D01*
X142763052Y-105620774D01*
X142763057Y-105620780D01*
X142763058Y-105620782D01*
X142898751Y-105797622D01*
X142898757Y-105797629D01*
X143056370Y-105955242D01*
X143056377Y-105955248D01*
X143119063Y-106003348D01*
X143233226Y-106090948D01*
X143426274Y-106202405D01*
X143632219Y-106287710D01*
X143847537Y-106345404D01*
X144068543Y-106374500D01*
X144068550Y-106374500D01*
X144291450Y-106374500D01*
X144291457Y-106374500D01*
X144512463Y-106345404D01*
X144727781Y-106287710D01*
X144933726Y-106202405D01*
X145126774Y-106090948D01*
X145303624Y-105955247D01*
X145362320Y-105896550D01*
X145423641Y-105863067D01*
X145493333Y-105868051D01*
X145537679Y-105896550D01*
X145570862Y-105929733D01*
X145596378Y-105955249D01*
X145738192Y-106064066D01*
X145773226Y-106090948D01*
X145966274Y-106202405D01*
X146172219Y-106287710D01*
X146387537Y-106345404D01*
X146608543Y-106374500D01*
X146608550Y-106374500D01*
X146831450Y-106374500D01*
X146831457Y-106374500D01*
X147052463Y-106345404D01*
X147267781Y-106287710D01*
X147473726Y-106202405D01*
X147666774Y-106090948D01*
X147780015Y-106004055D01*
X147845183Y-105978862D01*
X147913628Y-105992900D01*
X147963617Y-106041714D01*
X147979500Y-106102432D01*
X147979500Y-127004486D01*
X148009059Y-127191118D01*
X148067454Y-127370836D01*
X148150449Y-127533722D01*
X148153240Y-127539199D01*
X148264310Y-127692074D01*
X151617927Y-131045690D01*
X151770801Y-131156760D01*
X151850347Y-131197290D01*
X151939163Y-131242545D01*
X151939165Y-131242545D01*
X151939168Y-131242547D01*
X152035497Y-131273846D01*
X152118881Y-131300940D01*
X152305514Y-131330500D01*
X152305519Y-131330500D01*
X152494482Y-131330500D01*
X173248472Y-131330500D01*
X173315511Y-131350185D01*
X173323958Y-131356124D01*
X173403226Y-131416948D01*
X173596274Y-131528405D01*
X173802219Y-131613710D01*
X174017537Y-131671404D01*
X174238543Y-131700500D01*
X174238550Y-131700500D01*
X174461450Y-131700500D01*
X174461457Y-131700500D01*
X174682463Y-131671404D01*
X174897781Y-131613710D01*
X175103726Y-131528405D01*
X175296774Y-131416948D01*
X175473624Y-131281247D01*
X175631247Y-131123624D01*
X175766948Y-130946774D01*
X175878405Y-130753726D01*
X175963710Y-130547781D01*
X176021404Y-130332463D01*
X176050500Y-130111457D01*
X176050500Y-129888543D01*
X176049632Y-129881947D01*
X180350000Y-129881947D01*
X180350000Y-130118052D01*
X180386934Y-130351247D01*
X180459897Y-130575802D01*
X180567087Y-130786174D01*
X180627338Y-130869104D01*
X180627340Y-130869105D01*
X181358871Y-130137574D01*
X181374755Y-130196853D01*
X181441898Y-130313147D01*
X181536853Y-130408102D01*
X181653147Y-130475245D01*
X181712425Y-130491128D01*
X180980893Y-131222658D01*
X181063828Y-131282914D01*
X181274197Y-131390102D01*
X181498752Y-131463065D01*
X181498751Y-131463065D01*
X181731948Y-131500000D01*
X181968052Y-131500000D01*
X182201247Y-131463065D01*
X182425802Y-131390102D01*
X182636163Y-131282918D01*
X182636169Y-131282914D01*
X182719104Y-131222658D01*
X182719105Y-131222658D01*
X181987574Y-130491128D01*
X182046853Y-130475245D01*
X182163147Y-130408102D01*
X182258102Y-130313147D01*
X182325245Y-130196853D01*
X182341128Y-130137575D01*
X183072658Y-130869105D01*
X183072658Y-130869104D01*
X183132914Y-130786169D01*
X183132918Y-130786163D01*
X183240102Y-130575802D01*
X183313065Y-130351247D01*
X183350000Y-130118052D01*
X183350000Y-129881947D01*
X183313065Y-129648752D01*
X183240102Y-129424197D01*
X183132914Y-129213828D01*
X183072658Y-129130894D01*
X183072658Y-129130893D01*
X182341128Y-129862424D01*
X182325245Y-129803147D01*
X182258102Y-129686853D01*
X182163147Y-129591898D01*
X182046853Y-129524755D01*
X181987574Y-129508871D01*
X182719105Y-128777340D01*
X182719104Y-128777338D01*
X182636174Y-128717087D01*
X182425802Y-128609897D01*
X182201247Y-128536934D01*
X182201248Y-128536934D01*
X181968052Y-128500000D01*
X181731948Y-128500000D01*
X181498752Y-128536934D01*
X181274197Y-128609897D01*
X181063830Y-128717084D01*
X180980894Y-128777340D01*
X181712425Y-129508871D01*
X181653147Y-129524755D01*
X181536853Y-129591898D01*
X181441898Y-129686853D01*
X181374755Y-129803147D01*
X181358871Y-129862425D01*
X180627340Y-129130894D01*
X180567084Y-129213830D01*
X180459897Y-129424197D01*
X180386934Y-129648752D01*
X180350000Y-129881947D01*
X176049632Y-129881947D01*
X176021404Y-129667537D01*
X175963710Y-129452219D01*
X175878405Y-129246274D01*
X175766948Y-129053226D01*
X175747163Y-129027441D01*
X175652401Y-128903944D01*
X175652397Y-128903940D01*
X175631247Y-128876376D01*
X175594525Y-128839654D01*
X175592342Y-128837229D01*
X175578576Y-128808538D01*
X175563334Y-128780624D01*
X175562799Y-128775656D01*
X175562118Y-128774235D01*
X175562401Y-128771954D01*
X175560500Y-128754266D01*
X175560500Y-126055733D01*
X175580185Y-125988694D01*
X175596820Y-125968051D01*
X175641243Y-125923628D01*
X175641247Y-125923624D01*
X175776948Y-125746774D01*
X175888405Y-125553726D01*
X175973710Y-125347781D01*
X176031404Y-125132463D01*
X176060500Y-124911457D01*
X176060500Y-124688549D01*
X177739500Y-124688549D01*
X177739500Y-124911450D01*
X177739501Y-124911466D01*
X177768594Y-125132452D01*
X177768595Y-125132457D01*
X177768596Y-125132463D01*
X177816986Y-125313058D01*
X177826290Y-125347780D01*
X177826293Y-125347790D01*
X177907227Y-125543181D01*
X177911595Y-125553726D01*
X178023052Y-125746774D01*
X178023057Y-125746780D01*
X178023058Y-125746782D01*
X178158751Y-125923622D01*
X178158757Y-125923629D01*
X178316370Y-126081242D01*
X178316377Y-126081248D01*
X178386775Y-126135266D01*
X178493226Y-126216948D01*
X178686274Y-126328405D01*
X178774934Y-126365129D01*
X178889867Y-126412736D01*
X178892219Y-126413710D01*
X179107537Y-126471404D01*
X179328543Y-126500500D01*
X179328550Y-126500500D01*
X179551450Y-126500500D01*
X179551457Y-126500500D01*
X179772463Y-126471404D01*
X179987781Y-126413710D01*
X180193726Y-126328405D01*
X180386774Y-126216948D01*
X180563624Y-126081247D01*
X180608051Y-126036820D01*
X180669374Y-126003334D01*
X180695733Y-126000500D01*
X199744486Y-126000500D01*
X199931118Y-125970940D01*
X199998029Y-125949199D01*
X200110832Y-125912547D01*
X200279199Y-125826760D01*
X200432074Y-125715690D01*
X204415690Y-121732074D01*
X204526760Y-121579199D01*
X204612547Y-121410832D01*
X204670940Y-121231118D01*
X204687874Y-121124199D01*
X204700500Y-121044487D01*
X204700500Y-110125513D01*
X204670940Y-109938881D01*
X204615761Y-109769060D01*
X204612547Y-109759168D01*
X204612545Y-109759165D01*
X204612545Y-109759163D01*
X204526759Y-109590800D01*
X204477644Y-109523199D01*
X204477644Y-109523198D01*
X204477642Y-109523197D01*
X204419105Y-109442626D01*
X204415693Y-109437929D01*
X200506819Y-105529055D01*
X200492115Y-105502127D01*
X200475523Y-105476309D01*
X200474631Y-105470108D01*
X200473334Y-105467732D01*
X200470500Y-105441374D01*
X200470500Y-105302235D01*
X200490185Y-105235196D01*
X200519014Y-105203859D01*
X200544895Y-105184000D01*
X200625776Y-105121938D01*
X200801938Y-104945776D01*
X200953599Y-104748127D01*
X201078164Y-104532373D01*
X201173502Y-104302207D01*
X201237982Y-104061565D01*
X201270500Y-103814565D01*
X201270500Y-103565435D01*
X201237982Y-103318435D01*
X201173502Y-103077793D01*
X201094215Y-102886377D01*
X201078169Y-102847638D01*
X201078162Y-102847623D01*
X200953599Y-102631873D01*
X200801939Y-102434225D01*
X200801933Y-102434218D01*
X200625781Y-102258066D01*
X200625774Y-102258060D01*
X200428129Y-102106402D01*
X200425647Y-102104744D01*
X200425073Y-102104057D01*
X200424907Y-102103930D01*
X200424935Y-102103892D01*
X200380840Y-102051133D01*
X200372131Y-101981808D01*
X200402285Y-101918780D01*
X200461727Y-101882059D01*
X200468575Y-101880388D01*
X200472692Y-101879506D01*
X200639118Y-101824358D01*
X200639123Y-101824356D01*
X200788344Y-101732315D01*
X200912315Y-101608344D01*
X201004356Y-101459123D01*
X201004358Y-101459118D01*
X201059505Y-101292696D01*
X201059506Y-101292689D01*
X201069999Y-101189985D01*
X201070000Y-101189972D01*
X201070000Y-100440000D01*
X199918482Y-100440000D01*
X199929111Y-100421591D01*
X199970000Y-100268991D01*
X199970000Y-100111009D01*
X199929111Y-99958409D01*
X199918482Y-99940000D01*
X201070000Y-99940000D01*
X201070000Y-99190027D01*
X201069999Y-99190014D01*
X201059506Y-99087310D01*
X201059505Y-99087303D01*
X201004358Y-98920881D01*
X201004356Y-98920876D01*
X200912315Y-98771655D01*
X200788344Y-98647684D01*
X200639123Y-98555643D01*
X200639118Y-98555641D01*
X200472696Y-98500494D01*
X200472689Y-98500493D01*
X200369985Y-98490000D01*
X199620000Y-98490000D01*
X199620000Y-99641517D01*
X199601591Y-99630889D01*
X199448991Y-99590000D01*
X199291009Y-99590000D01*
X199138409Y-99630889D01*
X199120000Y-99641517D01*
X199120000Y-98490000D01*
X198370014Y-98490000D01*
X198267310Y-98500493D01*
X198267303Y-98500494D01*
X198100881Y-98555641D01*
X198100876Y-98555643D01*
X197951655Y-98647684D01*
X197827684Y-98771655D01*
X197735643Y-98920876D01*
X197735641Y-98920881D01*
X197680494Y-99087303D01*
X197680493Y-99087310D01*
X197670000Y-99190014D01*
X197670000Y-99940000D01*
X198821518Y-99940000D01*
X198810889Y-99958409D01*
X198770000Y-100111009D01*
X198770000Y-100268991D01*
X198810889Y-100421591D01*
X198821518Y-100440000D01*
X197670000Y-100440000D01*
X197670000Y-101189985D01*
X197680493Y-101292689D01*
X197680494Y-101292696D01*
X197735641Y-101459118D01*
X197735643Y-101459123D01*
X197827684Y-101608344D01*
X197951655Y-101732315D01*
X198100876Y-101824356D01*
X198100881Y-101824358D01*
X198267304Y-101879505D01*
X198271426Y-101880388D01*
X198273722Y-101881632D01*
X198273731Y-101881635D01*
X198273730Y-101881636D01*
X198332858Y-101913673D01*
X198366544Y-101974886D01*
X198361787Y-102044594D01*
X198320098Y-102100664D01*
X198314361Y-102104738D01*
X198311874Y-102106399D01*
X198114225Y-102258060D01*
X198114218Y-102258066D01*
X197938066Y-102434218D01*
X197938060Y-102434225D01*
X197786400Y-102631873D01*
X197661837Y-102847623D01*
X197661830Y-102847638D01*
X197566498Y-103077792D01*
X197502017Y-103318438D01*
X197469501Y-103565424D01*
X197469500Y-103565441D01*
X197469500Y-103814558D01*
X197469501Y-103814575D01*
X197492404Y-103988543D01*
X197502018Y-104061565D01*
X197519339Y-104126209D01*
X197566498Y-104302207D01*
X197661830Y-104532361D01*
X197661837Y-104532376D01*
X197786400Y-104748126D01*
X197938059Y-104945773D01*
X197938060Y-104945774D01*
X197938062Y-104945776D01*
X198033182Y-105040896D01*
X198066666Y-105102217D01*
X198069500Y-105128576D01*
X198069500Y-106084486D01*
X198099059Y-106271118D01*
X198157454Y-106450836D01*
X198216283Y-106566293D01*
X198243240Y-106619199D01*
X198354310Y-106772074D01*
X198354312Y-106772076D01*
X202263181Y-110680945D01*
X202296666Y-110742268D01*
X202299500Y-110768626D01*
X202299500Y-120401374D01*
X202279815Y-120468413D01*
X202263181Y-120489055D01*
X199189055Y-123563181D01*
X199127732Y-123596666D01*
X199101374Y-123599500D01*
X180695733Y-123599500D01*
X180628694Y-123579815D01*
X180608051Y-123563180D01*
X180563628Y-123518756D01*
X180563622Y-123518751D01*
X180386782Y-123383058D01*
X180386780Y-123383057D01*
X180386774Y-123383052D01*
X180193726Y-123271595D01*
X180193722Y-123271593D01*
X179987790Y-123186293D01*
X179987783Y-123186291D01*
X179987781Y-123186290D01*
X179772463Y-123128596D01*
X179772457Y-123128595D01*
X179772452Y-123128594D01*
X179551466Y-123099501D01*
X179551463Y-123099500D01*
X179551457Y-123099500D01*
X179328543Y-123099500D01*
X179328537Y-123099500D01*
X179328533Y-123099501D01*
X179107547Y-123128594D01*
X179107540Y-123128595D01*
X179107537Y-123128596D01*
X178911040Y-123181247D01*
X178892219Y-123186290D01*
X178892209Y-123186293D01*
X178686277Y-123271593D01*
X178686273Y-123271595D01*
X178493226Y-123383052D01*
X178493217Y-123383058D01*
X178316377Y-123518751D01*
X178316370Y-123518757D01*
X178158757Y-123676370D01*
X178158751Y-123676377D01*
X178023058Y-123853217D01*
X178023052Y-123853226D01*
X177911595Y-124046273D01*
X177911593Y-124046277D01*
X177826293Y-124252209D01*
X177826290Y-124252219D01*
X177795031Y-124368882D01*
X177768597Y-124467534D01*
X177768594Y-124467547D01*
X177739501Y-124688533D01*
X177739500Y-124688549D01*
X176060500Y-124688549D01*
X176060500Y-124688543D01*
X176031404Y-124467537D01*
X175973710Y-124252219D01*
X175947593Y-124189168D01*
X175895332Y-124062998D01*
X175888405Y-124046274D01*
X175776948Y-123853226D01*
X175641247Y-123676376D01*
X175641242Y-123676370D01*
X175483629Y-123518757D01*
X175483622Y-123518751D01*
X175306782Y-123383058D01*
X175306780Y-123383057D01*
X175306774Y-123383052D01*
X175113726Y-123271595D01*
X175113722Y-123271593D01*
X174907790Y-123186293D01*
X174907783Y-123186291D01*
X174907781Y-123186290D01*
X174692463Y-123128596D01*
X174692457Y-123128595D01*
X174692452Y-123128594D01*
X174471466Y-123099501D01*
X174471463Y-123099500D01*
X174471457Y-123099500D01*
X174248543Y-123099500D01*
X174248537Y-123099500D01*
X174248533Y-123099501D01*
X174027547Y-123128594D01*
X174027540Y-123128595D01*
X174027537Y-123128596D01*
X173831040Y-123181247D01*
X173812219Y-123186290D01*
X173812209Y-123186293D01*
X173606277Y-123271593D01*
X173606273Y-123271595D01*
X173413226Y-123383052D01*
X173413217Y-123383058D01*
X173236377Y-123518751D01*
X173236370Y-123518757D01*
X173078757Y-123676370D01*
X173078751Y-123676377D01*
X172943058Y-123853217D01*
X172943052Y-123853226D01*
X172831595Y-124046273D01*
X172831593Y-124046277D01*
X172746293Y-124252209D01*
X172746290Y-124252219D01*
X172715031Y-124368882D01*
X172688597Y-124467534D01*
X172688594Y-124467547D01*
X172659501Y-124688533D01*
X172659500Y-124688549D01*
X172659500Y-124911450D01*
X172659501Y-124911466D01*
X172688594Y-125132452D01*
X172688595Y-125132457D01*
X172688596Y-125132463D01*
X172736986Y-125313058D01*
X172746290Y-125347780D01*
X172746293Y-125347790D01*
X172827227Y-125543181D01*
X172831595Y-125553726D01*
X172943052Y-125746774D01*
X172943057Y-125746780D01*
X172943058Y-125746782D01*
X173078751Y-125923622D01*
X173078756Y-125923628D01*
X173123180Y-125968051D01*
X173156666Y-126029374D01*
X173159500Y-126055733D01*
X173159500Y-128734266D01*
X173151164Y-128762654D01*
X173145407Y-128791681D01*
X173140798Y-128797957D01*
X173139815Y-128801305D01*
X173124779Y-128820320D01*
X173123978Y-128821150D01*
X173068753Y-128876376D01*
X173060966Y-128886524D01*
X173056118Y-128891554D01*
X173031585Y-128905541D01*
X173008786Y-128922189D01*
X172999570Y-128923795D01*
X172995421Y-128926161D01*
X172988196Y-128925777D01*
X172966839Y-128929500D01*
X152948625Y-128929500D01*
X152881586Y-128909815D01*
X152860944Y-128893181D01*
X150416819Y-126449055D01*
X150383334Y-126387732D01*
X150380500Y-126361374D01*
X150380500Y-106009733D01*
X150389144Y-105980293D01*
X150395667Y-105950308D01*
X150399422Y-105945290D01*
X150400185Y-105942694D01*
X150416812Y-105922058D01*
X150442320Y-105896550D01*
X150503639Y-105863067D01*
X150573330Y-105868050D01*
X150617680Y-105896552D01*
X150676370Y-105955242D01*
X150676377Y-105955248D01*
X150739063Y-106003348D01*
X150853226Y-106090948D01*
X151046274Y-106202405D01*
X151252219Y-106287710D01*
X151467537Y-106345404D01*
X151688543Y-106374500D01*
X151688550Y-106374500D01*
X151911450Y-106374500D01*
X151911457Y-106374500D01*
X152132463Y-106345404D01*
X152347781Y-106287710D01*
X152553726Y-106202405D01*
X152746774Y-106090948D01*
X152923624Y-105955247D01*
X152982320Y-105896550D01*
X153043641Y-105863067D01*
X153113333Y-105868051D01*
X153157679Y-105896550D01*
X153190862Y-105929733D01*
X153216378Y-105955249D01*
X153358192Y-106064066D01*
X153393226Y-106090948D01*
X153586274Y-106202405D01*
X153792219Y-106287710D01*
X154007537Y-106345404D01*
X154228543Y-106374500D01*
X154228550Y-106374500D01*
X154451450Y-106374500D01*
X154451457Y-106374500D01*
X154672463Y-106345404D01*
X154887781Y-106287710D01*
X155093726Y-106202405D01*
X155286774Y-106090948D01*
X155463624Y-105955247D01*
X155522320Y-105896550D01*
X155583641Y-105863067D01*
X155653333Y-105868051D01*
X155697679Y-105896550D01*
X155730862Y-105929733D01*
X155756378Y-105955249D01*
X155898192Y-106064066D01*
X155933226Y-106090948D01*
X156126274Y-106202405D01*
X156332219Y-106287710D01*
X156547537Y-106345404D01*
X156768543Y-106374500D01*
X156768550Y-106374500D01*
X156991450Y-106374500D01*
X156991457Y-106374500D01*
X157212463Y-106345404D01*
X157427781Y-106287710D01*
X157633726Y-106202405D01*
X157826774Y-106090948D01*
X157990014Y-105965689D01*
X158055183Y-105940496D01*
X158123628Y-105954534D01*
X158173617Y-106003348D01*
X158189500Y-106064066D01*
X158189500Y-109791374D01*
X158169815Y-109858413D01*
X158153181Y-109879055D01*
X157304308Y-110727927D01*
X157304306Y-110727929D01*
X157265416Y-110781457D01*
X157259574Y-110789500D01*
X157252309Y-110799500D01*
X157193240Y-110880800D01*
X157107454Y-111049163D01*
X157049059Y-111228881D01*
X157019500Y-111415513D01*
X157019500Y-120375500D01*
X156999815Y-120442539D01*
X156947011Y-120488294D01*
X156895500Y-120499500D01*
X155158489Y-120499500D01*
X155096489Y-120482887D01*
X154903733Y-120371598D01*
X154903722Y-120371593D01*
X154697790Y-120286293D01*
X154697783Y-120286291D01*
X154697781Y-120286290D01*
X154482463Y-120228596D01*
X154482457Y-120228595D01*
X154482452Y-120228594D01*
X154261466Y-120199501D01*
X154261463Y-120199500D01*
X154261457Y-120199500D01*
X154038543Y-120199500D01*
X154038537Y-120199500D01*
X154038533Y-120199501D01*
X153817547Y-120228594D01*
X153817540Y-120228595D01*
X153817537Y-120228596D01*
X153806345Y-120231595D01*
X153602219Y-120286290D01*
X153602209Y-120286293D01*
X153396277Y-120371593D01*
X153396273Y-120371595D01*
X153203226Y-120483052D01*
X153203217Y-120483058D01*
X153026377Y-120618751D01*
X153026370Y-120618757D01*
X152868757Y-120776370D01*
X152868751Y-120776377D01*
X152733058Y-120953217D01*
X152733052Y-120953226D01*
X152621595Y-121146273D01*
X152621593Y-121146277D01*
X152536293Y-121352209D01*
X152536290Y-121352219D01*
X152496469Y-121500836D01*
X152478597Y-121567534D01*
X152478594Y-121567547D01*
X152449501Y-121788533D01*
X152449500Y-121788549D01*
X152449500Y-122011450D01*
X152449501Y-122011466D01*
X152478594Y-122232452D01*
X152478595Y-122232457D01*
X152478596Y-122232463D01*
X152536290Y-122447780D01*
X152536293Y-122447790D01*
X152621593Y-122653722D01*
X152621595Y-122653726D01*
X152733052Y-122846774D01*
X152733057Y-122846780D01*
X152733058Y-122846782D01*
X152868751Y-123023622D01*
X152868757Y-123023629D01*
X153026370Y-123181242D01*
X153026377Y-123181248D01*
X153087834Y-123228405D01*
X153203226Y-123316948D01*
X153396274Y-123428405D01*
X153602219Y-123513710D01*
X153817537Y-123571404D01*
X154038543Y-123600500D01*
X154038550Y-123600500D01*
X154261450Y-123600500D01*
X154261457Y-123600500D01*
X154482463Y-123571404D01*
X154697781Y-123513710D01*
X154903726Y-123428405D01*
X155096774Y-123316948D01*
X155273624Y-123181247D01*
X155431247Y-123023624D01*
X155488497Y-122949013D01*
X155544924Y-122907811D01*
X155586873Y-122900500D01*
X156964267Y-122900500D01*
X157031306Y-122920185D01*
X157051949Y-122936820D01*
X157096371Y-122981243D01*
X157096377Y-122981248D01*
X157174563Y-123041242D01*
X157273226Y-123116948D01*
X157466274Y-123228405D01*
X157672219Y-123313710D01*
X157887537Y-123371404D01*
X158108543Y-123400500D01*
X158108550Y-123400500D01*
X158331450Y-123400500D01*
X158331457Y-123400500D01*
X158552463Y-123371404D01*
X158767781Y-123313710D01*
X158973726Y-123228405D01*
X159166774Y-123116948D01*
X159343624Y-122981247D01*
X159501247Y-122823624D01*
X159636948Y-122646774D01*
X159748405Y-122453726D01*
X159833710Y-122247781D01*
X159891404Y-122032463D01*
X159920500Y-121811457D01*
X159920500Y-121588543D01*
X159891404Y-121367537D01*
X159833710Y-121152219D01*
X159748405Y-120946274D01*
X159636948Y-120753226D01*
X159501247Y-120576376D01*
X159501242Y-120576370D01*
X159456819Y-120531947D01*
X159423334Y-120470624D01*
X159420500Y-120444266D01*
X159420500Y-112058625D01*
X159440185Y-111991586D01*
X159456819Y-111970944D01*
X159760226Y-111667537D01*
X160305690Y-111122073D01*
X160416760Y-110969199D01*
X160502547Y-110800832D01*
X160517569Y-110754596D01*
X160557007Y-110696923D01*
X160621366Y-110669725D01*
X160690212Y-110681640D01*
X160741688Y-110728884D01*
X160759500Y-110792917D01*
X160759500Y-120494266D01*
X160739815Y-120561305D01*
X160723181Y-120581947D01*
X160668757Y-120636370D01*
X160668751Y-120636377D01*
X160533058Y-120813217D01*
X160533052Y-120813226D01*
X160421595Y-121006273D01*
X160421593Y-121006277D01*
X160336293Y-121212209D01*
X160336290Y-121212219D01*
X160278597Y-121427534D01*
X160278594Y-121427547D01*
X160249501Y-121648533D01*
X160249500Y-121648549D01*
X160249500Y-121871450D01*
X160249501Y-121871466D01*
X160278594Y-122092452D01*
X160278595Y-122092457D01*
X160278596Y-122092463D01*
X160320213Y-122247780D01*
X160336290Y-122307780D01*
X160336293Y-122307790D01*
X160396742Y-122453726D01*
X160421595Y-122513726D01*
X160533052Y-122706774D01*
X160533057Y-122706780D01*
X160533058Y-122706782D01*
X160668751Y-122883622D01*
X160668757Y-122883629D01*
X160826370Y-123041242D01*
X160826377Y-123041248D01*
X160925023Y-123116941D01*
X161003226Y-123176948D01*
X161196274Y-123288405D01*
X161257366Y-123313710D01*
X161396651Y-123371404D01*
X161402219Y-123373710D01*
X161617537Y-123431404D01*
X161838543Y-123460500D01*
X161838550Y-123460500D01*
X162061450Y-123460500D01*
X162061457Y-123460500D01*
X162282463Y-123431404D01*
X162497781Y-123373710D01*
X162703726Y-123288405D01*
X162896774Y-123176948D01*
X163073624Y-123041247D01*
X163118051Y-122996820D01*
X163179374Y-122963334D01*
X163205733Y-122960500D01*
X163834267Y-122960500D01*
X163901306Y-122980185D01*
X163921949Y-122996820D01*
X163966371Y-123041243D01*
X163966377Y-123041248D01*
X164065023Y-123116941D01*
X164143226Y-123176948D01*
X164336274Y-123288405D01*
X164397366Y-123313710D01*
X164536651Y-123371404D01*
X164542219Y-123373710D01*
X164757537Y-123431404D01*
X164978543Y-123460500D01*
X164978550Y-123460500D01*
X165201450Y-123460500D01*
X165201457Y-123460500D01*
X165422463Y-123431404D01*
X165637781Y-123373710D01*
X165843726Y-123288405D01*
X166036774Y-123176948D01*
X166213624Y-123041247D01*
X166371247Y-122883624D01*
X166506948Y-122706774D01*
X166618405Y-122513726D01*
X166703710Y-122307781D01*
X166761404Y-122092463D01*
X166790500Y-121871457D01*
X166790500Y-121648543D01*
X166761404Y-121427537D01*
X166703710Y-121212219D01*
X166673991Y-121140472D01*
X166667251Y-121124199D01*
X166618405Y-121006274D01*
X166506948Y-120813226D01*
X166371247Y-120636376D01*
X166371242Y-120636370D01*
X166213629Y-120478757D01*
X166213622Y-120478751D01*
X166036782Y-120343058D01*
X166036780Y-120343057D01*
X166036774Y-120343052D01*
X165843726Y-120231595D01*
X165843722Y-120231593D01*
X165637790Y-120146293D01*
X165637783Y-120146291D01*
X165637781Y-120146290D01*
X165422463Y-120088596D01*
X165422457Y-120088595D01*
X165422452Y-120088594D01*
X165201466Y-120059501D01*
X165201463Y-120059500D01*
X165201457Y-120059500D01*
X164978543Y-120059500D01*
X164978537Y-120059500D01*
X164978533Y-120059501D01*
X164757547Y-120088594D01*
X164757540Y-120088595D01*
X164757537Y-120088596D01*
X164542219Y-120146290D01*
X164542209Y-120146293D01*
X164336277Y-120231593D01*
X164336273Y-120231595D01*
X164143226Y-120343052D01*
X164143217Y-120343058D01*
X163966377Y-120478751D01*
X163966371Y-120478756D01*
X163921949Y-120523180D01*
X163860626Y-120556666D01*
X163834267Y-120559500D01*
X163284500Y-120559500D01*
X163217461Y-120539815D01*
X163171706Y-120487011D01*
X163160500Y-120435500D01*
X163160500Y-105929733D01*
X163168377Y-105902904D01*
X163173070Y-105875333D01*
X163178853Y-105867228D01*
X163180185Y-105862694D01*
X163192910Y-105846143D01*
X163194811Y-105844059D01*
X163241247Y-105797624D01*
X163376948Y-105620774D01*
X163488405Y-105427726D01*
X163546628Y-105287160D01*
X163573505Y-105246939D01*
X164008871Y-104811573D01*
X164024755Y-104870853D01*
X164091898Y-104987147D01*
X164186853Y-105082102D01*
X164303147Y-105149245D01*
X164362425Y-105165128D01*
X163630893Y-105896658D01*
X163713828Y-105956914D01*
X163924197Y-106064102D01*
X164148752Y-106137065D01*
X164148751Y-106137065D01*
X164381948Y-106174000D01*
X164618052Y-106174000D01*
X164851247Y-106137065D01*
X165075802Y-106064102D01*
X165286163Y-105956918D01*
X165286169Y-105956914D01*
X165369104Y-105896658D01*
X165369105Y-105896658D01*
X164637574Y-105165128D01*
X164696853Y-105149245D01*
X164813147Y-105082102D01*
X164908102Y-104987147D01*
X164975245Y-104870853D01*
X164991128Y-104811574D01*
X165426493Y-105246939D01*
X165453373Y-105287167D01*
X165511593Y-105427722D01*
X165511595Y-105427726D01*
X165623052Y-105620774D01*
X165623057Y-105620780D01*
X165623058Y-105620782D01*
X165758751Y-105797622D01*
X165758757Y-105797629D01*
X165916370Y-105955242D01*
X165916377Y-105955248D01*
X165979063Y-106003348D01*
X166093226Y-106090948D01*
X166286274Y-106202405D01*
X166492219Y-106287710D01*
X166707537Y-106345404D01*
X166928543Y-106374500D01*
X166991374Y-106374500D01*
X167058413Y-106394185D01*
X167079055Y-106410819D01*
X170023181Y-109354945D01*
X170056666Y-109416268D01*
X170059500Y-109442626D01*
X170059500Y-120491374D01*
X170039815Y-120558413D01*
X170023181Y-120579055D01*
X164999055Y-125603181D01*
X164937732Y-125636666D01*
X164911374Y-125639500D01*
X163205733Y-125639500D01*
X163138694Y-125619815D01*
X163118051Y-125603180D01*
X163073628Y-125558756D01*
X163073622Y-125558751D01*
X162896782Y-125423058D01*
X162896780Y-125423057D01*
X162896774Y-125423052D01*
X162703726Y-125311595D01*
X162703722Y-125311593D01*
X162497790Y-125226293D01*
X162497783Y-125226291D01*
X162497781Y-125226290D01*
X162282463Y-125168596D01*
X162282457Y-125168595D01*
X162282452Y-125168594D01*
X162061466Y-125139501D01*
X162061463Y-125139500D01*
X162061457Y-125139500D01*
X161838543Y-125139500D01*
X161838537Y-125139500D01*
X161838533Y-125139501D01*
X161617547Y-125168594D01*
X161617540Y-125168595D01*
X161617537Y-125168596D01*
X161405096Y-125225519D01*
X161402219Y-125226290D01*
X161402209Y-125226293D01*
X161196277Y-125311593D01*
X161196273Y-125311595D01*
X161003226Y-125423052D01*
X161003217Y-125423058D01*
X160826377Y-125558751D01*
X160826371Y-125558756D01*
X160781949Y-125603180D01*
X160720626Y-125636666D01*
X160694267Y-125639500D01*
X159535733Y-125639500D01*
X159468694Y-125619815D01*
X159448056Y-125603185D01*
X159343624Y-125498753D01*
X159343623Y-125498752D01*
X159343621Y-125498750D01*
X159166782Y-125363058D01*
X159166780Y-125363057D01*
X159166774Y-125363052D01*
X158973726Y-125251595D01*
X158973722Y-125251593D01*
X158767790Y-125166293D01*
X158767783Y-125166291D01*
X158767781Y-125166290D01*
X158552463Y-125108596D01*
X158552457Y-125108595D01*
X158552452Y-125108594D01*
X158331466Y-125079501D01*
X158331463Y-125079500D01*
X158331457Y-125079500D01*
X158108543Y-125079500D01*
X158108537Y-125079500D01*
X158108533Y-125079501D01*
X157887547Y-125108594D01*
X157887540Y-125108595D01*
X157887537Y-125108596D01*
X157727603Y-125151450D01*
X157672219Y-125166290D01*
X157672209Y-125166293D01*
X157466277Y-125251593D01*
X157466273Y-125251595D01*
X157273226Y-125363052D01*
X157273217Y-125363058D01*
X157096377Y-125498751D01*
X157096371Y-125498756D01*
X157051949Y-125543180D01*
X156990626Y-125576666D01*
X156964267Y-125579500D01*
X156265733Y-125579500D01*
X156198694Y-125559815D01*
X156178056Y-125543185D01*
X156083624Y-125448753D01*
X156083623Y-125448752D01*
X156083621Y-125448750D01*
X155906782Y-125313058D01*
X155906780Y-125313057D01*
X155906774Y-125313052D01*
X155713726Y-125201595D01*
X155713722Y-125201593D01*
X155507790Y-125116293D01*
X155507783Y-125116291D01*
X155507781Y-125116290D01*
X155292463Y-125058596D01*
X155292457Y-125058595D01*
X155292452Y-125058594D01*
X155071466Y-125029501D01*
X155071463Y-125029500D01*
X155071457Y-125029500D01*
X154848543Y-125029500D01*
X154848537Y-125029500D01*
X154848533Y-125029501D01*
X154627547Y-125058594D01*
X154627540Y-125058595D01*
X154627537Y-125058596D01*
X154440941Y-125108594D01*
X154412219Y-125116290D01*
X154412209Y-125116293D01*
X154206277Y-125201593D01*
X154206273Y-125201595D01*
X154013226Y-125313052D01*
X154013217Y-125313058D01*
X153836377Y-125448751D01*
X153836370Y-125448757D01*
X153678757Y-125606370D01*
X153678751Y-125606377D01*
X153543058Y-125783217D01*
X153543052Y-125783226D01*
X153431595Y-125976273D01*
X153431593Y-125976277D01*
X153346293Y-126182209D01*
X153346290Y-126182219D01*
X153309038Y-126321248D01*
X153288597Y-126397534D01*
X153288594Y-126397547D01*
X153259501Y-126618533D01*
X153259500Y-126618549D01*
X153259500Y-126841450D01*
X153259501Y-126841466D01*
X153288594Y-127062452D01*
X153288595Y-127062457D01*
X153288596Y-127062463D01*
X153316753Y-127167547D01*
X153346290Y-127277780D01*
X153346293Y-127277790D01*
X153392171Y-127388549D01*
X153431595Y-127483726D01*
X153543052Y-127676774D01*
X153543057Y-127676780D01*
X153543058Y-127676782D01*
X153678751Y-127853622D01*
X153678757Y-127853629D01*
X153836370Y-128011242D01*
X153836377Y-128011248D01*
X153916775Y-128072939D01*
X154013226Y-128146948D01*
X154206274Y-128258405D01*
X154412219Y-128343710D01*
X154627537Y-128401404D01*
X154848543Y-128430500D01*
X154848550Y-128430500D01*
X155071450Y-128430500D01*
X155071457Y-128430500D01*
X155292463Y-128401404D01*
X155507781Y-128343710D01*
X155713726Y-128258405D01*
X155906774Y-128146948D01*
X156045501Y-128040500D01*
X156086845Y-128008776D01*
X156087404Y-128009505D01*
X156146977Y-127981869D01*
X156165355Y-127980500D01*
X156964267Y-127980500D01*
X157031306Y-128000185D01*
X157051949Y-128016820D01*
X157096371Y-128061243D01*
X157096377Y-128061248D01*
X157116671Y-128076820D01*
X157273226Y-128196948D01*
X157466274Y-128308405D01*
X157672219Y-128393710D01*
X157887537Y-128451404D01*
X158108543Y-128480500D01*
X158108550Y-128480500D01*
X158331450Y-128480500D01*
X158331457Y-128480500D01*
X158552463Y-128451404D01*
X158767781Y-128393710D01*
X158973726Y-128308405D01*
X159166774Y-128196948D01*
X159265430Y-128121247D01*
X159337269Y-128066124D01*
X159402438Y-128040930D01*
X159412755Y-128040500D01*
X160694267Y-128040500D01*
X160761306Y-128060185D01*
X160781949Y-128076820D01*
X160826371Y-128121243D01*
X160826376Y-128121247D01*
X161003226Y-128256948D01*
X161196274Y-128368405D01*
X161257366Y-128393710D01*
X161396651Y-128451404D01*
X161402219Y-128453710D01*
X161617537Y-128511404D01*
X161838543Y-128540500D01*
X161838550Y-128540500D01*
X162061450Y-128540500D01*
X162061457Y-128540500D01*
X162282463Y-128511404D01*
X162497781Y-128453710D01*
X162703726Y-128368405D01*
X162896774Y-128256948D01*
X163073624Y-128121247D01*
X163118051Y-128076820D01*
X163179374Y-128043334D01*
X163205733Y-128040500D01*
X165554486Y-128040500D01*
X165741118Y-128010940D01*
X165774218Y-128000185D01*
X165920832Y-127952547D01*
X166089199Y-127866760D01*
X166242074Y-127755690D01*
X172175690Y-121822073D01*
X172286760Y-121669199D01*
X172372547Y-121500832D01*
X172430940Y-121321118D01*
X172437916Y-121277074D01*
X172460500Y-121134486D01*
X172460500Y-119381947D01*
X172760000Y-119381947D01*
X172760000Y-119618052D01*
X172796934Y-119851247D01*
X172869897Y-120075802D01*
X172977087Y-120286174D01*
X173037338Y-120369104D01*
X173037340Y-120369105D01*
X173768871Y-119637574D01*
X173784755Y-119696853D01*
X173851898Y-119813147D01*
X173946853Y-119908102D01*
X174063147Y-119975245D01*
X174122425Y-119991128D01*
X173390893Y-120722658D01*
X173473828Y-120782914D01*
X173684197Y-120890102D01*
X173908752Y-120963065D01*
X173908751Y-120963065D01*
X174141948Y-121000000D01*
X174378052Y-121000000D01*
X174611247Y-120963065D01*
X174835802Y-120890102D01*
X175046163Y-120782918D01*
X175046169Y-120782914D01*
X175129104Y-120722658D01*
X175129105Y-120722658D01*
X174853064Y-120446617D01*
X182900000Y-120446617D01*
X182900000Y-120682722D01*
X182936934Y-120915917D01*
X183009897Y-121140472D01*
X183117087Y-121350844D01*
X183177338Y-121433774D01*
X183177340Y-121433775D01*
X183908871Y-120702244D01*
X183924755Y-120761523D01*
X183991898Y-120877817D01*
X184086853Y-120972772D01*
X184203147Y-121039915D01*
X184262425Y-121055798D01*
X183530893Y-121787328D01*
X183613828Y-121847584D01*
X183824197Y-121954772D01*
X184048752Y-122027735D01*
X184048751Y-122027735D01*
X184281948Y-122064670D01*
X184518052Y-122064670D01*
X184751247Y-122027735D01*
X184975802Y-121954772D01*
X185186163Y-121847588D01*
X185186169Y-121847584D01*
X185269104Y-121787328D01*
X185269105Y-121787328D01*
X184537574Y-121055798D01*
X184596853Y-121039915D01*
X184713147Y-120972772D01*
X184808102Y-120877817D01*
X184875245Y-120761523D01*
X184891128Y-120702245D01*
X185622658Y-121433775D01*
X185622658Y-121433774D01*
X185682914Y-121350839D01*
X185682918Y-121350833D01*
X185790102Y-121140472D01*
X185863065Y-120915917D01*
X185900000Y-120682722D01*
X185900000Y-120446617D01*
X185863065Y-120213422D01*
X185790102Y-119988867D01*
X185682914Y-119778498D01*
X185622658Y-119695564D01*
X185622658Y-119695563D01*
X184891128Y-120427094D01*
X184875245Y-120367817D01*
X184808102Y-120251523D01*
X184713147Y-120156568D01*
X184596853Y-120089425D01*
X184537574Y-120073541D01*
X185269105Y-119342010D01*
X185269104Y-119342008D01*
X185186174Y-119281757D01*
X184975802Y-119174567D01*
X184751247Y-119101604D01*
X184751248Y-119101604D01*
X184518052Y-119064670D01*
X184281948Y-119064670D01*
X184048752Y-119101604D01*
X183824197Y-119174567D01*
X183613830Y-119281754D01*
X183530894Y-119342010D01*
X184262425Y-120073541D01*
X184203147Y-120089425D01*
X184086853Y-120156568D01*
X183991898Y-120251523D01*
X183924755Y-120367817D01*
X183908871Y-120427095D01*
X183177340Y-119695564D01*
X183117084Y-119778500D01*
X183009897Y-119988867D01*
X182936934Y-120213422D01*
X182900000Y-120446617D01*
X174853064Y-120446617D01*
X174397574Y-119991128D01*
X174456853Y-119975245D01*
X174573147Y-119908102D01*
X174668102Y-119813147D01*
X174735245Y-119696853D01*
X174751128Y-119637574D01*
X175482658Y-120369105D01*
X175482659Y-120369104D01*
X175482837Y-120368860D01*
X175482837Y-120368859D01*
X175542914Y-120286169D01*
X175542918Y-120286163D01*
X175650102Y-120075802D01*
X175723065Y-119851247D01*
X175760000Y-119618052D01*
X175760000Y-119381947D01*
X175723065Y-119148752D01*
X175650102Y-118924197D01*
X175542912Y-118713824D01*
X175504452Y-118660889D01*
X175504451Y-118660888D01*
X175482659Y-118630894D01*
X175482658Y-118630893D01*
X174751128Y-119362424D01*
X174735245Y-119303147D01*
X174668102Y-119186853D01*
X174573147Y-119091898D01*
X174456853Y-119024755D01*
X174397574Y-119008871D01*
X175129105Y-118277340D01*
X175129104Y-118277338D01*
X175046174Y-118217087D01*
X174835802Y-118109897D01*
X174611247Y-118036934D01*
X174611248Y-118036934D01*
X174378052Y-118000000D01*
X174141948Y-118000000D01*
X173908752Y-118036934D01*
X173684197Y-118109897D01*
X173473830Y-118217084D01*
X173390894Y-118277340D01*
X174122425Y-119008871D01*
X174063147Y-119024755D01*
X173946853Y-119091898D01*
X173851898Y-119186853D01*
X173784755Y-119303147D01*
X173768871Y-119362425D01*
X173037340Y-118630894D01*
X172977084Y-118713830D01*
X172869897Y-118924197D01*
X172796934Y-119148752D01*
X172760000Y-119381947D01*
X172460500Y-119381947D01*
X172460500Y-112722635D01*
X172480185Y-112655596D01*
X172532989Y-112609841D01*
X172602147Y-112599897D01*
X172665703Y-112628922D01*
X172699061Y-112675183D01*
X172731590Y-112753717D01*
X172731595Y-112753726D01*
X172843052Y-112946774D01*
X172843057Y-112946780D01*
X172843058Y-112946782D01*
X172978751Y-113123622D01*
X172978757Y-113123629D01*
X173136370Y-113281242D01*
X173136377Y-113281248D01*
X173262294Y-113377867D01*
X173313226Y-113416948D01*
X173506274Y-113528405D01*
X173712219Y-113613710D01*
X173927537Y-113671404D01*
X174148543Y-113700500D01*
X174148550Y-113700500D01*
X174371450Y-113700500D01*
X174371457Y-113700500D01*
X174592463Y-113671404D01*
X174807781Y-113613710D01*
X175013726Y-113528405D01*
X175206774Y-113416948D01*
X175383624Y-113281247D01*
X175428051Y-113236820D01*
X175489374Y-113203334D01*
X175515733Y-113200500D01*
X180211374Y-113200500D01*
X180278413Y-113220185D01*
X180299055Y-113236819D01*
X182675972Y-115613736D01*
X182709457Y-115675059D01*
X182711230Y-115685231D01*
X182728596Y-115817133D01*
X182768025Y-115964283D01*
X182786290Y-116032450D01*
X182786293Y-116032460D01*
X182871593Y-116238392D01*
X182871595Y-116238396D01*
X182983052Y-116431444D01*
X182983057Y-116431450D01*
X182983058Y-116431452D01*
X183118751Y-116608292D01*
X183118757Y-116608299D01*
X183276370Y-116765912D01*
X183276377Y-116765918D01*
X183402294Y-116862537D01*
X183453226Y-116901618D01*
X183646274Y-117013075D01*
X183852219Y-117098380D01*
X184067537Y-117156074D01*
X184288543Y-117185170D01*
X184288550Y-117185170D01*
X184511450Y-117185170D01*
X184511457Y-117185170D01*
X184732463Y-117156074D01*
X184947781Y-117098380D01*
X185040441Y-117059999D01*
X185088830Y-117039956D01*
X185107408Y-117032260D01*
X185153726Y-117013075D01*
X185346774Y-116901618D01*
X185523624Y-116765917D01*
X185681247Y-116608294D01*
X185816948Y-116431444D01*
X185928405Y-116238396D01*
X186013710Y-116032451D01*
X186071404Y-115817133D01*
X186100500Y-115596127D01*
X186100500Y-115373213D01*
X186071404Y-115152207D01*
X186013710Y-114936889D01*
X185928405Y-114730944D01*
X185816948Y-114537896D01*
X185681247Y-114361046D01*
X185681242Y-114361040D01*
X185646819Y-114326617D01*
X185613334Y-114265294D01*
X185610500Y-114238936D01*
X185610500Y-109435733D01*
X185618377Y-109408904D01*
X185623070Y-109381333D01*
X185628853Y-109373228D01*
X185630185Y-109368694D01*
X185642910Y-109352143D01*
X185644811Y-109350059D01*
X185691247Y-109303624D01*
X185826948Y-109126774D01*
X185938405Y-108933726D01*
X186023710Y-108727781D01*
X186081404Y-108512463D01*
X186110500Y-108291457D01*
X186110500Y-108068543D01*
X186109632Y-108061947D01*
X187990000Y-108061947D01*
X187990000Y-108298052D01*
X188026934Y-108531247D01*
X188099897Y-108755802D01*
X188207087Y-108966174D01*
X188267338Y-109049104D01*
X188267340Y-109049105D01*
X188998871Y-108317574D01*
X189014755Y-108376853D01*
X189081898Y-108493147D01*
X189176853Y-108588102D01*
X189293147Y-108655245D01*
X189352425Y-108671128D01*
X188620893Y-109402658D01*
X188703828Y-109462914D01*
X188914197Y-109570102D01*
X189138752Y-109643065D01*
X189138751Y-109643065D01*
X189371948Y-109680000D01*
X189608052Y-109680000D01*
X189841247Y-109643065D01*
X190065802Y-109570102D01*
X190276163Y-109462918D01*
X190276169Y-109462914D01*
X190359104Y-109402658D01*
X190359105Y-109402658D01*
X189627574Y-108671128D01*
X189686853Y-108655245D01*
X189803147Y-108588102D01*
X189898102Y-108493147D01*
X189965245Y-108376853D01*
X189981128Y-108317575D01*
X190712658Y-109049105D01*
X190712658Y-109049104D01*
X190772914Y-108966169D01*
X190772918Y-108966163D01*
X190880102Y-108755802D01*
X190953065Y-108531247D01*
X190990000Y-108298052D01*
X190990000Y-108061947D01*
X190953065Y-107828752D01*
X190880102Y-107604197D01*
X190772914Y-107393828D01*
X190712658Y-107310894D01*
X190712658Y-107310893D01*
X189981128Y-108042424D01*
X189965245Y-107983147D01*
X189898102Y-107866853D01*
X189803147Y-107771898D01*
X189686853Y-107704755D01*
X189627574Y-107688871D01*
X190359105Y-106957340D01*
X190359104Y-106957338D01*
X190276174Y-106897087D01*
X190065802Y-106789897D01*
X189841247Y-106716934D01*
X189841248Y-106716934D01*
X189608052Y-106680000D01*
X189371948Y-106680000D01*
X189138752Y-106716934D01*
X188914197Y-106789897D01*
X188703830Y-106897084D01*
X188620894Y-106957340D01*
X189352425Y-107688871D01*
X189293147Y-107704755D01*
X189176853Y-107771898D01*
X189081898Y-107866853D01*
X189014755Y-107983147D01*
X188998871Y-108042425D01*
X188267340Y-107310894D01*
X188207084Y-107393830D01*
X188099897Y-107604197D01*
X188026934Y-107828752D01*
X187990000Y-108061947D01*
X186109632Y-108061947D01*
X186081404Y-107847537D01*
X186023710Y-107632219D01*
X185938405Y-107426274D01*
X185826948Y-107233226D01*
X185809740Y-107210801D01*
X185709440Y-107080085D01*
X185691248Y-107056377D01*
X185691242Y-107056370D01*
X185533629Y-106898757D01*
X185533622Y-106898751D01*
X185356782Y-106763058D01*
X185356780Y-106763057D01*
X185356774Y-106763052D01*
X185163726Y-106651595D01*
X185163722Y-106651593D01*
X184957790Y-106566293D01*
X184957783Y-106566291D01*
X184957781Y-106566290D01*
X184742463Y-106508596D01*
X184742457Y-106508595D01*
X184742452Y-106508594D01*
X184521466Y-106479501D01*
X184521463Y-106479500D01*
X184521457Y-106479500D01*
X184298543Y-106479500D01*
X184298537Y-106479500D01*
X184298533Y-106479501D01*
X184077547Y-106508594D01*
X184077540Y-106508595D01*
X184077537Y-106508596D01*
X183862219Y-106566290D01*
X183862209Y-106566293D01*
X183656277Y-106651593D01*
X183656273Y-106651595D01*
X183463226Y-106763052D01*
X183463217Y-106763058D01*
X183286377Y-106898751D01*
X183286371Y-106898756D01*
X183241949Y-106943180D01*
X183180626Y-106976666D01*
X183154267Y-106979500D01*
X179098626Y-106979500D01*
X179031587Y-106959815D01*
X179010945Y-106943181D01*
X176206819Y-104139055D01*
X176194171Y-104115892D01*
X176178344Y-104094775D01*
X176176218Y-104083014D01*
X176173334Y-104077732D01*
X176170821Y-104060292D01*
X176170500Y-104055840D01*
X176170500Y-103988543D01*
X176158652Y-103898549D01*
X178089500Y-103898549D01*
X178089500Y-104121450D01*
X178089501Y-104121466D01*
X178118594Y-104342452D01*
X178118595Y-104342457D01*
X178118596Y-104342463D01*
X178162893Y-104507781D01*
X178176290Y-104557780D01*
X178176293Y-104557790D01*
X178261593Y-104763722D01*
X178261595Y-104763726D01*
X178373052Y-104956774D01*
X178373057Y-104956780D01*
X178373058Y-104956782D01*
X178508751Y-105133622D01*
X178508757Y-105133629D01*
X178666370Y-105291242D01*
X178666376Y-105291247D01*
X178843226Y-105426948D01*
X179036274Y-105538405D01*
X179242219Y-105623710D01*
X179457537Y-105681404D01*
X179678543Y-105710500D01*
X179678550Y-105710500D01*
X179901450Y-105710500D01*
X179901457Y-105710500D01*
X180122463Y-105681404D01*
X180337781Y-105623710D01*
X180543726Y-105538405D01*
X180736774Y-105426948D01*
X180913624Y-105291247D01*
X180958051Y-105246820D01*
X181019374Y-105213334D01*
X181045733Y-105210500D01*
X183294267Y-105210500D01*
X183361306Y-105230185D01*
X183381949Y-105246820D01*
X183426371Y-105291243D01*
X183426376Y-105291247D01*
X183603226Y-105426948D01*
X183796274Y-105538405D01*
X184002219Y-105623710D01*
X184217537Y-105681404D01*
X184438543Y-105710500D01*
X184438550Y-105710500D01*
X184661450Y-105710500D01*
X184661457Y-105710500D01*
X184882463Y-105681404D01*
X185097781Y-105623710D01*
X185303726Y-105538405D01*
X185496774Y-105426948D01*
X185673624Y-105291247D01*
X185831247Y-105133624D01*
X185966948Y-104956774D01*
X186078405Y-104763726D01*
X186163710Y-104557781D01*
X186221404Y-104342463D01*
X186250500Y-104121457D01*
X186250500Y-103898543D01*
X186243918Y-103848549D01*
X187649500Y-103848549D01*
X187649500Y-104071450D01*
X187649501Y-104071466D01*
X187678594Y-104292452D01*
X187678595Y-104292457D01*
X187678596Y-104292463D01*
X187691994Y-104342465D01*
X187736290Y-104507780D01*
X187736293Y-104507790D01*
X187805140Y-104674000D01*
X187821595Y-104713726D01*
X187933052Y-104906774D01*
X187933057Y-104906780D01*
X187933058Y-104906782D01*
X188068751Y-105083622D01*
X188068757Y-105083629D01*
X188226370Y-105241242D01*
X188226377Y-105241248D01*
X188329251Y-105320185D01*
X188403226Y-105376948D01*
X188596274Y-105488405D01*
X188802219Y-105573710D01*
X189017537Y-105631404D01*
X189238543Y-105660500D01*
X189238550Y-105660500D01*
X189461450Y-105660500D01*
X189461457Y-105660500D01*
X189682463Y-105631404D01*
X189897781Y-105573710D01*
X190103726Y-105488405D01*
X190296774Y-105376948D01*
X190473624Y-105241247D01*
X190518051Y-105196820D01*
X190544979Y-105182115D01*
X190570798Y-105165523D01*
X190576997Y-105164631D01*
X190579374Y-105163334D01*
X190605733Y-105160500D01*
X190791374Y-105160500D01*
X190858413Y-105180185D01*
X190879055Y-105196819D01*
X197408338Y-111726102D01*
X197441823Y-111787425D01*
X197436839Y-111857117D01*
X197394967Y-111913050D01*
X197361186Y-111929817D01*
X197361432Y-111930432D01*
X197355595Y-111932763D01*
X197184250Y-112022266D01*
X197184248Y-112022267D01*
X197184247Y-112022268D01*
X197034428Y-112144428D01*
X196912268Y-112294247D01*
X196912266Y-112294250D01*
X196881483Y-112353181D01*
X196822762Y-112465597D01*
X196769582Y-112651452D01*
X196759500Y-112764864D01*
X196759500Y-114775128D01*
X196759501Y-114775136D01*
X196769582Y-114888546D01*
X196769582Y-114888548D01*
X196769583Y-114888551D01*
X196822763Y-115074405D01*
X196912266Y-115245750D01*
X196912268Y-115245752D01*
X197034428Y-115395571D01*
X197123648Y-115468319D01*
X197184250Y-115517734D01*
X197355595Y-115607237D01*
X197541449Y-115660417D01*
X197604152Y-115665991D01*
X197669184Y-115691534D01*
X197710083Y-115748182D01*
X197713864Y-115817950D01*
X197679326Y-115878686D01*
X197668658Y-115887879D01*
X197647595Y-115904041D01*
X197647595Y-115904042D01*
X198448941Y-116705387D01*
X198428409Y-116710889D01*
X198291592Y-116789881D01*
X198179881Y-116901592D01*
X198100889Y-117038409D01*
X198095387Y-117058940D01*
X197294042Y-116257595D01*
X197243462Y-116323511D01*
X197132054Y-116516479D01*
X197132045Y-116516497D01*
X197046763Y-116722381D01*
X196989088Y-116937632D01*
X196989085Y-116937645D01*
X196960000Y-117158575D01*
X196960000Y-117381424D01*
X196989085Y-117602354D01*
X196989088Y-117602367D01*
X197046763Y-117817618D01*
X197132045Y-118023502D01*
X197132054Y-118023520D01*
X197243464Y-118216491D01*
X197243473Y-118216504D01*
X197294040Y-118282403D01*
X197294043Y-118282403D01*
X198095387Y-117481059D01*
X198100889Y-117501591D01*
X198179881Y-117638408D01*
X198291592Y-117750119D01*
X198428409Y-117829111D01*
X198448940Y-117834612D01*
X197647595Y-118635955D01*
X197647595Y-118635956D01*
X197713507Y-118686533D01*
X197906485Y-118797949D01*
X197906497Y-118797954D01*
X198112381Y-118883236D01*
X198327632Y-118940911D01*
X198327645Y-118940914D01*
X198548575Y-118970000D01*
X198771425Y-118970000D01*
X198992354Y-118940914D01*
X198992367Y-118940911D01*
X199207618Y-118883236D01*
X199413502Y-118797954D01*
X199413514Y-118797949D01*
X199606498Y-118686530D01*
X199672403Y-118635957D01*
X199672404Y-118635956D01*
X198871059Y-117834612D01*
X198891591Y-117829111D01*
X199028408Y-117750119D01*
X199140119Y-117638408D01*
X199219111Y-117501591D01*
X199224612Y-117481059D01*
X200025956Y-118282404D01*
X200025957Y-118282403D01*
X200076530Y-118216498D01*
X200187949Y-118023514D01*
X200187954Y-118023502D01*
X200273236Y-117817618D01*
X200330911Y-117602367D01*
X200330914Y-117602354D01*
X200360000Y-117381424D01*
X200360000Y-117158575D01*
X200330914Y-116937645D01*
X200330911Y-116937632D01*
X200273236Y-116722381D01*
X200187954Y-116516497D01*
X200187949Y-116516485D01*
X200076533Y-116323507D01*
X200025956Y-116257595D01*
X200025955Y-116257595D01*
X199224612Y-117058939D01*
X199219111Y-117038409D01*
X199140119Y-116901592D01*
X199028408Y-116789881D01*
X198891591Y-116710889D01*
X198871058Y-116705387D01*
X199672403Y-115904043D01*
X199672403Y-115904040D01*
X199651339Y-115887877D01*
X199610137Y-115831449D01*
X199605984Y-115761703D01*
X199640197Y-115700783D01*
X199701915Y-115668031D01*
X199715833Y-115665992D01*
X199778551Y-115660417D01*
X199964405Y-115607237D01*
X200135750Y-115517734D01*
X200285571Y-115395571D01*
X200407734Y-115245750D01*
X200497237Y-115074405D01*
X200550417Y-114888551D01*
X200560500Y-114775137D01*
X200560499Y-112764864D01*
X200550417Y-112651449D01*
X200497237Y-112465595D01*
X200407734Y-112294250D01*
X200311982Y-112176819D01*
X200285571Y-112144428D01*
X200135752Y-112022268D01*
X200135753Y-112022268D01*
X200135750Y-112022266D01*
X199964405Y-111932763D01*
X199964401Y-111932761D01*
X199964399Y-111932761D01*
X199950383Y-111928750D01*
X199891347Y-111891380D01*
X199861886Y-111828025D01*
X199860500Y-111809536D01*
X199860500Y-111185513D01*
X199830940Y-110998881D01*
X199792573Y-110880801D01*
X199772547Y-110819168D01*
X199772545Y-110819165D01*
X199772545Y-110819163D01*
X199686759Y-110650800D01*
X199665194Y-110621118D01*
X199645717Y-110594310D01*
X199575690Y-110497926D01*
X192122074Y-103044310D01*
X191969199Y-102933240D01*
X191800836Y-102847454D01*
X191621118Y-102789059D01*
X191434486Y-102759500D01*
X191434481Y-102759500D01*
X190605733Y-102759500D01*
X190538694Y-102739815D01*
X190518051Y-102723180D01*
X190473628Y-102678756D01*
X190473622Y-102678751D01*
X190296782Y-102543058D01*
X190296780Y-102543057D01*
X190296774Y-102543052D01*
X190103726Y-102431595D01*
X190103722Y-102431593D01*
X189897790Y-102346293D01*
X189897783Y-102346291D01*
X189897781Y-102346290D01*
X189682463Y-102288596D01*
X189682457Y-102288595D01*
X189682452Y-102288594D01*
X189461466Y-102259501D01*
X189461463Y-102259500D01*
X189461457Y-102259500D01*
X189238543Y-102259500D01*
X189238537Y-102259500D01*
X189238533Y-102259501D01*
X189017547Y-102288594D01*
X189017540Y-102288595D01*
X189017537Y-102288596D01*
X188830941Y-102338594D01*
X188802219Y-102346290D01*
X188802209Y-102346293D01*
X188596277Y-102431593D01*
X188596273Y-102431595D01*
X188403226Y-102543052D01*
X188403217Y-102543058D01*
X188226377Y-102678751D01*
X188226370Y-102678757D01*
X188068757Y-102836370D01*
X188068751Y-102836377D01*
X187933058Y-103013217D01*
X187933052Y-103013226D01*
X187821595Y-103206273D01*
X187821593Y-103206277D01*
X187736293Y-103412209D01*
X187736290Y-103412219D01*
X187695235Y-103565441D01*
X187678597Y-103627534D01*
X187678594Y-103627547D01*
X187649501Y-103848533D01*
X187649500Y-103848549D01*
X186243918Y-103848549D01*
X186243917Y-103848543D01*
X186221405Y-103677547D01*
X186221404Y-103677537D01*
X186163710Y-103462219D01*
X186143561Y-103413576D01*
X186078406Y-103256277D01*
X186078405Y-103256274D01*
X185966948Y-103063226D01*
X185867207Y-102933240D01*
X185831248Y-102886377D01*
X185831242Y-102886370D01*
X185673629Y-102728757D01*
X185673622Y-102728751D01*
X185496782Y-102593058D01*
X185496780Y-102593057D01*
X185496774Y-102593052D01*
X185303726Y-102481595D01*
X185303722Y-102481593D01*
X185097790Y-102396293D01*
X185097783Y-102396291D01*
X185097781Y-102396290D01*
X184882463Y-102338596D01*
X184882457Y-102338595D01*
X184882452Y-102338594D01*
X184661466Y-102309501D01*
X184661463Y-102309500D01*
X184661457Y-102309500D01*
X184438543Y-102309500D01*
X184438537Y-102309500D01*
X184438533Y-102309501D01*
X184217547Y-102338594D01*
X184217540Y-102338595D01*
X184217537Y-102338596D01*
X184022171Y-102390944D01*
X184002219Y-102396290D01*
X184002209Y-102396293D01*
X183796277Y-102481593D01*
X183796273Y-102481595D01*
X183603226Y-102593052D01*
X183603217Y-102593058D01*
X183426377Y-102728751D01*
X183426371Y-102728756D01*
X183381949Y-102773180D01*
X183320626Y-102806666D01*
X183294267Y-102809500D01*
X181045733Y-102809500D01*
X180978694Y-102789815D01*
X180958051Y-102773180D01*
X180913628Y-102728756D01*
X180913622Y-102728751D01*
X180736782Y-102593058D01*
X180736780Y-102593057D01*
X180736774Y-102593052D01*
X180543726Y-102481595D01*
X180543722Y-102481593D01*
X180337790Y-102396293D01*
X180337783Y-102396291D01*
X180337781Y-102396290D01*
X180122463Y-102338596D01*
X180122457Y-102338595D01*
X180122452Y-102338594D01*
X179901466Y-102309501D01*
X179901463Y-102309500D01*
X179901457Y-102309500D01*
X179678543Y-102309500D01*
X179678537Y-102309500D01*
X179678533Y-102309501D01*
X179457547Y-102338594D01*
X179457540Y-102338595D01*
X179457537Y-102338596D01*
X179262171Y-102390944D01*
X179242219Y-102396290D01*
X179242209Y-102396293D01*
X179036277Y-102481593D01*
X179036273Y-102481595D01*
X178843226Y-102593052D01*
X178843217Y-102593058D01*
X178666377Y-102728751D01*
X178666370Y-102728757D01*
X178508757Y-102886370D01*
X178508751Y-102886377D01*
X178373058Y-103063217D01*
X178373052Y-103063226D01*
X178261595Y-103256273D01*
X178261593Y-103256277D01*
X178176293Y-103462209D01*
X178176290Y-103462219D01*
X178131994Y-103627537D01*
X178118597Y-103677534D01*
X178118594Y-103677547D01*
X178089501Y-103898533D01*
X178089500Y-103898549D01*
X176158652Y-103898549D01*
X176141404Y-103767537D01*
X176083710Y-103552219D01*
X175998405Y-103346274D01*
X175886948Y-103153226D01*
X175751247Y-102976376D01*
X175751242Y-102976370D01*
X175593629Y-102818757D01*
X175593622Y-102818751D01*
X175416782Y-102683058D01*
X175416780Y-102683057D01*
X175416774Y-102683052D01*
X175223726Y-102571595D01*
X175223722Y-102571593D01*
X175017790Y-102486293D01*
X175017783Y-102486291D01*
X175017781Y-102486290D01*
X174802463Y-102428596D01*
X174802457Y-102428595D01*
X174802452Y-102428594D01*
X174581466Y-102399501D01*
X174581463Y-102399500D01*
X174581457Y-102399500D01*
X174358543Y-102399500D01*
X174358537Y-102399500D01*
X174358533Y-102399501D01*
X174137547Y-102428594D01*
X174137540Y-102428595D01*
X174137537Y-102428596D01*
X173950825Y-102478625D01*
X173922219Y-102486290D01*
X173922209Y-102486293D01*
X173716277Y-102571593D01*
X173716273Y-102571595D01*
X173523226Y-102683052D01*
X173523217Y-102683058D01*
X173346377Y-102818751D01*
X173346371Y-102818756D01*
X173301949Y-102863180D01*
X173275020Y-102877884D01*
X173249202Y-102894477D01*
X173243002Y-102895368D01*
X173240626Y-102896666D01*
X173214267Y-102899500D01*
X173048626Y-102899500D01*
X172981587Y-102879815D01*
X172960945Y-102863181D01*
X170092076Y-99994312D01*
X170092074Y-99994310D01*
X169939199Y-99883240D01*
X169770836Y-99797454D01*
X169591118Y-99739059D01*
X169404486Y-99709500D01*
X169404481Y-99709500D01*
X152884482Y-99709500D01*
X152695519Y-99709500D01*
X152695514Y-99709500D01*
X152508881Y-99739059D01*
X152329163Y-99797454D01*
X152160800Y-99883240D01*
X152082678Y-99940000D01*
X152007927Y-99994310D01*
X152007925Y-99994312D01*
X152007924Y-99994312D01*
X150854312Y-101147923D01*
X150743240Y-101300800D01*
X150657454Y-101469163D01*
X150599059Y-101648881D01*
X150569500Y-101835513D01*
X150569500Y-103283933D01*
X150549815Y-103350972D01*
X150497011Y-103396727D01*
X150427853Y-103406671D01*
X150370014Y-103382309D01*
X150206783Y-103257058D01*
X150206777Y-103257054D01*
X150206774Y-103257052D01*
X150013726Y-103145595D01*
X150013722Y-103145593D01*
X149807790Y-103060293D01*
X149807783Y-103060291D01*
X149807781Y-103060290D01*
X149592463Y-103002596D01*
X149592457Y-103002595D01*
X149592452Y-103002594D01*
X149371466Y-102973501D01*
X149371463Y-102973500D01*
X149371457Y-102973500D01*
X149148543Y-102973500D01*
X149148537Y-102973500D01*
X149148533Y-102973501D01*
X148927547Y-103002594D01*
X148927540Y-103002595D01*
X148927537Y-103002596D01*
X148771850Y-103044312D01*
X148712219Y-103060290D01*
X148712209Y-103060293D01*
X148506277Y-103145593D01*
X148506273Y-103145595D01*
X148313226Y-103257052D01*
X148313217Y-103257058D01*
X148136377Y-103392751D01*
X148136370Y-103392757D01*
X148077681Y-103451447D01*
X148016358Y-103484932D01*
X147946666Y-103479948D01*
X147902319Y-103451447D01*
X147843629Y-103392757D01*
X147843622Y-103392751D01*
X147666782Y-103257058D01*
X147666780Y-103257057D01*
X147666774Y-103257052D01*
X147473726Y-103145595D01*
X147473722Y-103145593D01*
X147267790Y-103060293D01*
X147267783Y-103060291D01*
X147267781Y-103060290D01*
X147052463Y-103002596D01*
X147052457Y-103002595D01*
X147052452Y-103002594D01*
X146831466Y-102973501D01*
X146831463Y-102973500D01*
X146831457Y-102973500D01*
X146608543Y-102973500D01*
X146608537Y-102973500D01*
X146608533Y-102973501D01*
X146387547Y-103002594D01*
X146387540Y-103002595D01*
X146387537Y-103002596D01*
X146231850Y-103044312D01*
X146172219Y-103060290D01*
X146172209Y-103060293D01*
X145966277Y-103145593D01*
X145966273Y-103145595D01*
X145773226Y-103257052D01*
X145773217Y-103257058D01*
X145596377Y-103392751D01*
X145596370Y-103392757D01*
X145537681Y-103451447D01*
X145476358Y-103484932D01*
X145406666Y-103479948D01*
X145362319Y-103451447D01*
X145303629Y-103392757D01*
X145303622Y-103392751D01*
X145126782Y-103257058D01*
X145126780Y-103257057D01*
X145126774Y-103257052D01*
X144933726Y-103145595D01*
X144933722Y-103145593D01*
X144727790Y-103060293D01*
X144727783Y-103060291D01*
X144727781Y-103060290D01*
X144512463Y-103002596D01*
X144512457Y-103002595D01*
X144512452Y-103002594D01*
X144291466Y-102973501D01*
X144291463Y-102973500D01*
X144291457Y-102973500D01*
X144068543Y-102973500D01*
X144068537Y-102973500D01*
X144068533Y-102973501D01*
X143847547Y-103002594D01*
X143847540Y-103002595D01*
X143847537Y-103002596D01*
X143691850Y-103044312D01*
X143632219Y-103060290D01*
X143632209Y-103060293D01*
X143426277Y-103145593D01*
X143426273Y-103145595D01*
X143233226Y-103257052D01*
X143233217Y-103257058D01*
X143056377Y-103392751D01*
X143056370Y-103392757D01*
X142898757Y-103550370D01*
X142898751Y-103550377D01*
X142763058Y-103727217D01*
X142763052Y-103727226D01*
X142651595Y-103920273D01*
X142651593Y-103920277D01*
X142566293Y-104126209D01*
X142566290Y-104126219D01*
X142519135Y-104302207D01*
X142508597Y-104341534D01*
X142508594Y-104341547D01*
X142479501Y-104562533D01*
X142479500Y-104562549D01*
X136800500Y-104562549D01*
X136800500Y-100438625D01*
X136820185Y-100371586D01*
X136836819Y-100350944D01*
X138279214Y-98908549D01*
X172769500Y-98908549D01*
X172769500Y-99131450D01*
X172769501Y-99131466D01*
X172798594Y-99352452D01*
X172798595Y-99352457D01*
X172798596Y-99352463D01*
X172832175Y-99477781D01*
X172856290Y-99567780D01*
X172856293Y-99567790D01*
X172927235Y-99739059D01*
X172941595Y-99773726D01*
X173053052Y-99966774D01*
X173053057Y-99966780D01*
X173053058Y-99966782D01*
X173188751Y-100143622D01*
X173188757Y-100143629D01*
X173346370Y-100301242D01*
X173346376Y-100301247D01*
X173523226Y-100436948D01*
X173716274Y-100548405D01*
X173844220Y-100601402D01*
X173914464Y-100630498D01*
X173922219Y-100633710D01*
X174137537Y-100691404D01*
X174358543Y-100720500D01*
X174358550Y-100720500D01*
X174581450Y-100720500D01*
X174581457Y-100720500D01*
X174802463Y-100691404D01*
X175017781Y-100633710D01*
X175223726Y-100548405D01*
X175416774Y-100436948D01*
X175593624Y-100301247D01*
X175638051Y-100256820D01*
X175699374Y-100223334D01*
X175725733Y-100220500D01*
X178636343Y-100220500D01*
X178703382Y-100240185D01*
X178711829Y-100246124D01*
X178843226Y-100346948D01*
X179036274Y-100458405D01*
X179242219Y-100543710D01*
X179457537Y-100601404D01*
X179678543Y-100630500D01*
X179678550Y-100630500D01*
X179901450Y-100630500D01*
X179901457Y-100630500D01*
X180122463Y-100601404D01*
X180337781Y-100543710D01*
X180543726Y-100458405D01*
X180736774Y-100346948D01*
X180913624Y-100211247D01*
X181071247Y-100053624D01*
X181206948Y-99876774D01*
X181318405Y-99683726D01*
X181403710Y-99477781D01*
X181461404Y-99262463D01*
X181490500Y-99041457D01*
X181490500Y-98818549D01*
X182849500Y-98818549D01*
X182849500Y-99041450D01*
X182849501Y-99041466D01*
X182878594Y-99262452D01*
X182878595Y-99262457D01*
X182878596Y-99262463D01*
X182936290Y-99477780D01*
X182936293Y-99477790D01*
X183000884Y-99633726D01*
X183021595Y-99683726D01*
X183133052Y-99876774D01*
X183133057Y-99876780D01*
X183133058Y-99876782D01*
X183268751Y-100053622D01*
X183268757Y-100053629D01*
X183426370Y-100211242D01*
X183426376Y-100211247D01*
X183603226Y-100346948D01*
X183796274Y-100458405D01*
X184002219Y-100543710D01*
X184217537Y-100601404D01*
X184438543Y-100630500D01*
X184438550Y-100630500D01*
X184661450Y-100630500D01*
X184661457Y-100630500D01*
X184882463Y-100601404D01*
X185097781Y-100543710D01*
X185303726Y-100458405D01*
X185496774Y-100346948D01*
X185673624Y-100211247D01*
X185718051Y-100166820D01*
X185779374Y-100133334D01*
X185805733Y-100130500D01*
X188144645Y-100130500D01*
X188211684Y-100150185D01*
X188223131Y-100158806D01*
X188223155Y-100158776D01*
X188376749Y-100276632D01*
X188403226Y-100296948D01*
X188596274Y-100408405D01*
X188802219Y-100493710D01*
X189017537Y-100551404D01*
X189238543Y-100580500D01*
X189238550Y-100580500D01*
X189461450Y-100580500D01*
X189461457Y-100580500D01*
X189682463Y-100551404D01*
X189897781Y-100493710D01*
X190103726Y-100408405D01*
X190296774Y-100296948D01*
X190473624Y-100161247D01*
X190631247Y-100003624D01*
X190766948Y-99826774D01*
X190878405Y-99633726D01*
X190963710Y-99427781D01*
X191021404Y-99212463D01*
X191050500Y-98991457D01*
X191050500Y-98768543D01*
X191021404Y-98547537D01*
X190963710Y-98332219D01*
X190878405Y-98126274D01*
X190766948Y-97933226D01*
X190727867Y-97882294D01*
X190631248Y-97756377D01*
X190631242Y-97756370D01*
X190473629Y-97598757D01*
X190473622Y-97598751D01*
X190296782Y-97463058D01*
X190296780Y-97463057D01*
X190296774Y-97463052D01*
X190103726Y-97351595D01*
X190103722Y-97351593D01*
X189897790Y-97266293D01*
X189897783Y-97266291D01*
X189897781Y-97266290D01*
X189682463Y-97208596D01*
X189682457Y-97208595D01*
X189682452Y-97208594D01*
X189461466Y-97179501D01*
X189461463Y-97179500D01*
X189461457Y-97179500D01*
X189238543Y-97179500D01*
X189238537Y-97179500D01*
X189238533Y-97179501D01*
X189017547Y-97208594D01*
X189017540Y-97208595D01*
X189017537Y-97208596D01*
X188830941Y-97258594D01*
X188802219Y-97266290D01*
X188802209Y-97266293D01*
X188596277Y-97351593D01*
X188596273Y-97351595D01*
X188403226Y-97463052D01*
X188403217Y-97463058D01*
X188226378Y-97598750D01*
X188179163Y-97645965D01*
X188131946Y-97693182D01*
X188070626Y-97726666D01*
X188044267Y-97729500D01*
X185805733Y-97729500D01*
X185738694Y-97709815D01*
X185718051Y-97693180D01*
X185673628Y-97648756D01*
X185673622Y-97648751D01*
X185496782Y-97513058D01*
X185496780Y-97513057D01*
X185496774Y-97513052D01*
X185303726Y-97401595D01*
X185303722Y-97401593D01*
X185097790Y-97316293D01*
X185097783Y-97316291D01*
X185097781Y-97316290D01*
X184882463Y-97258596D01*
X184882457Y-97258595D01*
X184882452Y-97258594D01*
X184661466Y-97229501D01*
X184661463Y-97229500D01*
X184661457Y-97229500D01*
X184438543Y-97229500D01*
X184438537Y-97229500D01*
X184438533Y-97229501D01*
X184217547Y-97258594D01*
X184217540Y-97258595D01*
X184217537Y-97258596D01*
X184002219Y-97316290D01*
X184002209Y-97316293D01*
X183796277Y-97401593D01*
X183796273Y-97401595D01*
X183603226Y-97513052D01*
X183603217Y-97513058D01*
X183426377Y-97648751D01*
X183426370Y-97648757D01*
X183268757Y-97806370D01*
X183268751Y-97806377D01*
X183133058Y-97983217D01*
X183133052Y-97983226D01*
X183021595Y-98176273D01*
X183021593Y-98176277D01*
X182936293Y-98382209D01*
X182936290Y-98382219D01*
X182889822Y-98555643D01*
X182878597Y-98597534D01*
X182878594Y-98597547D01*
X182849501Y-98818533D01*
X182849500Y-98818549D01*
X181490500Y-98818549D01*
X181490500Y-98818543D01*
X181461404Y-98597537D01*
X181403710Y-98382219D01*
X181318405Y-98176274D01*
X181206948Y-97983226D01*
X181140301Y-97896370D01*
X181071248Y-97806377D01*
X181071242Y-97806370D01*
X180913629Y-97648757D01*
X180913622Y-97648751D01*
X180736782Y-97513058D01*
X180736780Y-97513057D01*
X180736774Y-97513052D01*
X180543726Y-97401595D01*
X180543722Y-97401593D01*
X180337790Y-97316293D01*
X180337783Y-97316291D01*
X180337781Y-97316290D01*
X180122463Y-97258596D01*
X180122457Y-97258595D01*
X180122452Y-97258594D01*
X179901466Y-97229501D01*
X179901463Y-97229500D01*
X179901457Y-97229500D01*
X179678543Y-97229500D01*
X179678537Y-97229500D01*
X179678533Y-97229501D01*
X179457547Y-97258594D01*
X179457540Y-97258595D01*
X179457537Y-97258596D01*
X179242219Y-97316290D01*
X179242209Y-97316293D01*
X179036277Y-97401593D01*
X179036273Y-97401595D01*
X178843226Y-97513052D01*
X178843217Y-97513058D01*
X178666378Y-97648750D01*
X178621949Y-97693180D01*
X178531946Y-97783182D01*
X178470626Y-97816666D01*
X178444267Y-97819500D01*
X175725733Y-97819500D01*
X175658694Y-97799815D01*
X175638051Y-97783180D01*
X175593628Y-97738756D01*
X175593622Y-97738751D01*
X175416782Y-97603058D01*
X175416780Y-97603057D01*
X175416774Y-97603052D01*
X175223726Y-97491595D01*
X175223722Y-97491593D01*
X175017790Y-97406293D01*
X175017783Y-97406291D01*
X175017781Y-97406290D01*
X174802463Y-97348596D01*
X174802457Y-97348595D01*
X174802452Y-97348594D01*
X174581466Y-97319501D01*
X174581463Y-97319500D01*
X174581457Y-97319500D01*
X174358543Y-97319500D01*
X174358537Y-97319500D01*
X174358533Y-97319501D01*
X174137547Y-97348594D01*
X174137540Y-97348595D01*
X174137537Y-97348596D01*
X174126345Y-97351595D01*
X173922219Y-97406290D01*
X173922209Y-97406293D01*
X173716277Y-97491593D01*
X173716273Y-97491595D01*
X173523226Y-97603052D01*
X173523217Y-97603058D01*
X173346377Y-97738751D01*
X173346370Y-97738757D01*
X173188757Y-97896370D01*
X173188751Y-97896377D01*
X173053058Y-98073217D01*
X173053052Y-98073226D01*
X172941595Y-98266273D01*
X172941593Y-98266277D01*
X172856293Y-98472209D01*
X172856290Y-98472219D01*
X172798597Y-98687534D01*
X172798594Y-98687547D01*
X172769501Y-98908533D01*
X172769500Y-98908549D01*
X138279214Y-98908549D01*
X142390944Y-94796819D01*
X142417871Y-94782115D01*
X142443690Y-94765523D01*
X142449890Y-94764631D01*
X142452267Y-94763334D01*
X142478625Y-94760500D01*
X142494267Y-94760500D01*
X142561306Y-94780185D01*
X142581949Y-94796820D01*
X142626371Y-94841243D01*
X142626376Y-94841247D01*
X142803226Y-94976948D01*
X142996274Y-95088405D01*
X142996277Y-95088406D01*
X142996282Y-95088409D01*
X143126101Y-95142181D01*
X143136827Y-95146624D01*
X143136830Y-95146625D01*
X143177059Y-95173505D01*
X143612425Y-95608871D01*
X143553147Y-95624755D01*
X143436853Y-95691898D01*
X143341898Y-95786853D01*
X143274755Y-95903147D01*
X143258871Y-95962425D01*
X142527340Y-95230894D01*
X142467084Y-95313830D01*
X142359897Y-95524197D01*
X142286934Y-95748752D01*
X142250000Y-95981947D01*
X142250000Y-96218052D01*
X142286934Y-96451247D01*
X142359897Y-96675802D01*
X142467087Y-96886174D01*
X142527338Y-96969104D01*
X142527340Y-96969105D01*
X143258871Y-96237574D01*
X143274755Y-96296853D01*
X143341898Y-96413147D01*
X143436853Y-96508102D01*
X143553147Y-96575245D01*
X143612425Y-96591128D01*
X142880893Y-97322658D01*
X142963828Y-97382914D01*
X143174197Y-97490102D01*
X143398752Y-97563065D01*
X143398751Y-97563065D01*
X143631948Y-97600000D01*
X143868052Y-97600000D01*
X144101247Y-97563065D01*
X144325802Y-97490102D01*
X144536163Y-97382918D01*
X144536169Y-97382914D01*
X144619104Y-97322658D01*
X144619105Y-97322658D01*
X143887574Y-96591128D01*
X143946853Y-96575245D01*
X144063147Y-96508102D01*
X144158102Y-96413147D01*
X144225245Y-96296853D01*
X144241128Y-96237575D01*
X144972658Y-96969105D01*
X144972658Y-96969104D01*
X145032914Y-96886169D01*
X145032918Y-96886163D01*
X145140102Y-96675802D01*
X145213065Y-96451247D01*
X145250000Y-96218052D01*
X145250000Y-95981947D01*
X145213065Y-95748752D01*
X145140102Y-95524197D01*
X145032914Y-95313828D01*
X144972658Y-95230894D01*
X144972658Y-95230893D01*
X144241128Y-95962424D01*
X144225245Y-95903147D01*
X144158102Y-95786853D01*
X144063147Y-95691898D01*
X143946853Y-95624755D01*
X143887574Y-95608871D01*
X144322939Y-95173505D01*
X144363160Y-95146628D01*
X144503726Y-95088405D01*
X144696774Y-94976948D01*
X144873624Y-94841247D01*
X145031247Y-94683624D01*
X145166948Y-94506774D01*
X145278405Y-94313726D01*
X145363710Y-94107781D01*
X145421404Y-93892463D01*
X145450500Y-93671457D01*
X145450500Y-93448543D01*
X145421404Y-93227537D01*
X145363710Y-93012219D01*
X145360902Y-93005441D01*
X145278406Y-92806277D01*
X145278405Y-92806274D01*
X145166948Y-92613226D01*
X145031247Y-92436376D01*
X145031242Y-92436370D01*
X145027053Y-92432181D01*
X144993568Y-92370858D01*
X144998552Y-92301166D01*
X145040424Y-92245233D01*
X145105888Y-92220816D01*
X145114734Y-92220500D01*
X145741504Y-92220500D01*
X145808543Y-92240185D01*
X145816990Y-92246124D01*
X145883226Y-92296948D01*
X146076274Y-92408405D01*
X146282219Y-92493710D01*
X146497537Y-92551404D01*
X146718543Y-92580500D01*
X146718550Y-92580500D01*
X146941450Y-92580500D01*
X146941457Y-92580500D01*
X147162463Y-92551404D01*
X147377781Y-92493710D01*
X147583726Y-92408405D01*
X147776774Y-92296948D01*
X147953624Y-92161247D01*
X148111247Y-92003624D01*
X148246948Y-91826774D01*
X148358405Y-91633726D01*
X148443710Y-91427781D01*
X148501404Y-91212463D01*
X148530500Y-90991457D01*
X148530500Y-90768543D01*
X148501404Y-90547537D01*
X148443710Y-90332219D01*
X148358405Y-90126274D01*
X148246948Y-89933226D01*
X148164129Y-89825293D01*
X148111248Y-89756377D01*
X148111242Y-89756370D01*
X147953629Y-89598757D01*
X147953622Y-89598751D01*
X147867595Y-89532741D01*
X147776782Y-89463058D01*
X147776780Y-89463057D01*
X147776774Y-89463052D01*
X147732541Y-89437514D01*
X176470000Y-89437514D01*
X176470000Y-90187500D01*
X177621518Y-90187500D01*
X177610889Y-90205909D01*
X177570000Y-90358509D01*
X177570000Y-90516491D01*
X177610889Y-90669091D01*
X177621518Y-90687500D01*
X176470000Y-90687500D01*
X176470000Y-91437485D01*
X176480493Y-91540189D01*
X176480494Y-91540196D01*
X176535641Y-91706618D01*
X176535643Y-91706623D01*
X176627684Y-91855844D01*
X176751655Y-91979815D01*
X176900876Y-92071856D01*
X176900881Y-92071858D01*
X177067303Y-92127005D01*
X177067310Y-92127006D01*
X177170014Y-92137499D01*
X177170027Y-92137500D01*
X177920000Y-92137500D01*
X177920000Y-90985982D01*
X177938409Y-90996611D01*
X178091009Y-91037500D01*
X178248991Y-91037500D01*
X178401591Y-90996611D01*
X178420000Y-90985982D01*
X178420000Y-92137500D01*
X179169973Y-92137500D01*
X179169985Y-92137499D01*
X179272689Y-92127006D01*
X179272696Y-92127005D01*
X179439118Y-92071858D01*
X179439123Y-92071856D01*
X179588344Y-91979815D01*
X179712315Y-91855844D01*
X179804356Y-91706623D01*
X179804358Y-91706618D01*
X179859506Y-91540192D01*
X179860388Y-91536075D01*
X179861631Y-91533780D01*
X179861635Y-91533769D01*
X179861636Y-91533769D01*
X179893671Y-91474642D01*
X179954884Y-91440956D01*
X180024592Y-91445712D01*
X180080663Y-91487399D01*
X180084744Y-91493147D01*
X180086402Y-91495629D01*
X180238060Y-91693274D01*
X180238066Y-91693281D01*
X180414218Y-91869433D01*
X180414225Y-91869439D01*
X180611873Y-92021099D01*
X180827623Y-92145662D01*
X180827638Y-92145669D01*
X180886379Y-92170000D01*
X181057793Y-92241002D01*
X181298435Y-92305482D01*
X181545435Y-92338000D01*
X181545442Y-92338000D01*
X181794558Y-92338000D01*
X181794565Y-92338000D01*
X182041565Y-92305482D01*
X182282207Y-92241002D01*
X182512373Y-92145664D01*
X182728127Y-92021099D01*
X182925776Y-91869438D01*
X182968441Y-91826773D01*
X183101930Y-91693285D01*
X183101931Y-91693283D01*
X183101938Y-91693276D01*
X183107127Y-91686513D01*
X183163552Y-91645311D01*
X183205502Y-91638000D01*
X186878874Y-91638000D01*
X186945913Y-91657685D01*
X186966555Y-91674319D01*
X189337926Y-94045690D01*
X189490801Y-94156760D01*
X189570347Y-94197290D01*
X189659163Y-94242545D01*
X189659165Y-94242545D01*
X189659168Y-94242547D01*
X189755497Y-94273846D01*
X189838881Y-94300940D01*
X190025514Y-94330500D01*
X190025519Y-94330500D01*
X190214481Y-94330500D01*
X197874498Y-94330500D01*
X197941537Y-94350185D01*
X197972871Y-94379012D01*
X197978062Y-94385776D01*
X197978067Y-94385781D01*
X197978070Y-94385785D01*
X198154218Y-94561933D01*
X198154225Y-94561939D01*
X198351873Y-94713599D01*
X198567623Y-94838162D01*
X198567638Y-94838169D01*
X198666825Y-94879253D01*
X198797793Y-94933502D01*
X199038435Y-94997982D01*
X199285435Y-95030500D01*
X199285442Y-95030500D01*
X199534558Y-95030500D01*
X199534565Y-95030500D01*
X199781565Y-94997982D01*
X200022207Y-94933502D01*
X200252373Y-94838164D01*
X200468127Y-94713599D01*
X200665776Y-94561938D01*
X200841938Y-94385776D01*
X200993599Y-94188127D01*
X201118164Y-93972373D01*
X201213502Y-93742207D01*
X201277982Y-93501565D01*
X201310500Y-93254565D01*
X201310500Y-93005435D01*
X201277982Y-92758435D01*
X201213502Y-92517793D01*
X201159253Y-92386825D01*
X201118169Y-92287638D01*
X201118162Y-92287623D01*
X200993599Y-92071873D01*
X200841939Y-91874225D01*
X200841933Y-91874218D01*
X200665781Y-91698066D01*
X200665774Y-91698060D01*
X200468129Y-91546402D01*
X200465647Y-91544744D01*
X200465073Y-91544057D01*
X200464907Y-91543930D01*
X200464935Y-91543892D01*
X200420840Y-91491133D01*
X200412131Y-91421808D01*
X200442285Y-91358780D01*
X200501727Y-91322059D01*
X200508575Y-91320388D01*
X200512692Y-91319506D01*
X200679118Y-91264358D01*
X200679123Y-91264356D01*
X200828344Y-91172315D01*
X200952315Y-91048344D01*
X201044356Y-90899123D01*
X201044358Y-90899118D01*
X201099505Y-90732696D01*
X201099506Y-90732689D01*
X201109999Y-90629985D01*
X201110000Y-90629972D01*
X201110000Y-89880000D01*
X199958482Y-89880000D01*
X199969111Y-89861591D01*
X200010000Y-89708991D01*
X200010000Y-89551009D01*
X199969111Y-89398409D01*
X199958482Y-89380000D01*
X201110000Y-89380000D01*
X201110000Y-88630027D01*
X201109999Y-88630014D01*
X201099506Y-88527310D01*
X201099505Y-88527303D01*
X201044358Y-88360881D01*
X201044356Y-88360876D01*
X200952315Y-88211655D01*
X200828344Y-88087684D01*
X200679123Y-87995643D01*
X200679118Y-87995641D01*
X200512696Y-87940494D01*
X200512689Y-87940493D01*
X200409985Y-87930000D01*
X199660000Y-87930000D01*
X199660000Y-89081517D01*
X199641591Y-89070889D01*
X199488991Y-89030000D01*
X199331009Y-89030000D01*
X199178409Y-89070889D01*
X199160000Y-89081517D01*
X199160000Y-87930000D01*
X198410014Y-87930000D01*
X198307310Y-87940493D01*
X198307303Y-87940494D01*
X198140881Y-87995641D01*
X198140876Y-87995643D01*
X197991655Y-88087684D01*
X197867684Y-88211655D01*
X197775643Y-88360876D01*
X197775641Y-88360881D01*
X197720494Y-88527303D01*
X197720493Y-88527310D01*
X197710000Y-88630014D01*
X197710000Y-89380000D01*
X198861518Y-89380000D01*
X198850889Y-89398409D01*
X198810000Y-89551009D01*
X198810000Y-89708991D01*
X198850889Y-89861591D01*
X198861518Y-89880000D01*
X197710000Y-89880000D01*
X197710000Y-90629985D01*
X197720493Y-90732689D01*
X197720494Y-90732696D01*
X197775641Y-90899118D01*
X197775643Y-90899123D01*
X197867684Y-91048344D01*
X197991655Y-91172315D01*
X198140876Y-91264356D01*
X198140881Y-91264358D01*
X198307304Y-91319505D01*
X198311426Y-91320388D01*
X198313722Y-91321632D01*
X198313731Y-91321635D01*
X198313730Y-91321636D01*
X198372858Y-91353673D01*
X198406544Y-91414886D01*
X198401787Y-91484594D01*
X198360098Y-91540664D01*
X198354361Y-91544738D01*
X198351874Y-91546399D01*
X198154225Y-91698060D01*
X198154218Y-91698066D01*
X197978070Y-91874215D01*
X197978067Y-91874218D01*
X197978063Y-91874222D01*
X197978062Y-91874224D01*
X197972872Y-91880986D01*
X197916448Y-91922189D01*
X197874498Y-91929500D01*
X190668626Y-91929500D01*
X190601587Y-91909815D01*
X190580945Y-91893181D01*
X188209576Y-89521812D01*
X188209574Y-89521810D01*
X188056699Y-89410740D01*
X188032498Y-89398409D01*
X187888336Y-89324954D01*
X187708618Y-89266559D01*
X187521986Y-89237000D01*
X187521981Y-89237000D01*
X183205502Y-89237000D01*
X183138463Y-89217315D01*
X183107128Y-89188487D01*
X183101938Y-89181724D01*
X183101932Y-89181718D01*
X183101930Y-89181715D01*
X182925781Y-89005566D01*
X182925774Y-89005560D01*
X182728126Y-88853900D01*
X182520890Y-88734253D01*
X182512373Y-88729336D01*
X182512371Y-88729335D01*
X182512361Y-88729330D01*
X182282207Y-88633998D01*
X182041561Y-88569517D01*
X181794575Y-88537001D01*
X181794570Y-88537000D01*
X181794565Y-88537000D01*
X181545435Y-88537000D01*
X181545429Y-88537000D01*
X181545424Y-88537001D01*
X181298438Y-88569517D01*
X181057792Y-88633998D01*
X180827638Y-88729330D01*
X180827623Y-88729337D01*
X180611873Y-88853900D01*
X180414225Y-89005560D01*
X180414218Y-89005566D01*
X180238066Y-89181718D01*
X180238060Y-89181725D01*
X180086399Y-89379374D01*
X180084738Y-89381861D01*
X180084051Y-89382434D01*
X180083930Y-89382593D01*
X180083894Y-89382565D01*
X180031124Y-89426663D01*
X179961798Y-89435366D01*
X179898772Y-89405208D01*
X179862056Y-89345763D01*
X179860388Y-89338926D01*
X179859505Y-89334804D01*
X179804358Y-89168381D01*
X179804356Y-89168376D01*
X179712315Y-89019155D01*
X179588344Y-88895184D01*
X179439123Y-88803143D01*
X179439118Y-88803141D01*
X179272696Y-88747994D01*
X179272689Y-88747993D01*
X179169985Y-88737500D01*
X178420000Y-88737500D01*
X178420000Y-89889017D01*
X178401591Y-89878389D01*
X178248991Y-89837500D01*
X178091009Y-89837500D01*
X177938409Y-89878389D01*
X177920000Y-89889017D01*
X177920000Y-88737500D01*
X177170014Y-88737500D01*
X177067310Y-88747993D01*
X177067303Y-88747994D01*
X176900881Y-88803141D01*
X176900876Y-88803143D01*
X176751655Y-88895184D01*
X176627684Y-89019155D01*
X176535643Y-89168376D01*
X176535641Y-89168381D01*
X176480494Y-89334803D01*
X176480493Y-89334810D01*
X176470000Y-89437514D01*
X147732541Y-89437514D01*
X147583726Y-89351595D01*
X147583722Y-89351593D01*
X147377790Y-89266293D01*
X147377783Y-89266291D01*
X147377781Y-89266290D01*
X147162463Y-89208596D01*
X147162457Y-89208595D01*
X147162452Y-89208594D01*
X146941466Y-89179501D01*
X146941463Y-89179500D01*
X146941457Y-89179500D01*
X146718543Y-89179500D01*
X146718537Y-89179500D01*
X146718533Y-89179501D01*
X146497547Y-89208594D01*
X146497540Y-89208595D01*
X146497537Y-89208596D01*
X146347206Y-89248877D01*
X146282219Y-89266290D01*
X146282209Y-89266293D01*
X146076277Y-89351593D01*
X146076273Y-89351595D01*
X145883226Y-89463052D01*
X145883217Y-89463058D01*
X145706377Y-89598751D01*
X145706370Y-89598757D01*
X145548757Y-89756370D01*
X145548752Y-89756377D01*
X145537542Y-89770986D01*
X145481117Y-89812189D01*
X145439167Y-89819500D01*
X145074500Y-89819500D01*
X145007461Y-89799815D01*
X144961706Y-89747011D01*
X144950500Y-89695500D01*
X144950500Y-89435519D01*
X144946575Y-89410738D01*
X144923740Y-89266559D01*
X144920940Y-89248882D01*
X144862547Y-89069168D01*
X144862545Y-89069165D01*
X144862545Y-89069163D01*
X144776759Y-88900800D01*
X144768308Y-88889168D01*
X144665690Y-88747926D01*
X140622074Y-84704310D01*
X140609009Y-84694817D01*
X140566343Y-84639490D01*
X140560363Y-84569876D01*
X140592969Y-84508081D01*
X140653807Y-84473723D01*
X140681894Y-84470500D01*
X206796869Y-84470500D01*
X206863908Y-84490185D01*
X206909663Y-84542989D01*
X206920869Y-84594500D01*
X206920869Y-135358288D01*
X206901184Y-135425327D01*
X206848380Y-135471082D01*
X206796869Y-135482288D01*
X89424500Y-135482288D01*
X89357461Y-135462603D01*
X89311706Y-135409799D01*
X89300500Y-135358288D01*
X89300500Y-84594500D01*
X89320185Y-84527461D01*
X89372989Y-84481706D01*
X89424500Y-84470500D01*
X95668106Y-84470500D01*
X95735145Y-84490185D01*
G37*
%TD.AperFunction*%
%TA.AperFunction,Conductor*%
G36*
X139358413Y-86840185D02*
G01*
X139379055Y-86856819D01*
X142130055Y-89607819D01*
X142163540Y-89669142D01*
X142158556Y-89738834D01*
X142116684Y-89794767D01*
X142051220Y-89819184D01*
X142042374Y-89819500D01*
X140275513Y-89819500D01*
X140088885Y-89849059D01*
X139909165Y-89907454D01*
X139740800Y-89993240D01*
X139587923Y-90104312D01*
X119989055Y-109703181D01*
X119927732Y-109736666D01*
X119901374Y-109739500D01*
X101045514Y-109739500D01*
X100858881Y-109769059D01*
X100679163Y-109827454D01*
X100510800Y-109913240D01*
X100423579Y-109976610D01*
X100357927Y-110024310D01*
X100357925Y-110024312D01*
X100357924Y-110024312D01*
X97749308Y-112632927D01*
X97749304Y-112632932D01*
X97661544Y-112753725D01*
X97661544Y-112753726D01*
X97638240Y-112785800D01*
X97552454Y-112954163D01*
X97494059Y-113133881D01*
X97464500Y-113320513D01*
X97464500Y-115804266D01*
X97444815Y-115871305D01*
X97428181Y-115891947D01*
X97383757Y-115936370D01*
X97383751Y-115936377D01*
X97248058Y-116113217D01*
X97248052Y-116113226D01*
X97136595Y-116306273D01*
X97136593Y-116306277D01*
X97051293Y-116512209D01*
X97051290Y-116512219D01*
X97025548Y-116608292D01*
X96993597Y-116727534D01*
X96993594Y-116727547D01*
X96964501Y-116948533D01*
X96964500Y-116948549D01*
X96964500Y-117171450D01*
X96964501Y-117171466D01*
X96993594Y-117392452D01*
X96993595Y-117392457D01*
X96993596Y-117392463D01*
X97051290Y-117607780D01*
X97051293Y-117607790D01*
X97078374Y-117673168D01*
X97136595Y-117813726D01*
X97248052Y-118006774D01*
X97248057Y-118006780D01*
X97248058Y-118006782D01*
X97383751Y-118183622D01*
X97383757Y-118183629D01*
X97541370Y-118341242D01*
X97541377Y-118341248D01*
X97645126Y-118420857D01*
X97718226Y-118476948D01*
X97911274Y-118588405D01*
X98117219Y-118673710D01*
X98332537Y-118731404D01*
X98553543Y-118760500D01*
X98553550Y-118760500D01*
X98776450Y-118760500D01*
X98776457Y-118760500D01*
X98997463Y-118731404D01*
X99212781Y-118673710D01*
X99418726Y-118588405D01*
X99611774Y-118476948D01*
X99788624Y-118341247D01*
X99946247Y-118183624D01*
X100081948Y-118006774D01*
X100193405Y-117813726D01*
X100251628Y-117673160D01*
X100278505Y-117632939D01*
X100713871Y-117197573D01*
X100729755Y-117256853D01*
X100796898Y-117373147D01*
X100891853Y-117468102D01*
X101008147Y-117535245D01*
X101067425Y-117551128D01*
X100335893Y-118282658D01*
X100418828Y-118342914D01*
X100629197Y-118450102D01*
X100853752Y-118523065D01*
X100853751Y-118523065D01*
X101086948Y-118560000D01*
X101323052Y-118560000D01*
X101556247Y-118523065D01*
X101780802Y-118450102D01*
X101991163Y-118342918D01*
X101991169Y-118342914D01*
X102074104Y-118282658D01*
X102074105Y-118282658D01*
X101342574Y-117551128D01*
X101401853Y-117535245D01*
X101518147Y-117468102D01*
X101613102Y-117373147D01*
X101680245Y-117256853D01*
X101696128Y-117197574D01*
X102131493Y-117632939D01*
X102158373Y-117673167D01*
X102190248Y-117750119D01*
X102216595Y-117813726D01*
X102328052Y-118006774D01*
X102328057Y-118006780D01*
X102328058Y-118006782D01*
X102463751Y-118183622D01*
X102463756Y-118183628D01*
X102508180Y-118228051D01*
X102541666Y-118289374D01*
X102544500Y-118315733D01*
X102544500Y-121679486D01*
X102574059Y-121866118D01*
X102632454Y-122045836D01*
X102718240Y-122214199D01*
X102829310Y-122367074D01*
X102829311Y-122367075D01*
X102829312Y-122367076D01*
X106621001Y-126158764D01*
X106654486Y-126220087D01*
X106649502Y-126289779D01*
X106621002Y-126334125D01*
X106578757Y-126376370D01*
X106578751Y-126376377D01*
X106443058Y-126553217D01*
X106443052Y-126553226D01*
X106331595Y-126746273D01*
X106331593Y-126746277D01*
X106246293Y-126952209D01*
X106246290Y-126952219D01*
X106193630Y-127148752D01*
X106188597Y-127167534D01*
X106188594Y-127167547D01*
X106159501Y-127388533D01*
X106159500Y-127388549D01*
X106159500Y-127611450D01*
X106159501Y-127611466D01*
X106188594Y-127832452D01*
X106188595Y-127832457D01*
X106188596Y-127832463D01*
X106246290Y-128047780D01*
X106246293Y-128047790D01*
X106331593Y-128253722D01*
X106331595Y-128253726D01*
X106443052Y-128446774D01*
X106443057Y-128446780D01*
X106443058Y-128446782D01*
X106578751Y-128623622D01*
X106578757Y-128623629D01*
X106736370Y-128781242D01*
X106736377Y-128781248D01*
X106828202Y-128851707D01*
X106913226Y-128916948D01*
X107106274Y-129028405D01*
X107312219Y-129113710D01*
X107527537Y-129171404D01*
X107748543Y-129200500D01*
X107748550Y-129200500D01*
X107971450Y-129200500D01*
X107971457Y-129200500D01*
X108192463Y-129171404D01*
X108407781Y-129113710D01*
X108613726Y-129028405D01*
X108806774Y-128916948D01*
X108983624Y-128781247D01*
X109042320Y-128722550D01*
X109103641Y-128689067D01*
X109173333Y-128694051D01*
X109217679Y-128722550D01*
X109247068Y-128751939D01*
X109276378Y-128781249D01*
X109385178Y-128864733D01*
X109453226Y-128916948D01*
X109646274Y-129028405D01*
X109852219Y-129113710D01*
X110067537Y-129171404D01*
X110288543Y-129200500D01*
X110288550Y-129200500D01*
X110511450Y-129200500D01*
X110511457Y-129200500D01*
X110732463Y-129171404D01*
X110947781Y-129113710D01*
X111153726Y-129028405D01*
X111346774Y-128916948D01*
X111523624Y-128781247D01*
X111582320Y-128722550D01*
X111643641Y-128689067D01*
X111713333Y-128694051D01*
X111757679Y-128722550D01*
X111787068Y-128751939D01*
X111816378Y-128781249D01*
X111925178Y-128864733D01*
X111993226Y-128916948D01*
X112186274Y-129028405D01*
X112392219Y-129113710D01*
X112607537Y-129171404D01*
X112828543Y-129200500D01*
X112828550Y-129200500D01*
X113051450Y-129200500D01*
X113051457Y-129200500D01*
X113272463Y-129171404D01*
X113487781Y-129113710D01*
X113693726Y-129028405D01*
X113886774Y-128916948D01*
X114063624Y-128781247D01*
X114122320Y-128722550D01*
X114183641Y-128689067D01*
X114253333Y-128694051D01*
X114297679Y-128722550D01*
X114327068Y-128751939D01*
X114356378Y-128781249D01*
X114465178Y-128864733D01*
X114533226Y-128916948D01*
X114726274Y-129028405D01*
X114932219Y-129113710D01*
X115147537Y-129171404D01*
X115368543Y-129200500D01*
X115368550Y-129200500D01*
X115591450Y-129200500D01*
X115591457Y-129200500D01*
X115812463Y-129171404D01*
X116027781Y-129113710D01*
X116233726Y-129028405D01*
X116426774Y-128916948D01*
X116603624Y-128781247D01*
X116607813Y-128777058D01*
X116627252Y-128766441D01*
X116643989Y-128751939D01*
X116657315Y-128750022D01*
X116669133Y-128743569D01*
X116691223Y-128745147D01*
X116713147Y-128741995D01*
X116725395Y-128747588D01*
X116738825Y-128748548D01*
X116756555Y-128761818D01*
X116776703Y-128771020D01*
X116783983Y-128782348D01*
X116794762Y-128790416D01*
X116802502Y-128811165D01*
X116814477Y-128829798D01*
X116817627Y-128851707D01*
X116819183Y-128855878D01*
X116819500Y-128864733D01*
X116819500Y-128981374D01*
X116799815Y-129048413D01*
X116783181Y-129069055D01*
X116339055Y-129513181D01*
X116277732Y-129546666D01*
X116251374Y-129549500D01*
X103098626Y-129549500D01*
X103031587Y-129529815D01*
X103010945Y-129513181D01*
X96486819Y-122989055D01*
X96453334Y-122927732D01*
X96450500Y-122901374D01*
X96450500Y-90618626D01*
X96470185Y-90551587D01*
X96486819Y-90530945D01*
X97570945Y-89446819D01*
X97632268Y-89413334D01*
X97658626Y-89410500D01*
X132581374Y-89410500D01*
X132648413Y-89430185D01*
X132669055Y-89446819D01*
X132988181Y-89765944D01*
X133021666Y-89827267D01*
X133024500Y-89853625D01*
X133024500Y-90295266D01*
X133004815Y-90362305D01*
X132952011Y-90408060D01*
X132882853Y-90418004D01*
X132819297Y-90388979D01*
X132812819Y-90382947D01*
X132808629Y-90378757D01*
X132808622Y-90378751D01*
X132631782Y-90243058D01*
X132631780Y-90243057D01*
X132631774Y-90243052D01*
X132438726Y-90131595D01*
X132438722Y-90131593D01*
X132232790Y-90046293D01*
X132232783Y-90046291D01*
X132232781Y-90046290D01*
X132017463Y-89988596D01*
X132017457Y-89988595D01*
X132017452Y-89988594D01*
X131796466Y-89959501D01*
X131796463Y-89959500D01*
X131796457Y-89959500D01*
X131573543Y-89959500D01*
X131573537Y-89959500D01*
X131573533Y-89959501D01*
X131352547Y-89988594D01*
X131352540Y-89988595D01*
X131352537Y-89988596D01*
X131137219Y-90046290D01*
X131137209Y-90046293D01*
X130931277Y-90131593D01*
X130931273Y-90131595D01*
X130738226Y-90243052D01*
X130738217Y-90243058D01*
X130561377Y-90378751D01*
X130561370Y-90378757D01*
X130502681Y-90437447D01*
X130441358Y-90470932D01*
X130371666Y-90465948D01*
X130327319Y-90437447D01*
X130268629Y-90378757D01*
X130268622Y-90378751D01*
X130091782Y-90243058D01*
X130091780Y-90243057D01*
X130091774Y-90243052D01*
X129898726Y-90131595D01*
X129898722Y-90131593D01*
X129692790Y-90046293D01*
X129692783Y-90046291D01*
X129692781Y-90046290D01*
X129477463Y-89988596D01*
X129477457Y-89988595D01*
X129477452Y-89988594D01*
X129256466Y-89959501D01*
X129256463Y-89959500D01*
X129256457Y-89959500D01*
X129033543Y-89959500D01*
X129033537Y-89959500D01*
X129033533Y-89959501D01*
X128812547Y-89988594D01*
X128812540Y-89988595D01*
X128812537Y-89988596D01*
X128597219Y-90046290D01*
X128597209Y-90046293D01*
X128391277Y-90131593D01*
X128391273Y-90131595D01*
X128198226Y-90243052D01*
X128198217Y-90243058D01*
X128021377Y-90378751D01*
X128021370Y-90378757D01*
X127962681Y-90437447D01*
X127901358Y-90470932D01*
X127831666Y-90465948D01*
X127787319Y-90437447D01*
X127728629Y-90378757D01*
X127728622Y-90378751D01*
X127551782Y-90243058D01*
X127551780Y-90243057D01*
X127551774Y-90243052D01*
X127358726Y-90131595D01*
X127358722Y-90131593D01*
X127152790Y-90046293D01*
X127152783Y-90046291D01*
X127152781Y-90046290D01*
X126937463Y-89988596D01*
X126937457Y-89988595D01*
X126937452Y-89988594D01*
X126716466Y-89959501D01*
X126716463Y-89959500D01*
X126716457Y-89959500D01*
X126493543Y-89959500D01*
X126493537Y-89959500D01*
X126493533Y-89959501D01*
X126272547Y-89988594D01*
X126272540Y-89988595D01*
X126272537Y-89988596D01*
X126057219Y-90046290D01*
X126057209Y-90046293D01*
X125851277Y-90131593D01*
X125851273Y-90131595D01*
X125658226Y-90243052D01*
X125658217Y-90243058D01*
X125481377Y-90378751D01*
X125481370Y-90378757D01*
X125422681Y-90437447D01*
X125361358Y-90470932D01*
X125291666Y-90465948D01*
X125247319Y-90437447D01*
X125188629Y-90378757D01*
X125188622Y-90378751D01*
X125011782Y-90243058D01*
X125011780Y-90243057D01*
X125011774Y-90243052D01*
X124818726Y-90131595D01*
X124818722Y-90131593D01*
X124612790Y-90046293D01*
X124612783Y-90046291D01*
X124612781Y-90046290D01*
X124397463Y-89988596D01*
X124397457Y-89988595D01*
X124397452Y-89988594D01*
X124176466Y-89959501D01*
X124176463Y-89959500D01*
X124176457Y-89959500D01*
X123953543Y-89959500D01*
X123953537Y-89959500D01*
X123953533Y-89959501D01*
X123732547Y-89988594D01*
X123732540Y-89988595D01*
X123732537Y-89988596D01*
X123517219Y-90046290D01*
X123517209Y-90046293D01*
X123311277Y-90131593D01*
X123311273Y-90131595D01*
X123118226Y-90243052D01*
X123118217Y-90243058D01*
X122941377Y-90378751D01*
X122941370Y-90378757D01*
X122882681Y-90437447D01*
X122821358Y-90470932D01*
X122751666Y-90465948D01*
X122707319Y-90437447D01*
X122648629Y-90378757D01*
X122648622Y-90378751D01*
X122471782Y-90243058D01*
X122471780Y-90243057D01*
X122471774Y-90243052D01*
X122278726Y-90131595D01*
X122278722Y-90131593D01*
X122072790Y-90046293D01*
X122072783Y-90046291D01*
X122072781Y-90046290D01*
X121857463Y-89988596D01*
X121857457Y-89988595D01*
X121857452Y-89988594D01*
X121636466Y-89959501D01*
X121636463Y-89959500D01*
X121636457Y-89959500D01*
X121413543Y-89959500D01*
X121413537Y-89959500D01*
X121413533Y-89959501D01*
X121192547Y-89988594D01*
X121192540Y-89988595D01*
X121192537Y-89988596D01*
X120977219Y-90046290D01*
X120977209Y-90046293D01*
X120771277Y-90131593D01*
X120771273Y-90131595D01*
X120578226Y-90243052D01*
X120578217Y-90243058D01*
X120401377Y-90378751D01*
X120401370Y-90378757D01*
X120342681Y-90437447D01*
X120281358Y-90470932D01*
X120211666Y-90465948D01*
X120167319Y-90437447D01*
X120108629Y-90378757D01*
X120108622Y-90378751D01*
X119931782Y-90243058D01*
X119931780Y-90243057D01*
X119931774Y-90243052D01*
X119738726Y-90131595D01*
X119738722Y-90131593D01*
X119532790Y-90046293D01*
X119532783Y-90046291D01*
X119532781Y-90046290D01*
X119317463Y-89988596D01*
X119317457Y-89988595D01*
X119317452Y-89988594D01*
X119096466Y-89959501D01*
X119096463Y-89959500D01*
X119096457Y-89959500D01*
X118873543Y-89959500D01*
X118873537Y-89959500D01*
X118873533Y-89959501D01*
X118652547Y-89988594D01*
X118652540Y-89988595D01*
X118652537Y-89988596D01*
X118437219Y-90046290D01*
X118437209Y-90046293D01*
X118231277Y-90131593D01*
X118231273Y-90131595D01*
X118038226Y-90243052D01*
X118038217Y-90243058D01*
X117861377Y-90378751D01*
X117861370Y-90378757D01*
X117802681Y-90437447D01*
X117741358Y-90470932D01*
X117671666Y-90465948D01*
X117627319Y-90437447D01*
X117568629Y-90378757D01*
X117568622Y-90378751D01*
X117391782Y-90243058D01*
X117391780Y-90243057D01*
X117391774Y-90243052D01*
X117198726Y-90131595D01*
X117198722Y-90131593D01*
X116992790Y-90046293D01*
X116992783Y-90046291D01*
X116992781Y-90046290D01*
X116777463Y-89988596D01*
X116777457Y-89988595D01*
X116777452Y-89988594D01*
X116556466Y-89959501D01*
X116556463Y-89959500D01*
X116556457Y-89959500D01*
X116333543Y-89959500D01*
X116333537Y-89959500D01*
X116333533Y-89959501D01*
X116112547Y-89988594D01*
X116112540Y-89988595D01*
X116112537Y-89988596D01*
X115897219Y-90046290D01*
X115897209Y-90046293D01*
X115691277Y-90131593D01*
X115691273Y-90131595D01*
X115498226Y-90243052D01*
X115498217Y-90243058D01*
X115321377Y-90378751D01*
X115321370Y-90378757D01*
X115262681Y-90437447D01*
X115201358Y-90470932D01*
X115131666Y-90465948D01*
X115087319Y-90437447D01*
X115028629Y-90378757D01*
X115028622Y-90378751D01*
X114851782Y-90243058D01*
X114851780Y-90243057D01*
X114851774Y-90243052D01*
X114658726Y-90131595D01*
X114658722Y-90131593D01*
X114452790Y-90046293D01*
X114452783Y-90046291D01*
X114452781Y-90046290D01*
X114237463Y-89988596D01*
X114237457Y-89988595D01*
X114237452Y-89988594D01*
X114016466Y-89959501D01*
X114016463Y-89959500D01*
X114016457Y-89959500D01*
X113793543Y-89959500D01*
X113793537Y-89959500D01*
X113793533Y-89959501D01*
X113572547Y-89988594D01*
X113572540Y-89988595D01*
X113572537Y-89988596D01*
X113357219Y-90046290D01*
X113357209Y-90046293D01*
X113151277Y-90131593D01*
X113151273Y-90131595D01*
X112958226Y-90243052D01*
X112958217Y-90243058D01*
X112781377Y-90378751D01*
X112781370Y-90378757D01*
X112722681Y-90437447D01*
X112661358Y-90470932D01*
X112591666Y-90465948D01*
X112547319Y-90437447D01*
X112488629Y-90378757D01*
X112488622Y-90378751D01*
X112311782Y-90243058D01*
X112311780Y-90243057D01*
X112311774Y-90243052D01*
X112118726Y-90131595D01*
X112118722Y-90131593D01*
X111912790Y-90046293D01*
X111912783Y-90046291D01*
X111912781Y-90046290D01*
X111697463Y-89988596D01*
X111697457Y-89988595D01*
X111697452Y-89988594D01*
X111476466Y-89959501D01*
X111476463Y-89959500D01*
X111476457Y-89959500D01*
X111253543Y-89959500D01*
X111253537Y-89959500D01*
X111253533Y-89959501D01*
X111032547Y-89988594D01*
X111032540Y-89988595D01*
X111032537Y-89988596D01*
X110817219Y-90046290D01*
X110817209Y-90046293D01*
X110611277Y-90131593D01*
X110611273Y-90131595D01*
X110418226Y-90243052D01*
X110418217Y-90243058D01*
X110241377Y-90378751D01*
X110241370Y-90378757D01*
X110182681Y-90437447D01*
X110121358Y-90470932D01*
X110051666Y-90465948D01*
X110007319Y-90437447D01*
X109948629Y-90378757D01*
X109948622Y-90378751D01*
X109771782Y-90243058D01*
X109771780Y-90243057D01*
X109771774Y-90243052D01*
X109578726Y-90131595D01*
X109578722Y-90131593D01*
X109372790Y-90046293D01*
X109372783Y-90046291D01*
X109372781Y-90046290D01*
X109157463Y-89988596D01*
X109157457Y-89988595D01*
X109157452Y-89988594D01*
X108936466Y-89959501D01*
X108936463Y-89959500D01*
X108936457Y-89959500D01*
X108713543Y-89959500D01*
X108713537Y-89959500D01*
X108713533Y-89959501D01*
X108492547Y-89988594D01*
X108492540Y-89988595D01*
X108492537Y-89988596D01*
X108277219Y-90046290D01*
X108277209Y-90046293D01*
X108071277Y-90131593D01*
X108071273Y-90131595D01*
X107878226Y-90243052D01*
X107878217Y-90243058D01*
X107701377Y-90378751D01*
X107701370Y-90378757D01*
X107642681Y-90437447D01*
X107581358Y-90470932D01*
X107511666Y-90465948D01*
X107467319Y-90437447D01*
X107408629Y-90378757D01*
X107408622Y-90378751D01*
X107231782Y-90243058D01*
X107231780Y-90243057D01*
X107231774Y-90243052D01*
X107038726Y-90131595D01*
X107038722Y-90131593D01*
X106832790Y-90046293D01*
X106832783Y-90046291D01*
X106832781Y-90046290D01*
X106617463Y-89988596D01*
X106617457Y-89988595D01*
X106617452Y-89988594D01*
X106396466Y-89959501D01*
X106396463Y-89959500D01*
X106396457Y-89959500D01*
X106173543Y-89959500D01*
X106173537Y-89959500D01*
X106173533Y-89959501D01*
X105952547Y-89988594D01*
X105952540Y-89988595D01*
X105952537Y-89988596D01*
X105737219Y-90046290D01*
X105737209Y-90046293D01*
X105531277Y-90131593D01*
X105531273Y-90131595D01*
X105338226Y-90243052D01*
X105338217Y-90243058D01*
X105161377Y-90378751D01*
X105161370Y-90378757D01*
X105102681Y-90437447D01*
X105041358Y-90470932D01*
X104971666Y-90465948D01*
X104927319Y-90437447D01*
X104868629Y-90378757D01*
X104868622Y-90378751D01*
X104691782Y-90243058D01*
X104691780Y-90243057D01*
X104691774Y-90243052D01*
X104498726Y-90131595D01*
X104498722Y-90131593D01*
X104292790Y-90046293D01*
X104292783Y-90046291D01*
X104292781Y-90046290D01*
X104077463Y-89988596D01*
X104077457Y-89988595D01*
X104077452Y-89988594D01*
X103856466Y-89959501D01*
X103856463Y-89959500D01*
X103856457Y-89959500D01*
X103633543Y-89959500D01*
X103633537Y-89959500D01*
X103633533Y-89959501D01*
X103412547Y-89988594D01*
X103412540Y-89988595D01*
X103412537Y-89988596D01*
X103197219Y-90046290D01*
X103197209Y-90046293D01*
X102991277Y-90131593D01*
X102991273Y-90131595D01*
X102798226Y-90243052D01*
X102798217Y-90243058D01*
X102621377Y-90378751D01*
X102621370Y-90378757D01*
X102463757Y-90536370D01*
X102463751Y-90536377D01*
X102328058Y-90713217D01*
X102328052Y-90713226D01*
X102216595Y-90906272D01*
X102216594Y-90906274D01*
X102158372Y-91046832D01*
X102131493Y-91087059D01*
X101696128Y-91522424D01*
X101680245Y-91463147D01*
X101613102Y-91346853D01*
X101518147Y-91251898D01*
X101401853Y-91184755D01*
X101342574Y-91168871D01*
X102074105Y-90437340D01*
X102074104Y-90437338D01*
X101991174Y-90377087D01*
X101780802Y-90269897D01*
X101556247Y-90196934D01*
X101556248Y-90196934D01*
X101323052Y-90160000D01*
X101086948Y-90160000D01*
X100853752Y-90196934D01*
X100629197Y-90269897D01*
X100418830Y-90377084D01*
X100335894Y-90437340D01*
X101067425Y-91168871D01*
X101008147Y-91184755D01*
X100891853Y-91251898D01*
X100796898Y-91346853D01*
X100729755Y-91463147D01*
X100713871Y-91522425D01*
X100278505Y-91087059D01*
X100251625Y-91046830D01*
X100193409Y-90906282D01*
X100193404Y-90906273D01*
X100081948Y-90713226D01*
X100035216Y-90652323D01*
X99964440Y-90560085D01*
X99946248Y-90536377D01*
X99946242Y-90536370D01*
X99788629Y-90378757D01*
X99788622Y-90378751D01*
X99611782Y-90243058D01*
X99611780Y-90243057D01*
X99611774Y-90243052D01*
X99418726Y-90131595D01*
X99418722Y-90131593D01*
X99212790Y-90046293D01*
X99212783Y-90046291D01*
X99212781Y-90046290D01*
X98997463Y-89988596D01*
X98997457Y-89988595D01*
X98997452Y-89988594D01*
X98776466Y-89959501D01*
X98776463Y-89959500D01*
X98776457Y-89959500D01*
X98553543Y-89959500D01*
X98553537Y-89959500D01*
X98553533Y-89959501D01*
X98332547Y-89988594D01*
X98332540Y-89988595D01*
X98332537Y-89988596D01*
X98117219Y-90046290D01*
X98117209Y-90046293D01*
X97911277Y-90131593D01*
X97911273Y-90131595D01*
X97718226Y-90243052D01*
X97718217Y-90243058D01*
X97541377Y-90378751D01*
X97541370Y-90378757D01*
X97383757Y-90536370D01*
X97383751Y-90536377D01*
X97248058Y-90713217D01*
X97248052Y-90713226D01*
X97136595Y-90906273D01*
X97136593Y-90906277D01*
X97051293Y-91112209D01*
X97051290Y-91112219D01*
X96993875Y-91326498D01*
X96993597Y-91327534D01*
X96993594Y-91327547D01*
X96964501Y-91548533D01*
X96964500Y-91548549D01*
X96964500Y-91771450D01*
X96964501Y-91771466D01*
X96993594Y-91992452D01*
X96993595Y-91992457D01*
X96993596Y-91992463D01*
X97038822Y-92161248D01*
X97051290Y-92207780D01*
X97051293Y-92207790D01*
X97134391Y-92408405D01*
X97136595Y-92413726D01*
X97248052Y-92606774D01*
X97248057Y-92606780D01*
X97248058Y-92606782D01*
X97383751Y-92783622D01*
X97383757Y-92783629D01*
X97541370Y-92941242D01*
X97541377Y-92941248D01*
X97625028Y-93005435D01*
X97718226Y-93076948D01*
X97911274Y-93188405D01*
X98117219Y-93273710D01*
X98332537Y-93331404D01*
X98553543Y-93360500D01*
X98553550Y-93360500D01*
X98776450Y-93360500D01*
X98776457Y-93360500D01*
X98997463Y-93331404D01*
X99212781Y-93273710D01*
X99418726Y-93188405D01*
X99611774Y-93076948D01*
X99788624Y-92941247D01*
X99946247Y-92783624D01*
X100081948Y-92606774D01*
X100193405Y-92413726D01*
X100251628Y-92273160D01*
X100278505Y-92232939D01*
X100713871Y-91797573D01*
X100729755Y-91856853D01*
X100796898Y-91973147D01*
X100891853Y-92068102D01*
X101008147Y-92135245D01*
X101067425Y-92151128D01*
X100335893Y-92882658D01*
X100418828Y-92942914D01*
X100629197Y-93050102D01*
X100853752Y-93123065D01*
X100853751Y-93123065D01*
X101086948Y-93160000D01*
X101323052Y-93160000D01*
X101556247Y-93123065D01*
X101780802Y-93050102D01*
X101991163Y-92942918D01*
X101991169Y-92942914D01*
X102074104Y-92882658D01*
X102074105Y-92882658D01*
X101342574Y-92151128D01*
X101401853Y-92135245D01*
X101518147Y-92068102D01*
X101613102Y-91973147D01*
X101680245Y-91856853D01*
X101696128Y-91797574D01*
X102131493Y-92232939D01*
X102158373Y-92273167D01*
X102214391Y-92408405D01*
X102216595Y-92413726D01*
X102328052Y-92606774D01*
X102328057Y-92606780D01*
X102328058Y-92606782D01*
X102463751Y-92783622D01*
X102463757Y-92783629D01*
X102621370Y-92941242D01*
X102621377Y-92941248D01*
X102705028Y-93005435D01*
X102798226Y-93076948D01*
X102991274Y-93188405D01*
X103197219Y-93273710D01*
X103412537Y-93331404D01*
X103633543Y-93360500D01*
X103633550Y-93360500D01*
X103856450Y-93360500D01*
X103856457Y-93360500D01*
X104077463Y-93331404D01*
X104292781Y-93273710D01*
X104498726Y-93188405D01*
X104691774Y-93076948D01*
X104868624Y-92941247D01*
X104927320Y-92882550D01*
X104988641Y-92849067D01*
X105058333Y-92854051D01*
X105102679Y-92882550D01*
X105161371Y-92941242D01*
X105161378Y-92941249D01*
X105253856Y-93012209D01*
X105338226Y-93076948D01*
X105531274Y-93188405D01*
X105737219Y-93273710D01*
X105952537Y-93331404D01*
X106173543Y-93360500D01*
X106173550Y-93360500D01*
X106396450Y-93360500D01*
X106396457Y-93360500D01*
X106617463Y-93331404D01*
X106832781Y-93273710D01*
X107038726Y-93188405D01*
X107231774Y-93076948D01*
X107408624Y-92941247D01*
X107467320Y-92882550D01*
X107528641Y-92849067D01*
X107598333Y-92854051D01*
X107642679Y-92882550D01*
X107701371Y-92941242D01*
X107701378Y-92941249D01*
X107793856Y-93012209D01*
X107878226Y-93076948D01*
X108071274Y-93188405D01*
X108277219Y-93273710D01*
X108492537Y-93331404D01*
X108713543Y-93360500D01*
X108713550Y-93360500D01*
X108936450Y-93360500D01*
X108936457Y-93360500D01*
X109157463Y-93331404D01*
X109372781Y-93273710D01*
X109578726Y-93188405D01*
X109771774Y-93076948D01*
X109948624Y-92941247D01*
X110007320Y-92882550D01*
X110068641Y-92849067D01*
X110138333Y-92854051D01*
X110182679Y-92882550D01*
X110241371Y-92941242D01*
X110241378Y-92941249D01*
X110333856Y-93012209D01*
X110418226Y-93076948D01*
X110611274Y-93188405D01*
X110817219Y-93273710D01*
X111032537Y-93331404D01*
X111253543Y-93360500D01*
X111253550Y-93360500D01*
X111476450Y-93360500D01*
X111476457Y-93360500D01*
X111697463Y-93331404D01*
X111912781Y-93273710D01*
X112118726Y-93188405D01*
X112311774Y-93076948D01*
X112488624Y-92941247D01*
X112547320Y-92882550D01*
X112608641Y-92849067D01*
X112678333Y-92854051D01*
X112722679Y-92882550D01*
X112781371Y-92941242D01*
X112781378Y-92941249D01*
X112873856Y-93012209D01*
X112958226Y-93076948D01*
X113151274Y-93188405D01*
X113357219Y-93273710D01*
X113572537Y-93331404D01*
X113793543Y-93360500D01*
X113793550Y-93360500D01*
X114016450Y-93360500D01*
X114016457Y-93360500D01*
X114237463Y-93331404D01*
X114452781Y-93273710D01*
X114658726Y-93188405D01*
X114851774Y-93076948D01*
X115028624Y-92941247D01*
X115087320Y-92882550D01*
X115148641Y-92849067D01*
X115218333Y-92854051D01*
X115262679Y-92882550D01*
X115321371Y-92941242D01*
X115321378Y-92941249D01*
X115413856Y-93012209D01*
X115498226Y-93076948D01*
X115691274Y-93188405D01*
X115897219Y-93273710D01*
X116112537Y-93331404D01*
X116333543Y-93360500D01*
X116333550Y-93360500D01*
X116556450Y-93360500D01*
X116556457Y-93360500D01*
X116777463Y-93331404D01*
X116992781Y-93273710D01*
X117198726Y-93188405D01*
X117391774Y-93076948D01*
X117568624Y-92941247D01*
X117627320Y-92882550D01*
X117688641Y-92849067D01*
X117758333Y-92854051D01*
X117802679Y-92882550D01*
X117861371Y-92941242D01*
X117861378Y-92941249D01*
X117953856Y-93012209D01*
X118038226Y-93076948D01*
X118231274Y-93188405D01*
X118437219Y-93273710D01*
X118652537Y-93331404D01*
X118873543Y-93360500D01*
X118873550Y-93360500D01*
X119096450Y-93360500D01*
X119096457Y-93360500D01*
X119317463Y-93331404D01*
X119532781Y-93273710D01*
X119738726Y-93188405D01*
X119931774Y-93076948D01*
X120108624Y-92941247D01*
X120167320Y-92882550D01*
X120228641Y-92849067D01*
X120298333Y-92854051D01*
X120342679Y-92882550D01*
X120401371Y-92941242D01*
X120401378Y-92941249D01*
X120493856Y-93012209D01*
X120578226Y-93076948D01*
X120771274Y-93188405D01*
X120977219Y-93273710D01*
X121192537Y-93331404D01*
X121413543Y-93360500D01*
X121413550Y-93360500D01*
X121636450Y-93360500D01*
X121636457Y-93360500D01*
X121857463Y-93331404D01*
X122072781Y-93273710D01*
X122278726Y-93188405D01*
X122471774Y-93076948D01*
X122648624Y-92941247D01*
X122707320Y-92882550D01*
X122768641Y-92849067D01*
X122838333Y-92854051D01*
X122882679Y-92882550D01*
X122941371Y-92941242D01*
X122941378Y-92941249D01*
X123033856Y-93012209D01*
X123118226Y-93076948D01*
X123311274Y-93188405D01*
X123517219Y-93273710D01*
X123732537Y-93331404D01*
X123953543Y-93360500D01*
X123953550Y-93360500D01*
X124176450Y-93360500D01*
X124176457Y-93360500D01*
X124397463Y-93331404D01*
X124612781Y-93273710D01*
X124818726Y-93188405D01*
X125011774Y-93076948D01*
X125188624Y-92941247D01*
X125247320Y-92882550D01*
X125308641Y-92849067D01*
X125378333Y-92854051D01*
X125422679Y-92882550D01*
X125481371Y-92941242D01*
X125481378Y-92941249D01*
X125573856Y-93012209D01*
X125658226Y-93076948D01*
X125851274Y-93188405D01*
X126057219Y-93273710D01*
X126272537Y-93331404D01*
X126493543Y-93360500D01*
X126493550Y-93360500D01*
X126716450Y-93360500D01*
X126716457Y-93360500D01*
X126937463Y-93331404D01*
X127152781Y-93273710D01*
X127358726Y-93188405D01*
X127551774Y-93076948D01*
X127728624Y-92941247D01*
X127787320Y-92882550D01*
X127848641Y-92849067D01*
X127918333Y-92854051D01*
X127962679Y-92882550D01*
X128021371Y-92941242D01*
X128021378Y-92941249D01*
X128113856Y-93012209D01*
X128198226Y-93076948D01*
X128391274Y-93188405D01*
X128597219Y-93273710D01*
X128812537Y-93331404D01*
X129033543Y-93360500D01*
X129033550Y-93360500D01*
X129256450Y-93360500D01*
X129256457Y-93360500D01*
X129477463Y-93331404D01*
X129692781Y-93273710D01*
X129898726Y-93188405D01*
X130091774Y-93076948D01*
X130268624Y-92941247D01*
X130327320Y-92882550D01*
X130388641Y-92849067D01*
X130458333Y-92854051D01*
X130502679Y-92882550D01*
X130561371Y-92941242D01*
X130561378Y-92941249D01*
X130653856Y-93012209D01*
X130738226Y-93076948D01*
X130931274Y-93188405D01*
X131137219Y-93273710D01*
X131352537Y-93331404D01*
X131573543Y-93360500D01*
X131573550Y-93360500D01*
X131796450Y-93360500D01*
X131796457Y-93360500D01*
X132017463Y-93331404D01*
X132232781Y-93273710D01*
X132438726Y-93188405D01*
X132631774Y-93076948D01*
X132808624Y-92941247D01*
X132867320Y-92882550D01*
X132928641Y-92849067D01*
X132998333Y-92854051D01*
X133042679Y-92882550D01*
X133101371Y-92941242D01*
X133101378Y-92941249D01*
X133193856Y-93012209D01*
X133278226Y-93076948D01*
X133471274Y-93188405D01*
X133677219Y-93273710D01*
X133892537Y-93331404D01*
X134113543Y-93360500D01*
X134113550Y-93360500D01*
X134336450Y-93360500D01*
X134336457Y-93360500D01*
X134557463Y-93331404D01*
X134772781Y-93273710D01*
X134978726Y-93188405D01*
X135171774Y-93076948D01*
X135348624Y-92941247D01*
X135506247Y-92783624D01*
X135641948Y-92606774D01*
X135753405Y-92413726D01*
X135838710Y-92207781D01*
X135896404Y-91992463D01*
X135925500Y-91771457D01*
X135925500Y-91548543D01*
X135896404Y-91327537D01*
X135838710Y-91112219D01*
X135828288Y-91087059D01*
X135753406Y-90906277D01*
X135753405Y-90906274D01*
X135641948Y-90713226D01*
X135525959Y-90562065D01*
X135506248Y-90536377D01*
X135506242Y-90536370D01*
X135461819Y-90491947D01*
X135428334Y-90430624D01*
X135425500Y-90404266D01*
X135425500Y-89210513D01*
X135395940Y-89023881D01*
X135337545Y-88844163D01*
X135288544Y-88747994D01*
X135251760Y-88675801D01*
X135140690Y-88522927D01*
X135007073Y-88389310D01*
X133912074Y-87294310D01*
X133759199Y-87183240D01*
X133590836Y-87097454D01*
X133483046Y-87062431D01*
X133425371Y-87022993D01*
X133398173Y-86958634D01*
X133410088Y-86889788D01*
X133457332Y-86838312D01*
X133521365Y-86820500D01*
X139291374Y-86820500D01*
X139358413Y-86840185D01*
G37*
%TD.AperFunction*%
%TA.AperFunction,Conductor*%
G36*
X141465129Y-92240185D02*
G01*
X141510884Y-92292989D01*
X141520828Y-92362147D01*
X141491803Y-92425703D01*
X141454385Y-92454985D01*
X141300800Y-92533240D01*
X141213579Y-92596610D01*
X141147927Y-92644310D01*
X141147925Y-92644312D01*
X141147924Y-92644312D01*
X134684312Y-99107923D01*
X134679548Y-99114481D01*
X134679547Y-99114480D01*
X134573242Y-99260797D01*
X134487454Y-99429163D01*
X134429059Y-99608881D01*
X134399500Y-99795513D01*
X134399500Y-108021374D01*
X134379815Y-108088413D01*
X134363181Y-108109055D01*
X130119055Y-112353181D01*
X130057732Y-112386666D01*
X130031374Y-112389500D01*
X122955514Y-112389500D01*
X122768881Y-112419059D01*
X122589163Y-112477454D01*
X122420800Y-112563240D01*
X122333579Y-112626610D01*
X122267927Y-112674310D01*
X122267925Y-112674312D01*
X122267924Y-112674312D01*
X120609312Y-114332923D01*
X120609307Y-114332929D01*
X120523081Y-114451610D01*
X120510660Y-114468705D01*
X120498240Y-114485800D01*
X120412454Y-114654163D01*
X120354059Y-114833881D01*
X120324500Y-115020513D01*
X120324500Y-115695266D01*
X120304815Y-115762305D01*
X120252011Y-115808060D01*
X120182853Y-115818004D01*
X120119297Y-115788979D01*
X120112819Y-115782947D01*
X120108629Y-115778757D01*
X120108622Y-115778751D01*
X119931782Y-115643058D01*
X119931780Y-115643057D01*
X119931774Y-115643052D01*
X119738726Y-115531595D01*
X119738722Y-115531593D01*
X119532790Y-115446293D01*
X119532783Y-115446291D01*
X119532781Y-115446290D01*
X119317463Y-115388596D01*
X119317457Y-115388595D01*
X119317452Y-115388594D01*
X119096466Y-115359501D01*
X119096463Y-115359500D01*
X119096457Y-115359500D01*
X118873543Y-115359500D01*
X118873537Y-115359500D01*
X118873533Y-115359501D01*
X118652547Y-115388594D01*
X118652540Y-115388595D01*
X118652537Y-115388596D01*
X118626506Y-115395571D01*
X118437219Y-115446290D01*
X118437209Y-115446293D01*
X118231277Y-115531593D01*
X118231273Y-115531595D01*
X118038226Y-115643052D01*
X118038217Y-115643058D01*
X117861377Y-115778751D01*
X117861370Y-115778757D01*
X117802681Y-115837447D01*
X117741358Y-115870932D01*
X117671666Y-115865948D01*
X117627319Y-115837447D01*
X117568629Y-115778757D01*
X117568622Y-115778751D01*
X117391782Y-115643058D01*
X117391780Y-115643057D01*
X117391774Y-115643052D01*
X117198726Y-115531595D01*
X117198722Y-115531593D01*
X116992790Y-115446293D01*
X116992783Y-115446291D01*
X116992781Y-115446290D01*
X116777463Y-115388596D01*
X116777457Y-115388595D01*
X116777452Y-115388594D01*
X116556466Y-115359501D01*
X116556463Y-115359500D01*
X116556457Y-115359500D01*
X116333543Y-115359500D01*
X116333537Y-115359500D01*
X116333533Y-115359501D01*
X116112547Y-115388594D01*
X116112540Y-115388595D01*
X116112537Y-115388596D01*
X116086506Y-115395571D01*
X115897219Y-115446290D01*
X115897209Y-115446293D01*
X115691277Y-115531593D01*
X115691273Y-115531595D01*
X115498226Y-115643052D01*
X115498217Y-115643058D01*
X115321377Y-115778751D01*
X115321370Y-115778757D01*
X115262681Y-115837447D01*
X115201358Y-115870932D01*
X115131666Y-115865948D01*
X115087319Y-115837447D01*
X115028629Y-115778757D01*
X115028622Y-115778751D01*
X114851782Y-115643058D01*
X114851780Y-115643057D01*
X114851774Y-115643052D01*
X114658726Y-115531595D01*
X114658722Y-115531593D01*
X114452790Y-115446293D01*
X114452783Y-115446291D01*
X114452781Y-115446290D01*
X114237463Y-115388596D01*
X114237457Y-115388595D01*
X114237452Y-115388594D01*
X114016466Y-115359501D01*
X114016463Y-115359500D01*
X114016457Y-115359500D01*
X113793543Y-115359500D01*
X113793537Y-115359500D01*
X113793533Y-115359501D01*
X113572547Y-115388594D01*
X113572540Y-115388595D01*
X113572537Y-115388596D01*
X113546506Y-115395571D01*
X113357219Y-115446290D01*
X113357209Y-115446293D01*
X113151277Y-115531593D01*
X113151273Y-115531595D01*
X112958226Y-115643052D01*
X112958217Y-115643058D01*
X112781377Y-115778751D01*
X112781370Y-115778757D01*
X112722681Y-115837447D01*
X112661358Y-115870932D01*
X112591666Y-115865948D01*
X112547319Y-115837447D01*
X112488629Y-115778757D01*
X112488622Y-115778751D01*
X112311782Y-115643058D01*
X112311780Y-115643057D01*
X112311774Y-115643052D01*
X112118726Y-115531595D01*
X112118722Y-115531593D01*
X111912790Y-115446293D01*
X111912783Y-115446291D01*
X111912781Y-115446290D01*
X111697463Y-115388596D01*
X111697457Y-115388595D01*
X111697452Y-115388594D01*
X111476466Y-115359501D01*
X111476463Y-115359500D01*
X111476457Y-115359500D01*
X111253543Y-115359500D01*
X111253537Y-115359500D01*
X111253533Y-115359501D01*
X111032547Y-115388594D01*
X111032540Y-115388595D01*
X111032537Y-115388596D01*
X111006506Y-115395571D01*
X110817219Y-115446290D01*
X110817209Y-115446293D01*
X110611277Y-115531593D01*
X110611273Y-115531595D01*
X110418226Y-115643052D01*
X110418217Y-115643058D01*
X110241377Y-115778751D01*
X110241370Y-115778757D01*
X110182681Y-115837447D01*
X110121358Y-115870932D01*
X110051666Y-115865948D01*
X110007319Y-115837447D01*
X109948629Y-115778757D01*
X109948622Y-115778751D01*
X109771782Y-115643058D01*
X109771780Y-115643057D01*
X109771774Y-115643052D01*
X109578726Y-115531595D01*
X109578722Y-115531593D01*
X109372790Y-115446293D01*
X109372783Y-115446291D01*
X109372781Y-115446290D01*
X109157463Y-115388596D01*
X109157457Y-115388595D01*
X109157452Y-115388594D01*
X108936466Y-115359501D01*
X108936463Y-115359500D01*
X108936457Y-115359500D01*
X108713543Y-115359500D01*
X108713537Y-115359500D01*
X108713533Y-115359501D01*
X108492547Y-115388594D01*
X108492540Y-115388595D01*
X108492537Y-115388596D01*
X108466506Y-115395571D01*
X108277219Y-115446290D01*
X108277209Y-115446293D01*
X108071277Y-115531593D01*
X108071273Y-115531595D01*
X107878226Y-115643052D01*
X107878217Y-115643058D01*
X107701377Y-115778751D01*
X107701370Y-115778757D01*
X107642681Y-115837447D01*
X107581358Y-115870932D01*
X107511666Y-115865948D01*
X107467319Y-115837447D01*
X107408629Y-115778757D01*
X107408622Y-115778751D01*
X107231782Y-115643058D01*
X107231780Y-115643057D01*
X107231774Y-115643052D01*
X107038726Y-115531595D01*
X107038722Y-115531593D01*
X106832790Y-115446293D01*
X106832783Y-115446291D01*
X106832781Y-115446290D01*
X106617463Y-115388596D01*
X106617457Y-115388595D01*
X106617452Y-115388594D01*
X106396466Y-115359501D01*
X106396463Y-115359500D01*
X106396457Y-115359500D01*
X106173543Y-115359500D01*
X106173537Y-115359500D01*
X106173533Y-115359501D01*
X105952547Y-115388594D01*
X105952540Y-115388595D01*
X105952537Y-115388596D01*
X105926506Y-115395571D01*
X105737219Y-115446290D01*
X105737209Y-115446293D01*
X105531277Y-115531593D01*
X105531273Y-115531595D01*
X105338226Y-115643052D01*
X105338217Y-115643058D01*
X105161377Y-115778751D01*
X105161370Y-115778757D01*
X105102681Y-115837447D01*
X105041358Y-115870932D01*
X104971666Y-115865948D01*
X104927319Y-115837447D01*
X104868629Y-115778757D01*
X104868622Y-115778751D01*
X104691782Y-115643058D01*
X104691780Y-115643057D01*
X104691774Y-115643052D01*
X104498726Y-115531595D01*
X104498722Y-115531593D01*
X104292790Y-115446293D01*
X104292783Y-115446291D01*
X104292781Y-115446290D01*
X104077463Y-115388596D01*
X104077457Y-115388595D01*
X104077452Y-115388594D01*
X103856466Y-115359501D01*
X103856463Y-115359500D01*
X103856457Y-115359500D01*
X103633543Y-115359500D01*
X103633537Y-115359500D01*
X103633533Y-115359501D01*
X103412547Y-115388594D01*
X103412540Y-115388595D01*
X103412537Y-115388596D01*
X103386506Y-115395571D01*
X103197219Y-115446290D01*
X103197209Y-115446293D01*
X102991277Y-115531593D01*
X102991273Y-115531595D01*
X102798226Y-115643052D01*
X102798217Y-115643058D01*
X102621377Y-115778751D01*
X102621370Y-115778757D01*
X102463757Y-115936370D01*
X102463751Y-115936377D01*
X102328058Y-116113217D01*
X102328052Y-116113226D01*
X102216595Y-116306272D01*
X102216594Y-116306274D01*
X102158372Y-116446832D01*
X102131493Y-116487059D01*
X101696128Y-116922424D01*
X101680245Y-116863147D01*
X101613102Y-116746853D01*
X101518147Y-116651898D01*
X101401853Y-116584755D01*
X101342574Y-116568871D01*
X102074105Y-115837340D01*
X102074104Y-115837338D01*
X101991174Y-115777087D01*
X101780802Y-115669897D01*
X101556247Y-115596934D01*
X101556248Y-115596934D01*
X101323052Y-115560000D01*
X101086948Y-115560000D01*
X100853752Y-115596934D01*
X100629197Y-115669897D01*
X100418830Y-115777084D01*
X100335894Y-115837340D01*
X101067425Y-116568871D01*
X101008147Y-116584755D01*
X100891853Y-116651898D01*
X100796898Y-116746853D01*
X100729755Y-116863147D01*
X100713871Y-116922425D01*
X100278505Y-116487059D01*
X100251625Y-116446830D01*
X100193409Y-116306282D01*
X100193404Y-116306273D01*
X100081948Y-116113226D01*
X100056494Y-116080053D01*
X99967661Y-115964283D01*
X99967658Y-115964280D01*
X99946247Y-115936376D01*
X99899821Y-115889950D01*
X99897910Y-115887856D01*
X99883770Y-115858892D01*
X99868334Y-115830624D01*
X99867872Y-115826329D01*
X99867257Y-115825069D01*
X99867507Y-115822937D01*
X99865500Y-115804266D01*
X99865500Y-113963625D01*
X99885185Y-113896586D01*
X99901819Y-113875944D01*
X101600944Y-112176819D01*
X101662267Y-112143334D01*
X101688625Y-112140500D01*
X120544486Y-112140500D01*
X120731118Y-112110940D01*
X120910832Y-112052547D01*
X121079199Y-111966760D01*
X121232074Y-111855690D01*
X140830945Y-92256819D01*
X140892268Y-92223334D01*
X140918626Y-92220500D01*
X141398090Y-92220500D01*
X141465129Y-92240185D01*
G37*
%TD.AperFunction*%
%TD*%
M02*
